<?xml version="1.0" encoding="UTF-8"?>
<svg xmlns="http://www.w3.org/2000/svg" xmlns:xlink="http://www.w3.org/1999/xlink" width="30pt" height="30pt" viewBox="0 0 30 30" version="1.1">
<g id="surface1">
<path style=" stroke:none;fill-rule:nonzero;fill:rgb(96.078431%,48.627451%,0%);fill-opacity:1;" d="M 14.992188 0 C 13.265625 0 11.867188 1.398438 11.867188 3.125 C 11.871094 3.273438 11.882812 3.425781 11.910156 3.574219 C 11.953125 3.882812 12.222656 4.109375 12.535156 4.109375 C 12.59375 4.109375 12.652344 4.097656 12.710938 4.082031 C 14.203125 3.640625 15.792969 3.640625 17.285156 4.082031 C 17.464844 4.125 17.652344 4.09375 17.800781 3.988281 C 17.957031 3.882812 18.058594 3.71875 18.085938 3.535156 C 18.109375 3.398438 18.121094 3.261719 18.125 3.125 C 18.125 1.398438 16.722656 0 14.996094 0 C 14.996094 0 14.992188 0 14.992188 0 Z M 14.992188 0 "/>
<path style=" stroke:none;fill-rule:nonzero;fill:rgb(100%,62.745098%,0%);fill-opacity:1;" d="M 18.742188 25 L 11.242188 25 C 10.898438 25 10.617188 25.28125 10.617188 25.625 C 10.617188 28.042969 12.574219 30 14.992188 30 C 17.410156 30 19.367188 28.042969 19.367188 25.625 C 19.367188 25.28125 19.085938 25 18.742188 25 Z M 18.742188 25 "/>
<path style=" stroke:none;fill-rule:nonzero;fill:rgb(100%,75.686275%,2.745098%);fill-opacity:1;" d="M 26.644531 22.761719 C 26.445312 22.324219 26.199219 21.835938 25.921875 21.300781 C 24.230469 18.433594 23.269531 15.199219 23.117188 11.875 C 23.117188 6.921875 20.492188 3.285156 16.433594 2.613281 C 14.0625 2.234375 11.648438 2.9375 9.855469 4.53125 C 7.871094 6.265625 6.769531 8.796875 6.855469 11.433594 C 6.804688 14.914062 5.839844 18.324219 4.066406 21.316406 C 3.796875 21.847656 3.550781 22.328125 3.355469 22.761719 C 2.792969 24.003906 3.34375 25.464844 4.585938 26.03125 C 4.910156 26.175781 5.261719 26.25 5.617188 26.25 L 24.386719 26.25 C 25.75 26.253906 26.859375 25.152344 26.863281 23.789062 C 26.867188 23.433594 26.789062 23.082031 26.644531 22.761719 Z M 26.644531 22.761719 "/>
<path style=" stroke:none;fill-rule:nonzero;fill:rgb(100%,83.529412%,30.980392%);fill-opacity:1;" d="M 6.660156 23.75 C 6.3125 23.75 6.035156 23.46875 6.035156 23.125 C 6.035156 23.027344 6.054688 22.933594 6.101562 22.84375 L 6.300781 22.449219 C 8.167969 19.226562 9.21875 15.597656 9.367188 11.875 C 9.367188 8.703125 10.839844 5 14.992188 5 C 15.335938 5 15.617188 5.28125 15.617188 5.625 C 15.617188 5.96875 15.335938 6.25 14.992188 6.25 C 10.933594 6.25 10.617188 10.554688 10.617188 11.875 C 10.476562 15.796875 9.378906 19.621094 7.414062 23.019531 L 7.21875 23.40625 C 7.113281 23.617188 6.894531 23.75 6.660156 23.75 Z M 6.660156 23.75 "/>
</g>
</svg>
