<?xml version="1.0" encoding="UTF-8"?>
<svg xmlns="http://www.w3.org/2000/svg" xmlns:xlink="http://www.w3.org/1999/xlink" width="30pt" height="30pt" viewBox="0 0 30 30" version="1.1">
<g id="surface1">
<path style=" stroke:none;fill-rule:nonzero;fill:rgb(90.196078%,96.862745%,100%);fill-opacity:1;" d="M 16.195312 26.484375 L 3.574219 26.484375 C 3.089844 26.484375 2.695312 26.089844 2.695312 25.605469 L 2.695312 0.878906 C 2.695312 0.394531 3.089844 0 3.574219 0 L 21.152344 0 C 21.636719 0 22.03125 0.394531 22.03125 0.878906 L 22.03125 18.574219 C 22.03125 19.058594 21.636719 19.453125 21.152344 19.453125 C 18.726562 19.453125 16.757812 21.425781 16.757812 23.847656 C 16.757812 24.363281 16.84375 24.847656 17.011719 25.289062 C 17.238281 25.867188 16.808594 26.484375 16.195312 26.484375 Z M 16.195312 26.484375 "/>
<path style=" stroke:none;fill-rule:nonzero;fill:rgb(80%,93.333333%,100%);fill-opacity:1;" d="M 12.363281 26.484375 L 16.195312 26.484375 C 16.808594 26.484375 17.238281 25.867188 17.011719 25.289062 C 16.84375 24.847656 16.757812 24.363281 16.757812 23.847656 C 16.757812 21.425781 18.730469 19.453125 21.152344 19.453125 C 21.636719 19.453125 22.03125 19.058594 22.03125 18.574219 L 22.03125 0.878906 C 22.03125 0.394531 21.636719 0 21.152344 0 L 12.363281 0 Z M 12.363281 26.484375 "/>
<path style=" stroke:none;fill-rule:nonzero;fill:rgb(59.215686%,87.058824%,23.921569%);fill-opacity:1;" d="M 21.152344 30 C 17.695312 30 15 27.183594 15 23.847656 C 15 20.457031 17.761719 17.695312 21.152344 17.695312 C 24.542969 17.695312 27.304688 20.457031 27.304688 23.847656 C 27.304688 27.238281 24.542969 30 21.152344 30 Z M 21.152344 30 "/>
<path style=" stroke:none;fill-rule:nonzero;fill:rgb(27.843137%,33.72549%,54.901961%);fill-opacity:1;" d="M 7.96875 6.269531 C 7.96875 6.753906 7.574219 7.148438 7.089844 7.148438 C 6.605469 7.148438 6.210938 6.753906 6.210938 6.269531 C 6.210938 5.785156 6.605469 5.390625 7.089844 5.390625 C 7.574219 5.390625 7.96875 5.785156 7.96875 6.269531 Z M 7.96875 6.269531 "/>
<path style=" stroke:none;fill-rule:nonzero;fill:rgb(27.843137%,33.72549%,54.901961%);fill-opacity:1;" d="M 7.96875 9.785156 C 7.96875 10.269531 7.574219 10.664062 7.089844 10.664062 C 6.605469 10.664062 6.210938 10.269531 6.210938 9.785156 C 6.210938 9.300781 6.605469 8.90625 7.089844 8.90625 C 7.574219 8.90625 7.96875 9.300781 7.96875 9.785156 Z M 7.96875 9.785156 "/>
<path style=" stroke:none;fill-rule:nonzero;fill:rgb(27.843137%,33.72549%,54.901961%);fill-opacity:1;" d="M 7.96875 13.300781 C 7.96875 13.785156 7.574219 14.179688 7.089844 14.179688 C 6.605469 14.179688 6.210938 13.785156 6.210938 13.300781 C 6.210938 12.816406 6.605469 12.421875 7.089844 12.421875 C 7.574219 12.421875 7.96875 12.816406 7.96875 13.300781 Z M 7.96875 13.300781 "/>
<path style=" stroke:none;fill-rule:nonzero;fill:rgb(27.843137%,33.72549%,54.901961%);fill-opacity:1;" d="M 7.96875 16.816406 C 7.96875 17.300781 7.574219 17.695312 7.089844 17.695312 C 6.605469 17.695312 6.210938 17.300781 6.210938 16.816406 C 6.210938 16.332031 6.605469 15.9375 7.089844 15.9375 C 7.574219 15.9375 7.96875 16.332031 7.96875 16.816406 Z M 7.96875 16.816406 "/>
<path style=" stroke:none;fill-rule:nonzero;fill:rgb(60%,93.333333%,100%);fill-opacity:1;" d="M 17.636719 7.148438 L 10.605469 7.148438 C 10.121094 7.148438 9.726562 6.753906 9.726562 6.269531 C 9.726562 5.785156 10.121094 5.390625 10.605469 5.390625 L 17.636719 5.390625 C 18.121094 5.390625 18.515625 5.785156 18.515625 6.269531 C 18.515625 6.753906 18.121094 7.148438 17.636719 7.148438 Z M 17.636719 7.148438 "/>
<path style=" stroke:none;fill-rule:nonzero;fill:rgb(60%,93.333333%,100%);fill-opacity:1;" d="M 17.636719 10.664062 L 10.605469 10.664062 C 10.121094 10.664062 9.726562 10.269531 9.726562 9.785156 C 9.726562 9.300781 10.121094 8.90625 10.605469 8.90625 L 17.636719 8.90625 C 18.121094 8.90625 18.515625 9.300781 18.515625 9.785156 C 18.515625 10.269531 18.121094 10.664062 17.636719 10.664062 Z M 17.636719 10.664062 "/>
<path style=" stroke:none;fill-rule:nonzero;fill:rgb(60%,93.333333%,100%);fill-opacity:1;" d="M 17.636719 14.179688 L 10.605469 14.179688 C 10.121094 14.179688 9.726562 13.785156 9.726562 13.300781 C 9.726562 12.816406 10.121094 12.421875 10.605469 12.421875 L 17.636719 12.421875 C 18.121094 12.421875 18.515625 12.816406 18.515625 13.300781 C 18.515625 13.785156 18.121094 14.179688 17.636719 14.179688 Z M 17.636719 14.179688 "/>
<path style=" stroke:none;fill-rule:nonzero;fill:rgb(60%,93.333333%,100%);fill-opacity:1;" d="M 14.121094 17.695312 L 10.605469 17.695312 C 10.121094 17.695312 9.726562 17.300781 9.726562 16.816406 C 9.726562 16.332031 10.121094 15.9375 10.605469 15.9375 L 14.121094 15.9375 C 14.605469 15.9375 15 16.332031 15 16.816406 C 15 17.300781 14.605469 17.695312 14.121094 17.695312 Z M 14.121094 17.695312 "/>
<path style=" stroke:none;fill-rule:nonzero;fill:rgb(50.196078%,74.901961%,100%);fill-opacity:1;" d="M 12.363281 17.695312 L 14.121094 17.695312 C 14.605469 17.695312 15 17.300781 15 16.816406 C 15 16.332031 14.605469 15.9375 14.121094 15.9375 L 12.363281 15.9375 Z M 12.363281 17.695312 "/>
<path style=" stroke:none;fill-rule:nonzero;fill:rgb(50.196078%,74.901961%,100%);fill-opacity:1;" d="M 12.363281 14.179688 L 17.636719 14.179688 C 18.121094 14.179688 18.515625 13.785156 18.515625 13.300781 C 18.515625 12.816406 18.121094 12.421875 17.636719 12.421875 L 12.363281 12.421875 Z M 12.363281 14.179688 "/>
<path style=" stroke:none;fill-rule:nonzero;fill:rgb(50.196078%,74.901961%,100%);fill-opacity:1;" d="M 12.363281 10.664062 L 17.636719 10.664062 C 18.121094 10.664062 18.515625 10.269531 18.515625 9.785156 C 18.515625 9.300781 18.121094 8.90625 17.636719 8.90625 L 12.363281 8.90625 Z M 12.363281 10.664062 "/>
<path style=" stroke:none;fill-rule:nonzero;fill:rgb(50.196078%,74.901961%,100%);fill-opacity:1;" d="M 12.363281 7.148438 L 17.636719 7.148438 C 18.121094 7.148438 18.515625 6.753906 18.515625 6.269531 C 18.515625 5.785156 18.121094 5.390625 17.636719 5.390625 L 12.363281 5.390625 Z M 12.363281 7.148438 "/>
<path style=" stroke:none;fill-rule:nonzero;fill:rgb(34.901961%,76.470588%,41.568627%);fill-opacity:1;" d="M 27.304688 23.847656 C 27.304688 20.457031 24.542969 17.695312 21.152344 17.695312 L 21.152344 30 C 24.542969 30 27.304688 27.238281 27.304688 23.847656 Z M 27.304688 23.847656 "/>
<path style=" stroke:none;fill-rule:nonzero;fill:rgb(94.117647%,96.862745%,100%);fill-opacity:1;" d="M 19.652344 25.789062 L 18.332031 24.46875 C 17.992188 24.125 17.992188 23.570312 18.332031 23.226562 C 18.675781 22.882812 19.234375 22.882812 19.578125 23.226562 L 20.273438 23.921875 L 22.289062 21.90625 C 22.632812 21.566406 23.1875 21.566406 23.53125 21.90625 C 23.875 22.25 23.875 22.808594 23.53125 23.152344 L 20.894531 25.789062 C 20.550781 26.128906 19.996094 26.128906 19.652344 25.789062 Z M 19.652344 25.789062 "/>
<path style=" stroke:none;fill-rule:nonzero;fill:rgb(87.45098%,90.588235%,95.686275%);fill-opacity:1;" d="M 22.289062 21.90625 L 21.152344 23.042969 L 21.152344 25.53125 L 23.53125 23.152344 C 23.875 22.808594 23.875 22.25 23.53125 21.90625 C 23.1875 21.566406 22.632812 21.566406 22.289062 21.90625 Z M 22.289062 21.90625 "/>
</g>
</svg>
