<?xml version="1.0" encoding="UTF-8"?>
<svg xmlns="http://www.w3.org/2000/svg" xmlns:xlink="http://www.w3.org/1999/xlink" width="30pt" height="30pt" viewBox="0 0 30 30" version="1.1">
<g id="surface1">
<path style=" stroke:none;fill-rule:nonzero;fill:rgb(91.764706%,67.45098%,61.568627%);fill-opacity:1;" d="M 13.542969 19.777344 L 21.296875 15.277344 C 22.203125 14.726562 23.378906 14.941406 24.035156 15.777344 C 24.667969 16.582031 24.628906 17.722656 23.945312 18.480469 L 15.324219 22.179688 Z M 13.542969 19.777344 "/>
<path style=" stroke:none;fill-rule:nonzero;fill:rgb(100%,79.607843%,74.509804%);fill-opacity:1;" d="M 16.753906 19.964844 L 24.507812 15.46875 C 25.417969 14.917969 26.59375 15.132812 27.25 15.964844 C 27.878906 16.769531 27.839844 17.914062 27.15625 18.671875 L 18.539062 22.371094 Z M 16.753906 19.964844 "/>
<path style=" stroke:none;fill-rule:nonzero;fill:rgb(100%,86.666667%,80.784314%);fill-opacity:1;" d="M 30 18.082031 C 30 18.585938 29.820312 19.089844 29.457031 19.488281 L 28.023438 21.074219 L 25.082031 24.335938 C 24.59375 24.875 23.925781 25.226562 23.203125 25.316406 L 9.917969 27.007812 L 4.582031 23.054688 C 4.554688 23.011719 4.289062 17.222656 4.289062 17.222656 L 7.414062 14.824219 C 8.871094 13.707031 10.511719 12.863281 12.257812 12.328125 C 12.332031 12.308594 12.40625 12.285156 12.480469 12.265625 C 13.011719 12.113281 13.550781 11.988281 14.097656 11.890625 L 14.636719 11.796875 C 15.757812 11.601562 16.828125 12.332031 17.054688 13.445312 C 17.082031 13.585938 17.097656 13.726562 17.097656 13.863281 C 17.097656 14.53125 16.777344 15.171875 16.21875 15.570312 L 12.773438 18.039062 L 22.015625 19.195312 L 26.8125 16.285156 C 27.71875 15.734375 28.894531 15.949219 29.550781 16.785156 C 29.851562 17.167969 30 17.625 30 18.082031 Z M 30 18.082031 "/>
<path style=" stroke:none;fill-rule:nonzero;fill:rgb(100%,79.607843%,74.509804%);fill-opacity:1;" d="M 28.023438 21.074219 L 25.082031 24.335938 C 24.59375 24.875 23.925781 25.226562 23.203125 25.316406 L 9.917969 27.007812 L 7.015625 24.859375 L 6.523438 21.109375 C 10.539062 27.902344 26.417969 22.859375 28.023438 21.074219 Z M 28.023438 21.074219 "/>
<path style=" stroke:none;fill-rule:nonzero;fill:rgb(61.568627%,77.647059%,98.431373%);fill-opacity:1;" d="M 9.917969 27.007812 L 5.628906 29.75 L 2.953125 25.097656 L 0 19.964844 L 4.289062 17.222656 L 7.511719 22.828125 Z M 9.917969 27.007812 "/>
<path style=" stroke:none;fill-rule:nonzero;fill:rgb(50.196078%,70.588235%,98.431373%);fill-opacity:1;" d="M 9.917969 27.007812 L 5.628906 29.75 L 2.953125 25.097656 C 6.023438 25.339844 7.511719 22.828125 7.511719 22.828125 Z M 9.917969 27.007812 "/>
<path style=" stroke:none;fill-rule:nonzero;fill:rgb(97.647059%,96.470588%,96.470588%);fill-opacity:1;" d="M 7.492188 26.417969 C 7.492188 26.929688 7.082031 27.34375 6.570312 27.34375 C 6.0625 27.34375 5.648438 26.929688 5.648438 26.417969 C 5.648438 25.910156 6.0625 25.496094 6.570312 25.496094 C 7.082031 25.496094 7.492188 25.910156 7.492188 26.417969 Z M 7.492188 26.417969 "/>
<path style=" stroke:none;fill-rule:nonzero;fill:rgb(94.509804%,90.196078%,30.196078%);fill-opacity:1;" d="M 22.324219 5.644531 L 21.351562 6.597656 C 21.050781 6.890625 20.914062 7.3125 20.984375 7.722656 L 21.214844 9.066406 C 21.394531 10.105469 20.300781 10.898438 19.367188 10.410156 L 18.160156 9.773438 C 17.789062 9.578125 17.347656 9.578125 16.976562 9.773438 L 15.769531 10.410156 C 14.835938 10.898438 13.746094 10.105469 13.921875 9.066406 L 14.152344 7.722656 C 14.226562 7.3125 14.085938 6.890625 13.789062 6.597656 L 12.8125 5.644531 C 12.058594 4.910156 12.472656 3.625 13.519531 3.472656 L 14.867188 3.277344 C 15.28125 3.21875 15.640625 2.957031 15.824219 2.582031 L 16.425781 1.359375 C 16.660156 0.886719 17.113281 0.652344 17.570312 0.652344 C 18.023438 0.652344 18.476562 0.886719 18.710938 1.359375 L 19.3125 2.582031 C 19.5 2.957031 19.859375 3.21875 20.273438 3.277344 L 21.621094 3.472656 C 22.664062 3.625 23.082031 4.910156 22.324219 5.644531 Z M 22.324219 5.644531 "/>
<path style=" stroke:none;fill-rule:nonzero;fill:rgb(100%,76.078431%,31.372549%);fill-opacity:1;" d="M 14.480469 5.8125 C 14.878906 6.824219 15.46875 7.503906 15.054688 8.460938 C 14.640625 9.417969 14.847656 10.675781 16.976562 9.773438 L 15.769531 10.410156 C 14.835938 10.898438 13.746094 10.105469 13.921875 9.066406 L 14.152344 7.722656 C 14.226562 7.3125 14.085938 6.890625 13.789062 6.597656 L 12.8125 5.644531 C 12.058594 4.910156 12.472656 3.625 13.519531 3.472656 L 14.867188 3.277344 C 15.28125 3.21875 15.640625 2.957031 15.824219 2.582031 L 16.425781 1.359375 C 16.660156 0.886719 17.113281 0.652344 17.570312 0.652344 C 16.671875 0.652344 17.046875 3.234375 15.761719 3.914062 C 14.480469 4.589844 14.082031 4.796875 14.480469 5.8125 Z M 14.480469 5.8125 "/>
<path style=" stroke:none;fill-rule:nonzero;fill:rgb(96.862745%,95.686275%,57.647059%);fill-opacity:1;" d="M 10.59375 2.207031 L 10.535156 2.3125 C 10.320312 2.683594 9.855469 2.828125 9.46875 2.636719 L 8.285156 2.058594 C 7.859375 1.851562 7.699219 1.328125 7.9375 0.917969 L 8.085938 0.65625 C 8.324219 0.246094 8.855469 0.125 9.25 0.386719 L 10.34375 1.125 C 10.699219 1.363281 10.808594 1.835938 10.59375 2.207031 Z M 10.59375 2.207031 "/>
<path style=" stroke:none;fill-rule:nonzero;fill:rgb(96.862745%,95.686275%,57.647059%);fill-opacity:1;" d="M 24.542969 10.121094 L 24.605469 10.015625 C 24.820312 9.644531 25.285156 9.5 25.671875 9.691406 L 26.855469 10.269531 C 27.277344 10.476562 27.4375 11 27.203125 11.410156 L 27.050781 11.671875 C 26.816406 12.082031 26.28125 12.203125 25.890625 11.941406 L 24.796875 11.203125 C 24.441406 10.964844 24.328125 10.492188 24.542969 10.121094 Z M 24.542969 10.121094 "/>
<path style=" stroke:none;fill-rule:nonzero;fill:rgb(96.862745%,95.686275%,57.647059%);fill-opacity:1;" d="M 9.519531 6.101562 L 9.519531 6.226562 C 9.519531 6.652344 9.1875 7.007812 8.757812 7.039062 L 7.441406 7.128906 C 6.972656 7.160156 6.570312 6.789062 6.570312 6.316406 L 6.570312 6.011719 C 6.570312 5.539062 6.972656 5.167969 7.441406 5.199219 L 8.757812 5.289062 C 9.1875 5.320312 9.519531 5.675781 9.519531 6.101562 Z M 9.519531 6.101562 "/>
<path style=" stroke:none;fill-rule:nonzero;fill:rgb(96.862745%,95.686275%,57.647059%);fill-opacity:1;" d="M 25.621094 6.226562 L 25.621094 6.101562 C 25.621094 5.675781 25.953125 5.320312 26.378906 5.289062 L 27.695312 5.199219 C 28.167969 5.167969 28.566406 5.539062 28.566406 6.011719 L 28.566406 6.316406 C 28.566406 6.789062 28.167969 7.160156 27.695312 7.128906 L 26.378906 7.039062 C 25.953125 7.007812 25.621094 6.652344 25.621094 6.226562 Z M 25.621094 6.226562 "/>
<path style=" stroke:none;fill-rule:nonzero;fill:rgb(96.862745%,95.686275%,57.647059%);fill-opacity:1;" d="M 10.535156 10.015625 L 10.59375 10.121094 C 10.808594 10.492188 10.699219 10.964844 10.34375 11.203125 L 9.25 11.941406 C 8.855469 12.203125 8.324219 12.082031 8.085938 11.671875 L 7.9375 11.410156 C 7.699219 11 7.859375 10.476562 8.285156 10.269531 L 9.46875 9.691406 C 9.855469 9.5 10.320312 9.644531 10.535156 10.015625 Z M 10.535156 10.015625 "/>
<path style=" stroke:none;fill-rule:nonzero;fill:rgb(96.862745%,95.686275%,57.647059%);fill-opacity:1;" d="M 24.605469 2.3125 L 24.542969 2.207031 C 24.328125 1.835938 24.441406 1.363281 24.796875 1.125 L 25.890625 0.386719 C 26.28125 0.125 26.816406 0.246094 27.050781 0.65625 L 27.203125 0.917969 C 27.4375 1.328125 27.277344 1.851562 26.855469 2.058594 L 25.671875 2.636719 C 25.285156 2.828125 24.820312 2.683594 24.605469 2.3125 Z M 24.605469 2.3125 "/>
</g>
</svg>
