<?xml version="1.0" encoding="UTF-8"?>
<svg xmlns="http://www.w3.org/2000/svg" xmlns:xlink="http://www.w3.org/1999/xlink" width="30pt" height="30pt" viewBox="0 0 30 30" version="1.1">
<g id="surface1">
<path style=" stroke:none;fill-rule:nonzero;fill:rgb(61.568627%,77.647059%,98.431373%);fill-opacity:1;" d="M 23.6875 23.039062 L 4.304688 25.714844 L 4.304688 1.796875 C 4.304688 1.046875 4.914062 0.441406 5.664062 0.441406 L 22.332031 0.441406 C 23.082031 0.441406 23.6875 1.046875 23.6875 1.796875 Z M 23.6875 23.039062 "/>
<path style=" stroke:none;fill-rule:nonzero;fill:rgb(53.72549%,57.647059%,85.490196%);fill-opacity:1;" d="M 22.332031 0.441406 L 20.683594 0.441406 C 21.429688 0.441406 22.039062 1.046875 22.039062 1.796875 L 22.039062 23.039062 L 4.304688 25.484375 L 4.304688 25.714844 L 23.6875 23.039062 L 23.6875 1.796875 C 23.6875 1.046875 23.082031 0.441406 22.332031 0.441406 Z M 22.332031 0.441406 "/>
<path style=" stroke:none;fill-rule:nonzero;fill:rgb(100%,96.470588%,95.686275%);fill-opacity:1;" d="M 23.6875 23.039062 L 6.039062 23.039062 C 5.082031 23.039062 4.304688 23.8125 4.304688 24.769531 L 4.304688 26.65625 C 4.304688 27.613281 5.082031 28.390625 6.039062 28.390625 L 22.332031 28.390625 C 23.082031 28.390625 23.6875 27.78125 23.6875 27.03125 Z M 23.6875 23.039062 "/>
<path style=" stroke:none;fill-rule:nonzero;fill:rgb(84.705882%,88.627451%,94.509804%);fill-opacity:1;" d="M 22.039062 23.039062 L 22.039062 27.03125 C 22.039062 27.78125 21.429688 28.390625 20.683594 28.390625 L 22.332031 28.390625 C 23.082031 28.390625 23.6875 27.78125 23.6875 27.03125 L 23.6875 23.039062 Z M 22.039062 23.039062 "/>
<path style=" stroke:none;fill-rule:nonzero;fill:rgb(86.666667%,38.823529%,43.137255%);fill-opacity:1;" d="M 25.328125 6.554688 L 23.6875 6.769531 L 23.6875 2.90625 L 25.328125 3.117188 C 25.539062 3.144531 25.695312 3.324219 25.695312 3.535156 L 25.695312 6.136719 C 25.695312 6.351562 25.539062 6.527344 25.328125 6.554688 Z M 25.328125 6.554688 "/>
<path style=" stroke:none;fill-rule:nonzero;fill:rgb(96.470588%,88.627451%,40%);fill-opacity:1;" d="M 25.328125 12.425781 L 23.6875 12.636719 L 23.6875 8.777344 L 25.328125 8.988281 C 25.539062 9.015625 25.695312 9.195312 25.695312 9.40625 L 25.695312 12.007812 C 25.695312 12.222656 25.539062 12.398438 25.328125 12.425781 Z M 25.328125 12.425781 "/>
<path style=" stroke:none;fill-rule:nonzero;fill:rgb(50.196078%,88.627451%,61.568627%);fill-opacity:1;" d="M 25.328125 18.296875 L 23.6875 18.507812 L 23.6875 14.648438 L 25.328125 14.859375 C 25.539062 14.886719 25.695312 15.066406 25.695312 15.277344 L 25.695312 17.878906 C 25.695312 18.089844 25.539062 18.269531 25.328125 18.296875 Z M 25.328125 18.296875 "/>
<path style=" stroke:none;fill-rule:nonzero;fill:rgb(100%,96.470588%,95.686275%);fill-opacity:1;" d="M 20.203125 8.191406 L 7.792969 8.191406 C 7.691406 8.191406 7.605469 8.109375 7.605469 8.003906 L 7.605469 3.59375 C 7.605469 3.488281 7.691406 3.40625 7.792969 3.40625 L 20.203125 3.40625 C 20.304688 3.40625 20.386719 3.488281 20.386719 3.59375 L 20.386719 8.003906 C 20.386719 8.109375 20.304688 8.191406 20.203125 8.191406 Z M 20.203125 8.191406 "/>
<path style=" stroke:none;fill-rule:nonzero;fill:rgb(84.705882%,88.627451%,94.509804%);fill-opacity:1;" d="M 20.203125 3.40625 L 18.898438 3.40625 C 19 3.40625 19.082031 3.488281 19.082031 3.59375 L 19.082031 8.003906 C 19.082031 8.109375 19 8.191406 18.898438 8.191406 L 20.203125 8.191406 C 20.304688 8.191406 20.386719 8.109375 20.386719 8.003906 L 20.386719 3.59375 C 20.386719 3.488281 20.304688 3.40625 20.203125 3.40625 Z M 20.203125 3.40625 "/>
<path style=" stroke:none;fill-rule:nonzero;fill:rgb(86.666667%,38.823529%,43.137255%);fill-opacity:1;" d="M 16.585938 29.546875 L 15.433594 29.195312 C 15.375 29.175781 15.308594 29.175781 15.246094 29.195312 L 14.097656 29.546875 C 13.890625 29.609375 13.683594 29.457031 13.683594 29.242188 L 13.683594 26.558594 L 17 26.558594 L 17 29.242188 C 16.996094 29.457031 16.789062 29.609375 16.585938 29.546875 Z M 16.585938 29.546875 "/>
<path style=" stroke:none;fill-rule:nonzero;fill:rgb(77.647059%,23.921569%,30.980392%);fill-opacity:1;" d="M 16.082031 26.558594 L 16.082031 29.242188 C 16.082031 29.292969 16.070312 29.339844 16.050781 29.382812 L 16.585938 29.546875 C 16.789062 29.609375 16.996094 29.457031 16.996094 29.242188 L 16.996094 26.558594 Z M 16.082031 26.558594 "/>
<path style=" stroke:none;fill-rule:nonzero;fill:rgb(0%,0%,0%);fill-opacity:1;" d="M 25.382812 6.992188 C 25.8125 6.9375 26.132812 6.570312 26.132812 6.136719 L 26.132812 3.535156 C 26.132812 3.101562 25.8125 2.734375 25.382812 2.679688 L 24.128906 2.519531 L 24.128906 1.796875 C 24.128906 0.804688 23.324219 0 22.332031 0 L 9.089844 0 C 8.847656 0 8.652344 0.195312 8.652344 0.441406 C 8.652344 0.683594 8.847656 0.878906 9.089844 0.878906 L 22.332031 0.878906 C 22.839844 0.878906 23.25 1.289062 23.25 1.796875 L 23.25 22.597656 L 6.039062 22.597656 C 5.554688 22.597656 5.105469 22.757812 4.746094 23.027344 L 4.746094 1.796875 C 4.746094 1.289062 5.15625 0.878906 5.664062 0.878906 L 7.332031 0.878906 C 7.574219 0.878906 7.773438 0.683594 7.773438 0.441406 C 7.773438 0.195312 7.574219 0 7.332031 0 L 5.664062 0 C 4.671875 0 3.867188 0.804688 3.867188 1.796875 L 3.867188 26.65625 C 3.867188 27.855469 4.839844 28.828125 6.039062 28.828125 L 13.246094 28.828125 L 13.246094 29.242188 C 13.246094 29.480469 13.359375 29.707031 13.550781 29.851562 C 13.742188 29.992188 13.996094 30.039062 14.226562 29.96875 L 15.339844 29.625 L 16.457031 29.96875 C 16.683594 30.035156 16.9375 29.992188 17.128906 29.851562 C 17.324219 29.707031 17.4375 29.480469 17.4375 29.242188 L 17.4375 28.828125 L 18.765625 28.828125 C 19.007812 28.828125 19.203125 28.632812 19.203125 28.390625 C 19.203125 28.144531 19.007812 27.949219 18.765625 27.949219 L 17.4375 27.949219 L 17.4375 27 L 21.035156 27 C 21.277344 27 21.472656 26.804688 21.472656 26.558594 C 21.472656 26.316406 21.277344 26.121094 21.035156 26.121094 L 6.960938 26.121094 C 6.71875 26.121094 6.519531 26.316406 6.519531 26.558594 C 6.519531 26.804688 6.71875 27 6.960938 27 L 13.246094 27 L 13.246094 27.949219 L 6.039062 27.949219 C 5.324219 27.949219 4.746094 27.371094 4.746094 26.65625 L 4.746094 24.769531 C 4.746094 24.058594 5.324219 23.476562 6.039062 23.476562 L 23.25 23.476562 L 23.25 27.03125 C 23.25 27.539062 22.839844 27.949219 22.332031 27.949219 L 20.519531 27.949219 C 20.277344 27.949219 20.082031 28.144531 20.082031 28.390625 C 20.082031 28.632812 20.277344 28.828125 20.519531 28.828125 L 22.332031 28.828125 C 23.324219 28.828125 24.128906 28.023438 24.128906 27.03125 L 24.128906 18.894531 L 25.382812 18.734375 C 25.8125 18.679688 26.132812 18.3125 26.132812 17.878906 L 26.132812 15.277344 C 26.132812 14.84375 25.8125 14.476562 25.382812 14.421875 L 24.128906 14.261719 L 24.128906 13.023438 L 25.382812 12.863281 C 25.8125 12.808594 26.132812 12.441406 26.132812 12.007812 L 26.132812 9.40625 C 26.132812 8.972656 25.8125 8.605469 25.382812 8.550781 L 24.128906 8.390625 L 24.128906 7.152344 Z M 16.558594 27 L 16.558594 29.078125 L 15.5625 28.773438 C 15.417969 28.730469 15.265625 28.730469 15.117188 28.773438 L 14.125 29.078125 L 14.125 27 Z M 25.253906 3.550781 L 25.253906 6.121094 L 24.128906 6.269531 L 24.128906 3.40625 Z M 25.253906 15.292969 L 25.253906 17.863281 L 24.128906 18.007812 L 24.128906 15.148438 Z M 25.253906 9.421875 L 25.253906 11.992188 L 24.128906 12.140625 L 24.128906 9.277344 Z M 25.253906 9.421875 "/>
<path style=" stroke:none;fill-rule:nonzero;fill:rgb(0%,0%,0%);fill-opacity:1;" d="M 17.609375 5.800781 C 17.609375 5.554688 17.414062 5.359375 17.171875 5.359375 L 10.824219 5.359375 C 10.582031 5.359375 10.382812 5.554688 10.382812 5.800781 C 10.382812 6.042969 10.582031 6.238281 10.824219 6.238281 L 17.171875 6.238281 C 17.414062 6.238281 17.609375 6.042969 17.609375 5.800781 Z M 17.609375 5.800781 "/>
<path style=" stroke:none;fill-rule:nonzero;fill:rgb(0%,0%,0%);fill-opacity:1;" d="M 11.265625 11.90625 C 11.265625 12.148438 11.460938 12.34375 11.703125 12.34375 L 16.289062 12.34375 C 16.53125 12.34375 16.730469 12.148438 16.730469 11.90625 C 16.730469 11.660156 16.53125 11.464844 16.289062 11.464844 L 11.703125 11.464844 C 11.460938 11.464844 11.265625 11.660156 11.265625 11.90625 Z M 11.265625 11.90625 "/>
<path style=" stroke:none;fill-rule:nonzero;fill:rgb(0%,0%,0%);fill-opacity:1;" d="M 9.601562 14.523438 C 9.601562 14.765625 9.796875 14.964844 10.042969 14.964844 L 17.953125 14.964844 C 18.195312 14.964844 18.394531 14.765625 18.394531 14.523438 C 18.394531 14.28125 18.195312 14.085938 17.953125 14.085938 L 10.042969 14.085938 C 9.796875 14.085938 9.601562 14.28125 9.601562 14.523438 Z M 9.601562 14.523438 "/>
<path style=" stroke:none;fill-rule:nonzero;fill:rgb(0%,0%,0%);fill-opacity:1;" d="M 6.960938 24.425781 C 6.71875 24.425781 6.519531 24.625 6.519531 24.867188 C 6.519531 25.109375 6.71875 25.304688 6.960938 25.304688 L 21.035156 25.304688 C 21.277344 25.304688 21.472656 25.109375 21.472656 24.867188 C 21.472656 24.625 21.277344 24.425781 21.035156 24.425781 Z M 6.960938 24.425781 "/>
<path style=" stroke:none;fill-rule:nonzero;fill:rgb(0%,0%,0%);fill-opacity:1;" d="M 20.828125 8.003906 L 20.828125 3.59375 C 20.828125 3.246094 20.546875 2.96875 20.203125 2.96875 L 7.792969 2.96875 C 7.449219 2.96875 7.167969 3.246094 7.167969 3.59375 L 7.167969 8.003906 C 7.167969 8.351562 7.449219 8.632812 7.792969 8.632812 L 15.410156 8.632812 C 15.652344 8.632812 15.851562 8.433594 15.851562 8.191406 C 15.851562 7.949219 15.652344 7.753906 15.410156 7.753906 L 8.046875 7.753906 L 8.046875 3.847656 L 19.949219 3.847656 L 19.949219 7.753906 L 17.167969 7.753906 C 16.925781 7.753906 16.730469 7.949219 16.730469 8.191406 C 16.730469 8.433594 16.925781 8.632812 17.167969 8.632812 L 20.203125 8.632812 C 20.546875 8.632812 20.828125 8.351562 20.828125 8.003906 Z M 20.828125 8.003906 "/>
</g>
</svg>
