<?xml version="1.0" encoding="UTF-8"?>
<svg xmlns="http://www.w3.org/2000/svg" xmlns:xlink="http://www.w3.org/1999/xlink" width="30pt" height="30pt" viewBox="0 0 30 30" version="1.1">
<g id="surface1">
<path style=" stroke:none;fill-rule:nonzero;fill:rgb(34.117647%,64.313725%,100%);fill-opacity:1;" d="M 27.210938 7.640625 L 23.582031 6.023438 L 21.964844 2.394531 L 18.015625 2.804688 L 14.800781 0.476562 L 11.585938 2.804688 L 7.640625 2.394531 L 6.023438 6.023438 L 2.398438 7.640625 L 2.808594 11.585938 L 0.476562 14.800781 L 2.808594 18.015625 L 2.398438 21.964844 L 6.023438 23.582031 L 7.640625 27.210938 L 11.589844 26.800781 L 14.800781 29.128906 L 18.015625 26.800781 L 21.964844 27.210938 L 23.582031 23.582031 L 27.210938 21.964844 L 26.800781 18.015625 L 29.128906 14.800781 L 26.800781 11.585938 Z M 11.9375 20.53125 L 7.882812 16.480469 L 9.234375 15.128906 L 11.9375 17.828125 L 20.042969 9.726562 L 21.394531 11.078125 Z M 11.9375 20.53125 "/>
<path style=" stroke:none;fill-rule:nonzero;fill:rgb(11.764706%,50.588235%,80.784314%);fill-opacity:1;" d="M 29.515625 14.519531 L 27.292969 11.457031 L 27.6875 7.6875 C 27.707031 7.480469 27.59375 7.285156 27.402344 7.199219 L 23.941406 5.664062 L 22.40625 2.199219 C 22.320312 2.011719 22.121094 1.902344 21.917969 1.917969 L 18.148438 2.3125 L 15.085938 0.09375 C 14.917969 -0.03125 14.691406 -0.03125 14.519531 0.09375 L 11.457031 2.3125 L 7.691406 1.917969 C 7.480469 1.902344 7.289062 2.011719 7.199219 2.199219 L 5.664062 5.664062 L 2.199219 7.199219 C 2.011719 7.285156 1.902344 7.480469 1.917969 7.6875 L 2.316406 11.457031 L 0.09375 14.519531 C -0.03125 14.691406 -0.03125 14.914062 0.09375 15.085938 L 2.316406 18.148438 L 1.917969 21.917969 C 1.902344 22.121094 2.011719 22.320312 2.199219 22.40625 L 5.664062 23.941406 L 7.199219 27.402344 C 7.289062 27.59375 7.480469 27.703125 7.691406 27.6875 L 11.457031 27.292969 L 14.519531 29.511719 C 14.691406 29.636719 14.917969 29.636719 15.085938 29.511719 L 18.148438 27.292969 L 21.917969 27.6875 C 22.121094 27.703125 22.320312 27.59375 22.40625 27.402344 L 23.941406 23.941406 L 27.402344 22.40625 C 27.59375 22.320312 27.707031 22.121094 27.6875 21.917969 L 27.292969 18.148438 L 29.515625 15.085938 C 29.636719 14.914062 29.636719 14.691406 29.515625 14.519531 Z M 26.410156 17.734375 C 26.339844 17.832031 26.308594 17.949219 26.320312 18.066406 L 26.699219 21.671875 L 23.386719 23.144531 C 23.28125 23.195312 23.195312 23.28125 23.144531 23.386719 L 21.671875 26.699219 L 18.066406 26.320312 C 17.949219 26.308594 17.832031 26.339844 17.734375 26.410156 L 14.800781 28.539062 L 11.867188 26.410156 C 11.789062 26.351562 11.6875 26.320312 11.585938 26.320312 C 11.570312 26.320312 11.558594 26.320312 11.542969 26.320312 L 7.9375 26.699219 L 6.464844 23.386719 C 6.414062 23.28125 6.328125 23.191406 6.222656 23.144531 L 2.90625 21.671875 L 3.285156 18.066406 C 3.296875 17.949219 3.265625 17.832031 3.195312 17.734375 L 1.066406 14.800781 L 3.195312 11.867188 C 3.265625 11.773438 3.296875 11.652344 3.285156 11.539062 L 2.90625 7.933594 L 6.21875 6.460938 C 6.324219 6.410156 6.414062 6.324219 6.460938 6.21875 L 7.933594 2.90625 L 11.539062 3.285156 C 11.65625 3.296875 11.773438 3.261719 11.867188 3.195312 L 14.800781 1.066406 L 17.734375 3.195312 C 17.832031 3.265625 17.953125 3.296875 18.066406 3.285156 L 21.671875 2.90625 L 23.144531 6.21875 C 23.195312 6.324219 23.28125 6.410156 23.386719 6.460938 L 26.699219 7.933594 L 26.324219 11.539062 C 26.308594 11.652344 26.34375 11.773438 26.414062 11.867188 L 28.539062 14.800781 Z M 26.410156 17.734375 "/>
<path style=" stroke:none;fill-rule:nonzero;fill:rgb(11.764706%,50.588235%,80.784314%);fill-opacity:1;" d="M 20.378906 9.390625 C 20.191406 9.203125 19.890625 9.203125 19.703125 9.390625 L 11.9375 17.152344 L 9.570312 14.796875 C 9.386719 14.609375 9.085938 14.609375 8.902344 14.796875 L 7.542969 16.140625 C 7.457031 16.230469 7.40625 16.351562 7.40625 16.476562 C 7.40625 16.601562 7.457031 16.726562 7.542969 16.816406 L 11.597656 20.871094 C 11.785156 21.054688 12.089844 21.054688 12.273438 20.871094 L 21.730469 11.414062 C 21.914062 11.230469 21.914062 10.925781 21.730469 10.738281 Z M 11.9375 19.855469 L 8.5625 16.480469 L 9.234375 15.804688 L 11.601562 18.167969 C 11.789062 18.351562 12.089844 18.351562 12.277344 18.167969 L 20.042969 10.398438 L 20.714844 11.078125 Z M 11.9375 19.855469 "/>
</g>
</svg>
