<?xml version="1.0" encoding="UTF-8"?>
<svg xmlns="http://www.w3.org/2000/svg" xmlns:xlink="http://www.w3.org/1999/xlink" width="30pt" height="30pt" viewBox="0 0 30 30" version="1.1">
<g id="surface1">
<path style=" stroke:none;fill-rule:nonzero;fill:rgb(100%,56.862745%,0%);fill-opacity:1;" d="M 30 11.105469 L 30 7.851562 C 30 7.488281 29.707031 7.195312 29.34375 7.195312 L 20.492188 7.195312 L 20.492188 13.292969 L 29.953125 13.3125 Z M 30 11.105469 "/>
<path style=" stroke:none;fill-rule:nonzero;fill:rgb(100%,95.686275%,95.686275%);fill-opacity:1;" d="M 20.902344 28.910156 L 0.574219 28.910156 C 0.265625 28.910156 0.015625 28.660156 0.015625 28.351562 L 0.015625 0.609375 C 0.015625 0.300781 0.265625 0.0507812 0.574219 0.0507812 L 20.902344 0.0507812 C 21.210938 0.0507812 21.460938 0.300781 21.460938 0.609375 L 21.460938 28.351562 C 21.460938 28.660156 21.210938 28.910156 20.902344 28.910156 Z M 20.902344 28.910156 "/>
<path style=" stroke:none;fill-rule:nonzero;fill:rgb(93.333333%,88.235294%,86.27451%);fill-opacity:1;" d="M 20.925781 28.910156 L 10.738281 28.910156 L 10.738281 0.0507812 L 20.925781 0.0507812 C 21.21875 0.0507812 21.460938 0.289062 21.460938 0.585938 L 21.460938 28.378906 C 21.460938 28.671875 21.21875 28.910156 20.925781 28.910156 Z M 20.925781 28.910156 "/>
<path style=" stroke:none;fill-rule:nonzero;fill:rgb(16.078431%,37.254902%,80%);fill-opacity:1;" d="M 16.792969 9.890625 L 4.679688 9.890625 C 4.214844 9.890625 3.832031 9.511719 3.832031 9.042969 C 3.832031 8.574219 4.214844 8.195312 4.679688 8.195312 L 16.792969 8.195312 C 17.261719 8.195312 17.640625 8.574219 17.640625 9.042969 C 17.640625 9.511719 17.261719 9.890625 16.792969 9.890625 Z M 16.792969 9.890625 "/>
<path style=" stroke:none;fill-rule:nonzero;fill:rgb(16.078431%,37.254902%,80%);fill-opacity:1;" d="M 16.792969 6.304688 L 4.679688 6.304688 C 4.214844 6.304688 3.832031 5.925781 3.832031 5.457031 C 3.832031 4.992188 4.214844 4.609375 4.679688 4.609375 L 16.792969 4.609375 C 17.261719 4.609375 17.640625 4.992188 17.640625 5.457031 C 17.640625 5.925781 17.261719 6.304688 16.792969 6.304688 Z M 16.792969 6.304688 "/>
<path style=" stroke:none;fill-rule:nonzero;fill:rgb(100%,85.490196%,17.647059%);fill-opacity:1;" d="M 0 16.589844 L 0 28.96875 C 0 29.511719 0.4375 29.949219 0.980469 29.949219 L 29.019531 29.949219 C 29.5625 29.949219 30 29.511719 30 28.96875 L 30 11.761719 C 30 11.398438 29.707031 11.105469 29.34375 11.105469 L 20.875 11.105469 C 20.523438 11.105469 20.203125 11.304688 20.046875 11.621094 L 17.902344 16.007812 C 17.726562 16.363281 17.363281 16.589844 16.964844 16.589844 Z M 0 16.589844 "/>
<path style=" stroke:none;fill-rule:nonzero;fill:rgb(99.215686%,74.901961%,0%);fill-opacity:1;" d="M 29.34375 11.105469 L 20.875 11.105469 C 20.523438 11.105469 20.203125 11.304688 20.046875 11.621094 L 17.902344 16.007812 C 17.726562 16.363281 17.363281 16.589844 16.964844 16.589844 L 15 16.589844 L 15 29.949219 L 29.019531 29.949219 C 29.5625 29.949219 30 29.511719 30 28.96875 L 30 11.761719 C 30 11.398438 29.707031 11.105469 29.34375 11.105469 Z M 29.34375 11.105469 "/>
<path style=" stroke:none;fill-rule:nonzero;fill:rgb(9.803922%,16.862745%,50.196078%);fill-opacity:1;" d="M 16.792969 4.609375 L 10.738281 4.609375 L 10.738281 6.304688 L 16.792969 6.304688 C 17.261719 6.304688 17.640625 5.925781 17.640625 5.457031 C 17.640625 4.992188 17.261719 4.609375 16.792969 4.609375 Z M 16.792969 4.609375 "/>
<path style=" stroke:none;fill-rule:nonzero;fill:rgb(9.803922%,16.862745%,50.196078%);fill-opacity:1;" d="M 16.792969 8.195312 L 10.738281 8.195312 L 10.738281 9.890625 L 16.792969 9.890625 C 17.261719 9.890625 17.640625 9.511719 17.640625 9.042969 C 17.640625 8.574219 17.261719 8.195312 16.792969 8.195312 Z M 16.792969 8.195312 "/>
</g>
</svg>
