<?xml version="1.0" encoding="UTF-8"?>
<svg xmlns="http://www.w3.org/2000/svg" xmlns:xlink="http://www.w3.org/1999/xlink" width="30pt" height="30pt" viewBox="0 0 30 30" version="1.1">
<g id="surface1">
<path style=" stroke:none;fill-rule:nonzero;fill:rgb(23.137255%,34.901961%,59.607843%);fill-opacity:1;" d="M 30 15 C 30 23.285156 23.285156 30 15 30 C 6.714844 30 0 23.285156 0 15 C 0 6.714844 6.714844 0 15 0 C 23.285156 0 30 6.714844 30 15 Z M 30 15 "/>
<path style=" stroke:none;fill-rule:nonzero;fill:rgb(100%,100%,100%);fill-opacity:1;" d="M 18.769531 15.585938 L 16.09375 15.585938 L 16.09375 25.394531 L 12.039062 25.394531 L 12.039062 15.585938 L 10.109375 15.585938 L 10.109375 12.140625 L 12.039062 12.140625 L 12.039062 9.910156 C 12.039062 8.316406 12.796875 5.820312 16.128906 5.820312 L 19.132812 5.832031 L 19.132812 9.175781 L 16.953125 9.175781 C 16.597656 9.175781 16.09375 9.355469 16.09375 10.117188 L 16.09375 12.144531 L 19.125 12.144531 Z M 18.769531 15.585938 "/>
</g>
</svg>
