<?xml version="1.0" encoding="UTF-8"?>
<svg xmlns="http://www.w3.org/2000/svg" xmlns:xlink="http://www.w3.org/1999/xlink" width="30pt" height="30pt" viewBox="0 0 30 30" version="1.1">
<g id="surface1">
<path style=" stroke:none;fill-rule:nonzero;fill:rgb(67.45098%,68.627451%,28.235294%);fill-opacity:1;" d="M 30 15 C 30 23.285156 23.285156 30 15 30 C 6.714844 30 0 23.285156 0 15 C 0 6.714844 6.714844 0 15 0 C 23.285156 0 30 6.714844 30 15 Z M 30 15 "/>
<path style=" stroke:none;fill-rule:nonzero;fill:rgb(98.823529%,43.137255%,31.764706%);fill-opacity:1;" d="M 15 10.351562 C 15.722656 10.351562 17.039062 10.488281 17.699219 10.652344 C 19.195312 9.097656 21.390625 9.265625 21.535156 9.570312 C 21.621094 9.757812 20.890625 10.804688 20.398438 11.550781 C 21.191406 12.242188 21.863281 13.308594 22.199219 14.253906 L 23.398438 14.253906 L 23.398438 16.808594 L 22.15625 17.382812 C 21.683594 18.6875 20.691406 19.804688 19.398438 20.574219 L 19.398438 22.660156 C 19.398438 22.726562 19.375 22.792969 19.324219 22.84375 C 19.273438 22.894531 19.109375 22.949219 19.042969 22.949219 L 16.554688 22.949219 L 16.554688 21.394531 C 16.554688 21.394531 15.398438 21.394531 15 21.394531 C 14.632812 21.390625 13.757812 21.394531 13.757812 21.394531 L 13.757812 22.949219 L 11.308594 22.949219 C 11.214844 22.949219 11.117188 22.894531 11.03125 22.84375 C 10.945312 22.789062 11 22.722656 10.957031 22.636719 L 10.957031 21.394531 C 10.957031 21.394531 8.542969 19.445312 8.46875 16.726562 C 8.460938 16.453125 8.476562 16.070312 8.46875 15.792969 C 8.714844 12.613281 11.148438 10.351562 15 10.351562 Z M 15 10.351562 "/>
<path style=" stroke:none;fill-rule:nonzero;fill:rgb(27.058824%,27.058824%,27.058824%);fill-opacity:1;" d="M 19.042969 23.246094 L 16.554688 23.246094 C 16.390625 23.246094 16.253906 23.113281 16.253906 22.949219 L 16.253906 21.691406 C 15.882812 21.695312 15.265625 21.695312 15 21.691406 C 14.769531 21.691406 14.34375 21.691406 14.054688 21.691406 L 14.054688 22.949219 C 14.054688 23.113281 13.921875 23.246094 13.757812 23.246094 L 11.308594 23.246094 C 11.140625 23.246094 11.003906 23.175781 10.878906 23.101562 C 10.691406 22.984375 10.679688 22.808594 10.675781 22.75 C 10.675781 22.75 10.675781 22.75 10.675781 22.746094 C 10.664062 22.710938 10.65625 22.675781 10.65625 22.636719 L 10.65625 21.53125 C 10.160156 21.097656 8.238281 19.246094 8.167969 16.734375 C 8.164062 16.597656 8.164062 16.429688 8.167969 16.265625 C 8.167969 16.195312 8.167969 16.121094 8.167969 16.050781 C 7.148438 15.863281 6.347656 15.246094 6.300781 14.574219 C 6.289062 14.40625 6.316406 13.84375 7.152344 13.636719 C 7.308594 13.597656 7.472656 13.691406 7.515625 13.855469 C 7.554688 14.015625 7.457031 14.175781 7.296875 14.21875 C 7.144531 14.257812 6.886719 14.347656 6.902344 14.53125 C 6.921875 14.828125 7.417969 15.28125 8.199219 15.449219 C 8.609375 12.160156 11.242188 10.050781 15 10.050781 C 15.671875 10.050781 16.871094 10.164062 17.605469 10.324219 C 18.871094 9.105469 20.484375 8.988281 21.183594 9.105469 C 21.519531 9.160156 21.722656 9.269531 21.804688 9.441406 C 21.9375 9.722656 21.730469 10.09375 20.847656 11.417969 L 20.792969 11.503906 C 21.453125 12.144531 22.050781 13.046875 22.40625 13.953125 L 23.398438 13.953125 C 23.566406 13.953125 23.699219 14.085938 23.699219 14.253906 L 23.699219 16.808594 C 23.699219 16.925781 23.632812 17.03125 23.527344 17.078125 L 22.394531 17.605469 C 21.910156 18.84375 20.960938 19.949219 19.699219 20.742188 L 19.699219 22.660156 C 19.699219 22.8125 19.640625 22.953125 19.53125 23.058594 C 19.414062 23.179688 19.167969 23.246094 19.042969 23.246094 Z M 11.265625 22.632812 C 11.292969 22.644531 11.304688 22.648438 11.308594 22.648438 L 13.457031 22.648438 L 13.457031 21.394531 C 13.457031 21.226562 13.589844 21.09375 13.753906 21.09375 C 13.753906 21.09375 14.632812 21.089844 15.003906 21.09375 C 15.398438 21.09375 16.554688 21.09375 16.554688 21.09375 C 16.636719 21.09375 16.710938 21.125 16.769531 21.179688 C 16.824219 21.238281 16.855469 21.3125 16.855469 21.394531 L 16.855469 22.648438 L 19.042969 22.648438 C 19.050781 22.644531 19.078125 22.636719 19.101562 22.628906 L 19.101562 20.574219 C 19.101562 20.46875 19.15625 20.371094 19.246094 20.316406 C 20.5 19.566406 21.433594 18.488281 21.875 17.28125 C 21.902344 17.207031 21.957031 17.144531 22.03125 17.113281 L 23.101562 16.617188 L 23.101562 14.550781 L 22.199219 14.550781 C 22.074219 14.550781 21.960938 14.472656 21.917969 14.351562 C 21.578125 13.398438 20.90625 12.390625 20.203125 11.777344 C 20.089844 11.679688 20.066406 11.511719 20.148438 11.386719 L 20.347656 11.085938 C 20.625 10.671875 21.058594 10.019531 21.199219 9.714844 C 20.722656 9.59375 19.105469 9.625 17.917969 10.859375 C 17.839844 10.9375 17.730469 10.96875 17.628906 10.941406 C 16.972656 10.78125 15.679688 10.652344 15 10.652344 C 11.464844 10.652344 9.019531 12.671875 8.769531 15.800781 C 8.769531 15.941406 8.769531 16.109375 8.765625 16.273438 C 8.765625 16.429688 8.761719 16.585938 8.765625 16.71875 C 8.835938 19.269531 11.121094 21.140625 11.144531 21.160156 C 11.214844 21.214844 11.257812 21.300781 11.257812 21.390625 L 11.257812 22.585938 C 11.261719 22.601562 11.265625 22.617188 11.265625 22.632812 Z M 11.265625 22.632812 "/>
<path style=" stroke:none;fill-rule:nonzero;fill:rgb(27.058824%,27.058824%,27.058824%);fill-opacity:1;" d="M 18.589844 13.425781 C 18.589844 13.769531 18.871094 14.050781 19.21875 14.050781 C 19.5625 14.050781 19.84375 13.769531 19.84375 13.425781 C 19.84375 13.078125 19.5625 12.796875 19.21875 12.796875 C 18.871094 12.796875 18.589844 13.078125 18.589844 13.425781 Z M 18.589844 13.425781 "/>
<path style=" stroke:none;fill-rule:nonzero;fill:rgb(27.058824%,27.058824%,27.058824%);fill-opacity:1;" d="M 16.941406 11.839844 L 13.058594 11.839844 C 12.894531 11.839844 12.761719 11.703125 12.761719 11.539062 C 12.761719 11.375 12.894531 11.238281 13.058594 11.238281 L 16.941406 11.238281 C 17.105469 11.238281 17.238281 11.375 17.238281 11.539062 C 17.238281 11.703125 17.105469 11.839844 16.941406 11.839844 Z M 16.941406 11.839844 "/>
<path style=" stroke:none;fill-rule:nonzero;fill:rgb(100%,100%,100%);fill-opacity:1;" d="M 12.75 9.300781 C 12.75 10.546875 13.757812 11.550781 15 11.550781 C 16.242188 11.550781 17.25 10.546875 17.25 9.300781 C 17.25 8.058594 16.242188 7.050781 15 7.050781 C 13.757812 7.050781 12.75 8.058594 12.75 9.300781 Z M 12.75 9.300781 "/>
<path style=" stroke:none;fill-rule:nonzero;fill:rgb(27.058824%,27.058824%,27.058824%);fill-opacity:1;" d="M 15 11.851562 C 13.59375 11.851562 12.449219 10.707031 12.449219 9.300781 C 12.449219 7.894531 13.59375 6.753906 15 6.753906 C 16.40625 6.753906 17.550781 7.894531 17.550781 9.300781 C 17.550781 10.707031 16.40625 11.851562 15 11.851562 Z M 15 7.351562 C 13.925781 7.351562 13.050781 8.226562 13.050781 9.300781 C 13.050781 10.378906 13.925781 11.253906 15 11.253906 C 16.074219 11.253906 16.949219 10.378906 16.949219 9.300781 C 16.949219 8.226562 16.074219 7.351562 15 7.351562 Z M 15 7.351562 "/>
<path style=" stroke:none;fill-rule:nonzero;fill:rgb(100%,72.54902%,20%);fill-opacity:1;" d="M 16.351562 9.300781 C 16.351562 10.046875 15.746094 10.652344 15 10.652344 C 14.253906 10.652344 13.648438 10.046875 13.648438 9.300781 C 13.648438 8.558594 14.253906 7.953125 15 7.953125 C 15.746094 7.953125 16.351562 8.558594 16.351562 9.300781 Z M 16.351562 9.300781 "/>
</g>
</svg>
