<?xml version="1.0" encoding="UTF-8"?>
<svg xmlns="http://www.w3.org/2000/svg" xmlns:xlink="http://www.w3.org/1999/xlink" width="30pt" height="30pt" viewBox="0 0 30 30" version="1.1">
<g id="surface1">
<path style=" stroke:none;fill-rule:nonzero;fill:rgb(40%,77.647059%,72.54902%);fill-opacity:1;" d="M 28.125 7.1875 L 1.875 7.1875 C 0.8125 7.1875 0 8 0 9.0625 L 0 28.125 C 0 29.125 0.8125 30 1.875 30 L 28.125 30 C 29.1875 30 30 29.125 30 28.125 L 30 9.0625 C 30 8 29.1875 7.1875 28.125 7.1875 Z M 17.75 10.375 L 12.25 10.375 C 11.875 10.375 11.5 10.0625 11.5 9.625 C 11.5 9.1875 11.8125 8.875 12.25 8.875 L 17.75 8.875 C 18.1875 8.875 18.5 9.1875 18.5 9.625 C 18.5 10.0625 18.125 10.375 17.75 10.375 Z M 17.75 10.375 "/>
<path style=" stroke:none;fill-rule:nonzero;fill:rgb(100%,100%,100%);fill-opacity:1;" d="M 2.5 12.125 L 27.5 12.125 L 27.5 27.5 L 2.5 27.5 Z M 2.5 12.125 "/>
<path style=" stroke:none;fill-rule:nonzero;fill:rgb(90.980392%,91.764706%,91.372549%);fill-opacity:1;" d="M 5.125 24 L 24.9375 24 L 24.9375 25.25 L 5.125 25.25 Z M 5.125 24 "/>
<path style=" stroke:none;fill-rule:nonzero;fill:rgb(90.980392%,91.764706%,91.372549%);fill-opacity:1;" d="M 15.1875 20.75 L 24.875 20.75 L 24.875 22 L 15.1875 22 Z M 15.1875 20.75 "/>
<path style=" stroke:none;fill-rule:nonzero;fill:rgb(90.980392%,91.764706%,91.372549%);fill-opacity:1;" d="M 15.1875 17.5 L 24.875 17.5 L 24.875 18.75 L 15.1875 18.75 Z M 15.1875 17.5 "/>
<path style=" stroke:none;fill-rule:nonzero;fill:rgb(25.490196%,35.294118%,41.960784%);fill-opacity:1;" d="M 11.5 16.375 C 11.5 17.480469 10.605469 18.375 9.5 18.375 C 8.394531 18.375 7.5 17.480469 7.5 16.375 C 7.5 15.269531 8.394531 14.375 9.5 14.375 C 10.605469 14.375 11.5 15.269531 11.5 16.375 Z M 11.5 16.375 "/>
<path style=" stroke:none;fill-rule:nonzero;fill:rgb(25.490196%,35.294118%,41.960784%);fill-opacity:1;" d="M 13.375 22.75 L 5.5625 22.75 C 5.625 20.625 7.375 19 9.5 19 C 11.625 18.9375 13.3125 20.625 13.375 22.75 Z M 13.375 22.75 "/>
<path style=" stroke:none;fill-rule:nonzero;fill:rgb(25.490196%,35.294118%,41.960784%);fill-opacity:1;" d="M 17.75 0 L 12.25 0 L 12.25 8.9375 C 12.25 9.3125 12.5625 9.625 12.9375 9.625 L 17 9.625 C 17.375 9.625 17.6875 9.3125 17.6875 8.9375 L 17.6875 0 Z M 17.75 0 "/>
</g>
</svg>
