<?xml version="1.0" encoding="utf-8"?>
<!-- Generator: Adobe Illustrator 24.2.1, SVG Export Plug-In . SVG Version: 6.00 Build 0)  -->
<svg version="1.1" id="Capa_1" xmlns="http://www.w3.org/2000/svg" xmlns:xlink="http://www.w3.org/1999/xlink" x="0px" y="0px"
	 viewBox="0 0 250 116" style="enable-background:new 0 0 250 116;" xml:space="preserve">
<style type="text/css">
	.st0{fill:none;stroke:#C23D2C;stroke-miterlimit:10;}
	.st1{fill:#C23D2C;}
	.st2{fill:#212D64;}
	.st3{fill-rule:evenodd;clip-rule:evenodd;fill:#DF634F;}
	.st4{fill-rule:evenodd;clip-rule:evenodd;fill:#C23D2C;}
	.st5{fill-rule:evenodd;clip-rule:evenodd;fill:#FFFFFF;}
</style>
<g>
	<path class="st0" d="M219.2,98.6h-189c-7.6,0-13.8-6.2-13.8-13.8l0,0c0-7.6,6.2-13.8,13.8-13.8h189c7.6,0,13.8,6.2,13.8,13.8l0,0
		C233,92.4,226.8,98.6,219.2,98.6z"/>
	<g>
		<path class="st1" d="M38.1,88.6c0.1,0,0.2,0,0.3,0s0.2,0.1,0.3,0.2l1.5,1.5c-0.6,0.8-1.4,1.5-2.4,1.9s-2.1,0.6-3.4,0.6
			c-1.2,0-2.3-0.2-3.3-0.6c-1-0.4-1.8-1-2.4-1.7c-0.7-0.7-1.2-1.6-1.5-2.6c-0.4-1-0.5-2.1-0.5-3.3s0.2-2.3,0.6-3.3s1-1.9,1.7-2.6
			c0.7-0.7,1.6-1.3,2.6-1.7c1-0.4,2.2-0.6,3.4-0.6c0.6,0,1.2,0.1,1.7,0.2c0.5,0.1,1,0.3,1.5,0.4c0.5,0.2,0.9,0.4,1.3,0.7
			c0.4,0.3,0.7,0.5,1,0.9l-1.3,1.7c-0.1,0.1-0.2,0.2-0.3,0.3s-0.3,0.1-0.5,0.1c-0.1,0-0.3,0-0.4-0.1c-0.1-0.1-0.2-0.1-0.4-0.2
			s-0.3-0.2-0.4-0.3c-0.2-0.1-0.3-0.2-0.6-0.3c-0.2-0.1-0.5-0.2-0.8-0.2c-0.3-0.1-0.6-0.1-1-0.1c-0.7,0-1.3,0.1-1.8,0.4
			c-0.6,0.2-1,0.6-1.4,1s-0.7,1-0.9,1.6c-0.2,0.6-0.3,1.3-0.3,2.1s0.1,1.5,0.3,2.2c0.2,0.6,0.5,1.2,0.9,1.6c0.4,0.4,0.8,0.8,1.3,1
			s1.1,0.3,1.6,0.3c0.3,0,0.6,0,0.9,0c0.3,0,0.5-0.1,0.8-0.2c0.2-0.1,0.5-0.2,0.7-0.3s0.4-0.3,0.7-0.5c0.1-0.1,0.2-0.1,0.3-0.2
			S38,88.6,38.1,88.6z"/>
		<path class="st1" d="M66.3,84.7c0,1.2-0.2,2.2-0.6,3.2s-1,1.9-1.7,2.6c-0.7,0.7-1.6,1.3-2.6,1.7s-2.2,0.6-3.4,0.6
			s-2.4-0.2-3.4-0.6s-1.9-1-2.6-1.7c-0.7-0.7-1.3-1.6-1.7-2.6s-0.6-2.1-0.6-3.2c0-1.2,0.2-2.2,0.6-3.2c0.4-1,1-1.9,1.7-2.6
			c0.7-0.7,1.6-1.3,2.6-1.7s2.2-0.6,3.4-0.6s2.4,0.2,3.4,0.6c1,0.4,1.9,1,2.6,1.7s1.3,1.6,1.7,2.6S66.3,83.6,66.3,84.7z M62.5,84.7
			c0-0.8-0.1-1.5-0.3-2.1s-0.5-1.2-0.9-1.6c-0.4-0.4-0.9-0.8-1.4-1c-0.6-0.2-1.2-0.4-1.9-0.4s-1.4,0.1-1.9,0.4c-0.6,0.2-1,0.6-1.4,1
			s-0.7,1-0.9,1.6s-0.3,1.3-0.3,2.1s0.1,1.5,0.3,2.1s0.5,1.2,0.9,1.6c0.4,0.4,0.9,0.8,1.4,1c0.6,0.2,1.2,0.3,1.9,0.3
			s1.3-0.1,1.9-0.3c0.6-0.2,1-0.6,1.4-1s0.7-1,0.9-1.6S62.5,85.5,62.5,84.7z"/>
		<path class="st1" d="M85.5,86.3c0.1,0.3,0.3,0.6,0.4,0.9c0.1-0.3,0.3-0.6,0.4-0.9c0.1-0.3,0.3-0.6,0.4-0.9l4.1-8.1
			c0.1-0.1,0.1-0.2,0.2-0.3s0.2-0.1,0.3-0.2c0.1,0,0.2-0.1,0.3-0.1c0.1,0,0.3,0,0.4,0h2.8v16h-3.3v-9.2c0-0.4,0-0.9,0.1-1.4
			l-4.2,8.2c-0.1,0.3-0.3,0.4-0.5,0.6c-0.2,0.1-0.5,0.2-0.8,0.2h-0.5c-0.3,0-0.5-0.1-0.8-0.2c-0.2-0.1-0.4-0.3-0.5-0.6L80,82.1
			c0,0.3,0.1,0.5,0.1,0.8s0,0.5,0,0.7v9.2h-3.3v-16h2.8c0.2,0,0.3,0,0.4,0s0.2,0,0.3,0.1c0.1,0,0.2,0.1,0.3,0.2
			c0.1,0.1,0.2,0.2,0.2,0.3l4.1,8.1C85.2,85.7,85.3,86,85.5,86.3z"/>
		<path class="st1" d="M116.5,76.7v2.9H110v3.7h5V86h-5v3.8h6.6v2.9h-10.3v-16L116.5,76.7L116.5,76.7z"/>
		<path class="st1" d="M131.1,86.8v5.9h-3.7v-16h5.2c1.2,0,2.1,0.1,3,0.4c0.8,0.2,1.5,0.6,2,1s0.9,0.9,1.1,1.5
			c0.2,0.6,0.4,1.2,0.4,1.9c0,0.5-0.1,1-0.2,1.5s-0.3,0.9-0.6,1.3c-0.3,0.4-0.6,0.7-1,1s-0.9,0.6-1.4,0.8c0.2,0.1,0.5,0.3,0.7,0.5
			s0.4,0.4,0.6,0.7l3.4,5.6h-3.4c-0.6,0-1.1-0.2-1.3-0.7l-2.7-4.6c-0.1-0.2-0.3-0.4-0.4-0.4c-0.2-0.1-0.4-0.1-0.7-0.1h-1V86.8z
			 M131.1,84.3h1.5c0.5,0,0.9-0.1,1.3-0.2c0.4-0.1,0.6-0.3,0.9-0.5c0.2-0.2,0.4-0.5,0.5-0.8s0.2-0.6,0.2-1c0-0.7-0.2-1.3-0.7-1.6
			c-0.5-0.4-1.2-0.6-2.1-0.6h-1.5L131.1,84.3L131.1,84.3z"/>
		<path class="st1" d="M161,88.6c0.1,0,0.2,0,0.3,0s0.2,0.1,0.3,0.2l1.5,1.5c-0.6,0.8-1.4,1.5-2.4,1.9s-2.1,0.6-3.4,0.6
			c-1.2,0-2.3-0.2-3.3-0.6c-1-0.4-1.8-1-2.4-1.7c-0.7-0.7-1.2-1.6-1.5-2.6c-0.4-1-0.5-2.1-0.5-3.3s0.2-2.3,0.6-3.3
			c0.4-1,1-1.9,1.7-2.6c0.7-0.7,1.6-1.3,2.6-1.7s2.2-0.6,3.4-0.6c0.6,0,1.2,0.1,1.7,0.2c0.5,0.1,1,0.3,1.5,0.4
			c0.5,0.2,0.9,0.4,1.3,0.7c0.4,0.3,0.7,0.5,1,0.9l-1.3,1.7c-0.1,0.1-0.2,0.2-0.3,0.3s-0.3,0.1-0.5,0.1c-0.1,0-0.3,0-0.4-0.1
			c-0.1-0.1-0.2-0.1-0.4-0.2c-0.1-0.1-0.3-0.2-0.4-0.3c-0.2-0.1-0.3-0.2-0.6-0.3c-0.2-0.1-0.5-0.2-0.8-0.2c-0.3-0.1-0.6-0.1-1-0.1
			c-0.7,0-1.3,0.1-1.8,0.4c-0.6,0.2-1,0.6-1.4,1s-0.7,1-0.9,1.6s-0.3,1.3-0.3,2.1s0.1,1.5,0.3,2.2c0.2,0.6,0.5,1.2,0.9,1.6
			c0.4,0.4,0.8,0.8,1.3,1s1.1,0.3,1.6,0.3c0.3,0,0.6,0,0.9,0c0.3,0,0.5-0.1,0.8-0.2c0.2-0.1,0.5-0.2,0.7-0.3s0.4-0.3,0.7-0.5
			c0.1-0.1,0.2-0.1,0.3-0.2S160.9,88.6,161,88.6z"/>
		<path class="st1" d="M177.5,92.7h-3.7v-16h3.7V92.7z"/>
		<path class="st1" d="M204.1,92.7h-2.9c-0.3,0-0.6-0.1-0.8-0.2c-0.2-0.1-0.4-0.3-0.4-0.6l-0.9-2.8H193l-0.9,2.8
			c-0.1,0.2-0.2,0.4-0.4,0.6c-0.2,0.2-0.5,0.2-0.8,0.2H188l6.2-16h3.8L204.1,92.7z M193.8,86.6h4.4l-1.5-4.4c-0.1-0.3-0.2-0.6-0.3-1
			s-0.3-0.8-0.4-1.2c-0.1,0.4-0.2,0.9-0.4,1.2c-0.1,0.4-0.2,0.7-0.4,1L193.8,86.6z"/>
		<path class="st1" d="M217.8,89.8h5.9v3h-9.6v-16h3.7L217.8,89.8L217.8,89.8z"/>
	</g>
	<g>
		<g>
			<g>
				<path class="st2" d="M49.3,55.2v4.2h-12v-3.6c-1.1,1.3-2.3,2.3-3.8,3.1c-1.5,0.7-3.2,1.1-5,1.1c-2.4,0-4.5-0.6-6.4-1.8
					c-1.9-1.2-3.3-2.8-4.4-4.9s-1.6-4.5-1.6-7.1s0.5-5,1.6-7.1s2.5-3.7,4.4-4.9c1.9-1.2,4-1.8,6.4-1.8c1.8,0,3.5,0.4,5,1.1
					s2.8,1.7,3.8,3.1V23.9h-5.9v-4.2h12v35.5C43.4,55.2,49.3,55.2,49.3,55.2z M35.4,53.2c1.3-1.7,2-4,2-7c0-2.9-0.7-5.2-2-7
					c-1.3-1.7-3.1-2.6-5.3-2.6c-1.5,0-2.8,0.4-4,1.2c-1.2,0.8-2.1,1.9-2.8,3.4c-0.7,1.5-1,3.1-1,4.9s0.3,3.5,1,4.9
					c0.7,1.5,1.6,2.6,2.8,3.4c1.2,0.8,2.5,1.2,4,1.2C32.3,55.8,34.1,54.9,35.4,53.2z"/>
				<path class="st2" d="M70.6,55.2v4.2H52.8v-4.2h5.9v-18h-5.9V33h12v22.3h5.8V55.2z M57.8,27.4c-0.8-0.9-1.3-2-1.3-3.4
					s0.4-2.5,1.3-3.4c0.9-0.8,2-1.3,3.4-1.3s2.5,0.4,3.4,1.3c0.8,0.8,1.3,2,1.3,3.4s-0.4,2.6-1.3,3.4c-0.8,0.9-2,1.3-3.4,1.3
					C59.8,28.7,58.7,28.3,57.8,27.4z"/>
				<path class="st2" d="M82.7,42.2c1,0.4,2.6,0.9,4.7,1.2c2.1,0.4,3.8,0.8,5.1,1.2c1.3,0.4,2.5,1.2,3.4,2.3
					c0.9,1.1,1.4,2.5,1.4,4.5c0,2.8-1,4.9-3.1,6.4c-2,1.5-4.7,2.3-8.1,2.3c-3,0-5.5-0.6-7.4-1.8v1.3h-4.2V49h4.2
					c0,2.5,0.6,4.2,1.8,5.3c1.2,1.1,2.9,1.6,5.1,1.6c1.8,0,3.2-0.3,4.1-0.9c1-0.6,1.4-1.5,1.4-2.6c0-1.3-0.6-2.2-1.7-2.7
					s-2.8-1-5.1-1.5c-2-0.4-3.6-0.8-4.9-1.3c-1.2-0.4-2.3-1.1-3.2-2.1c-0.9-1-1.3-2.3-1.3-4c0-2.6,1-4.6,3-6s4.6-2.2,7.7-2.2
					c2.5,0,4.7,0.5,6.4,1.5v-1h4.2v9.6H92c0-2.2-0.5-3.7-1.5-4.6c-1-0.8-2.4-1.3-4.2-1.3c-1.7,0-3,0.3-3.9,0.8
					C81.5,38.2,81,39,81,40C81.2,41,81.7,41.7,82.7,42.2z"/>
				<path class="st2" d="M113.3,37.2v14.5c0,1.4,0.2,2.4,0.6,3.1s0.9,1,1.4,1c1,0,1.5-0.9,1.5-2.6c0-0.6-0.1-1.3-0.2-2.1h3.7
					c0.2,1.3,0.3,2.4,0.3,3.3c0,2-0.5,3.4-1.5,4.3s-2.7,1.3-4.9,1.3c-2.4,0-4.2-0.6-5.5-1.8c-1.3-1.2-1.9-3.4-1.9-6.5V37.2h-5.5V33
					h5.5V22.3c2.8,0,4.9-0.2,6.5-0.5V33h7.4v4.2H113.3z"/>
				<path class="st2" d="M148.7,33.7c1,0.8,1.8,1.8,2.2,3c0.5,1.2,0.7,2.3,0.7,3.4c0,1.4-0.3,2.5-1,3.2c-0.7,0.8-1.6,1.2-2.8,1.2
					c-1.1,0-1.9-0.3-2.6-1c-0.7-0.7-1-1.5-1-2.5c0-1.5,0.7-2.5,2-3.1c-0.6-0.8-1.4-1.2-2.6-1.2c-1.1,0-2.2,0.4-3.2,1.2
					c-1,0.8-1.9,2-2.5,3.6c-0.6,1.5-1,3.3-1,5.3v8.5h5.8v4.2h-17.8v-4.2h5.9v-18h-5.9V33h12v5c0.9-1.8,2-3.2,3.3-4.1
					s2.9-1.4,4.6-1.4C146.4,32.4,147.7,32.8,148.7,33.7z"/>
				<path class="st2" d="M172.9,55.2v4.2h-17.8v-4.2h5.9v-18h-5.9V33h12v22.3h5.8V55.2z M160.1,27.4c-0.8-0.9-1.3-2-1.3-3.4
					s0.4-2.5,1.3-3.4c0.9-0.8,2-1.3,3.4-1.3s2.5,0.4,3.4,1.3c0.8,0.8,1.3,2,1.3,3.4s-0.4,2.6-1.3,3.4c-0.8,0.9-2,1.3-3.4,1.3
					C162.1,28.7,161,28.3,160.1,27.4z"/>
				<path class="st2" d="M184.9,37.2v14.5c0,1.4,0.2,2.4,0.6,3.1c0.4,0.7,0.9,1,1.4,1c1,0,1.5-0.9,1.5-2.6c0-0.6-0.1-1.3-0.2-2.1
					h3.7c0.2,1.3,0.3,2.4,0.3,3.3c0,2-0.5,3.4-1.5,4.3S188,60,185.8,60c-2.4,0-4.2-0.6-5.5-1.8c-1.3-1.2-1.9-3.4-1.9-6.5V37.2h-5.5
					V33h5.5V22.3c2.8,0,4.9-0.2,6.5-0.5V33h7.4v4.2H184.9z"/>
			</g>
		</g>
		<g>
			<g>
				<g>
					<path class="st3" d="M229.9,49.7c-0.4,1.4-0.9,2.8-1.7,4.1l1.2,1.2c0.6,0.6,0.6,1.5,0,2l-3.4,3.4c-0.6,0.6-1.5,0.6-2,0
						l-1.2-1.2c-1.2,0.7-2.6,1.3-4,1.7v1.7c0,0.8-0.6,1.4-1.4,1.4h-4.8c-0.8,0-1.4-0.6-1.4-1.4v-1.7c-1.4-0.4-2.8-0.9-4-1.7
						l-1.2,1.2c-0.6,0.6-1.5,0.6-2,0l-3.4-3.4c-0.6-0.6-0.6-1.5,0-2l1.2-1.2c-0.7-1.3-1.3-2.6-1.7-4.1h-1.7c-0.8,0-1.4-0.6-1.4-1.4
						v-4.8c0-0.8,0.6-1.4,1.4-1.4h1.7c0.4-1.4,0.9-2.8,1.7-4.1l-1.2-1.2c-0.6-0.6-0.6-1.5,0-2l3.4-3.4c0.6-0.6,1.5-0.6,2,0l1.2,1.2
						c1.2-0.7,2.6-1.3,4-1.7v-1.7c0-0.8,0.6-1.4,1.4-1.4h4.8c0.8,0,1.4,0.6,1.4,1.4v1.7c1.4,0.4,2.8,0.9,4,1.7l1.2-1.2
						c0.6-0.6,1.5-0.6,2,0l3.4,3.4c0.6,0.6,0.6,1.5,0,2l-1.2,1.2c0.7,1.3,1.3,2.6,1.7,4.1h1.7c0.8,0,1.4,0.6,1.4,1.4v4.8
						c0,0.8-0.6,1.4-1.4,1.4H229.9z"/>
				</g>
			</g>
			<g>
				<g>
					<path class="st4" d="M226,60.3l3.4-3.4c0.6-0.6,0.6-1.5,0-2l-1.2-1.2c0.7-1.3,1.3-2.6,1.7-4.1h1.7c0.8,0,1.4-0.6,1.4-1.4V45
						c-2,1-4.2,1.8-6.5,2.4c-0.8,5.7-5.6,10.1-11.5,10.1c-5.6,0-10.2-3.9-11.4-9.1c0-0.1-0.1-0.3-0.1-0.4c-2.3-0.5-4.6-1.2-6.6-2
						v2.3c0,0.8,0.6,1.4,1.4,1.4h1.7c0.4,1.4,0.9,2.8,1.7,4.1l-1.2,1.2c-0.6,0.6-0.6,1.5,0,2l3.4,3.4c0.6,0.6,1.5,0.6,2,0l1.2-1.2
						c1.2,0.7,2.6,1.3,4,1.7v1.7c0,0.8,0.6,1.4,1.4,1.4h4.8c0.8,0,1.4-0.6,1.4-1.4v-1.7c1.4-0.4,2.8-0.9,4-1.7l1.2,1.2
						C224.6,60.9,225.5,60.9,226,60.3L226,60.3z"/>
				</g>
			</g>
			<g>
				<g>
					<path class="st5" d="M215,57.5c6.4,0,11.7-5.2,11.7-11.6s-5.2-11.6-11.7-11.6c-6.4,0-11.7,5.2-11.7,11.6S208.5,57.5,215,57.5z"
						/>
				</g>
			</g>
			<g>
				<g>
					<path class="st3" d="M217.5,51.7c2.6-0.9,4.4-3.4,4.4-6.3c0-2.3-1.2-4.3-2.9-5.5c-1.9-1.3-1.5,0.7-1.5,1.1v4
						c0,1.4-1.1,2.6-2.5,2.7c-1.4-0.1-2.5-1.3-2.5-2.7v-4c0-0.3,0.4-2.3-1.5-1.1c-1.8,1.2-2.9,3.2-2.9,5.5c0,2.9,1.8,5.3,4.4,6.3
						v5.5c0.8,0.2,1.7,0.3,2.5,0.3c0.9,0,1.7-0.1,2.5-0.3V51.7L217.5,51.7z"/>
				</g>
			</g>
			<g>
				<g>
					<path class="st4" d="M217.5,57.2v-5.5c2.6-0.9,4.4-3.4,4.4-6.3c0-2.3-1.2-4.3-2.9-5.5c-0.4-0.3-0.7-0.4-0.9-0.4
						c1.4,1.2,2.2,3,2.2,5c0,2.8-1.7,5.1-4.1,6.2c-0.4,0.2-0.3,0.6-0.3,1.1v5.8C216.4,57.4,216.9,57.3,217.5,57.2z"/>
				</g>
			</g>
		</g>
	</g>
</g>
</svg>
