<?xml version="1.0" encoding="utf-8"?>
<!-- Generator: Adobe Illustrator 24.2.1, SVG Export Plug-In . SVG Version: 6.00 Build 0)  -->
<svg version="1.1" id="Capa_1" xmlns="http://www.w3.org/2000/svg" xmlns:xlink="http://www.w3.org/1999/xlink" x="0px" y="0px"
	 viewBox="0 0 250 250" style="enable-background:new 0 0 250 250;" xml:space="preserve">
<style type="text/css">
	.st0{fill:none;stroke:#C23D2C;stroke-miterlimit:10;}
	.st1{fill:#C23D2C;}
	.st2{fill:#212D64;}
	.st3{fill-rule:evenodd;clip-rule:evenodd;fill:#DF634F;}
	.st4{fill-rule:evenodd;clip-rule:evenodd;fill:#C23D2C;}
	.st5{fill-rule:evenodd;clip-rule:evenodd;fill:#FFFFFF;}
	.st6{fill:#FE614E;enable-background:new    ;}
</style>
<g>
	<path class="st0" d="M219.2,129.6h-189c-7.6,0-13.8-6.2-13.8-13.8v0c0-7.6,6.2-13.8,13.8-13.8h189c7.6,0,13.8,6.2,13.8,13.8v0
		C233,123.4,226.8,129.6,219.2,129.6z"/>
	<g>
		<path class="st1" d="M38.1,119.6c0.1,0,0.2,0,0.3,0c0.1,0,0.2,0.1,0.3,0.2l1.5,1.5c-0.6,0.8-1.4,1.5-2.4,1.9
			c-1,0.4-2.1,0.6-3.4,0.6c-1.2,0-2.3-0.2-3.3-0.6c-1-0.4-1.8-1-2.4-1.7c-0.7-0.7-1.2-1.6-1.5-2.6c-0.4-1-0.5-2.1-0.5-3.3
			c0-1.2,0.2-2.3,0.6-3.3c0.4-1,1-1.9,1.7-2.6c0.7-0.7,1.6-1.3,2.6-1.7s2.2-0.6,3.4-0.6c0.6,0,1.2,0.1,1.7,0.2
			c0.5,0.1,1,0.3,1.5,0.4c0.5,0.2,0.9,0.4,1.3,0.7c0.4,0.3,0.7,0.5,1,0.9l-1.3,1.7c-0.1,0.1-0.2,0.2-0.3,0.3
			c-0.1,0.1-0.3,0.1-0.5,0.1c-0.1,0-0.3,0-0.4-0.1c-0.1-0.1-0.2-0.1-0.4-0.2s-0.3-0.2-0.4-0.3c-0.2-0.1-0.3-0.2-0.6-0.3
			c-0.2-0.1-0.5-0.2-0.8-0.2c-0.3-0.1-0.6-0.1-1-0.1c-0.7,0-1.3,0.1-1.8,0.4c-0.6,0.2-1,0.6-1.4,1c-0.4,0.4-0.7,1-0.9,1.6
			c-0.2,0.6-0.3,1.3-0.3,2.1c0,0.8,0.1,1.5,0.3,2.2c0.2,0.6,0.5,1.2,0.9,1.6c0.4,0.4,0.8,0.8,1.3,1c0.5,0.2,1.1,0.3,1.6,0.3
			c0.3,0,0.6,0,0.9,0c0.3,0,0.5-0.1,0.8-0.2c0.2-0.1,0.5-0.2,0.7-0.3c0.2-0.1,0.4-0.3,0.7-0.5c0.1-0.1,0.2-0.1,0.3-0.2
			S38,119.6,38.1,119.6z"/>
		<path class="st1" d="M66.3,115.7c0,1.2-0.2,2.2-0.6,3.2c-0.4,1-1,1.9-1.7,2.6c-0.7,0.7-1.6,1.3-2.6,1.7c-1,0.4-2.2,0.6-3.4,0.6
			c-1.2,0-2.4-0.2-3.4-0.6s-1.9-1-2.6-1.7c-0.7-0.7-1.3-1.6-1.7-2.6c-0.4-1-0.6-2.1-0.6-3.2c0-1.2,0.2-2.2,0.6-3.2
			c0.4-1,1-1.9,1.7-2.6c0.7-0.7,1.6-1.3,2.6-1.7c1-0.4,2.2-0.6,3.4-0.6c1.2,0,2.4,0.2,3.4,0.6c1,0.4,1.9,1,2.6,1.7
			c0.7,0.7,1.3,1.6,1.7,2.6C66.1,113.5,66.3,114.6,66.3,115.7z M62.5,115.7c0-0.8-0.1-1.5-0.3-2.1c-0.2-0.6-0.5-1.2-0.9-1.6
			c-0.4-0.4-0.9-0.8-1.4-1c-0.6-0.2-1.2-0.4-1.9-0.4c-0.7,0-1.4,0.1-1.9,0.4c-0.6,0.2-1,0.6-1.4,1c-0.4,0.4-0.7,1-0.9,1.6
			c-0.2,0.6-0.3,1.3-0.3,2.1c0,0.8,0.1,1.5,0.3,2.1c0.2,0.6,0.5,1.2,0.9,1.6c0.4,0.4,0.9,0.8,1.4,1c0.6,0.2,1.2,0.3,1.9,0.3
			c0.7,0,1.3-0.1,1.9-0.3c0.6-0.2,1-0.6,1.4-1c0.4-0.4,0.7-1,0.9-1.6C62.4,117.2,62.5,116.5,62.5,115.7z"/>
		<path class="st1" d="M85.5,117.3c0.1,0.3,0.3,0.6,0.4,0.9c0.1-0.3,0.3-0.6,0.4-0.9c0.1-0.3,0.3-0.6,0.4-0.9l4.1-8.1
			c0.1-0.1,0.1-0.2,0.2-0.3c0.1-0.1,0.2-0.1,0.3-0.2c0.1,0,0.2-0.1,0.3-0.1c0.1,0,0.3,0,0.4,0h2.8v16h-3.3v-9.2c0-0.4,0-0.9,0.1-1.4
			l-4.2,8.2c-0.1,0.3-0.3,0.4-0.5,0.6c-0.2,0.1-0.5,0.2-0.8,0.2h-0.5c-0.3,0-0.5-0.1-0.8-0.2c-0.2-0.1-0.4-0.3-0.5-0.6l-4.3-8.2
			c0,0.3,0.1,0.5,0.1,0.8c0,0.3,0,0.5,0,0.7v9.2h-3.3v-16h2.8c0.2,0,0.3,0,0.4,0c0.1,0,0.2,0,0.3,0.1c0.1,0,0.2,0.1,0.3,0.2
			c0.1,0.1,0.2,0.2,0.2,0.3l4.1,8.1C85.2,116.7,85.3,117,85.5,117.3z"/>
		<path class="st1" d="M116.5,107.7v2.9H110v3.7h5v2.7h-5v3.8h6.6v2.9h-10.3v-16H116.5z"/>
		<path class="st1" d="M131.1,117.8v5.9h-3.7v-16h5.2c1.2,0,2.1,0.1,3,0.4c0.8,0.2,1.5,0.6,2,1c0.5,0.4,0.9,0.9,1.1,1.5
			c0.2,0.6,0.4,1.2,0.4,1.9c0,0.5-0.1,1-0.2,1.5s-0.3,0.9-0.6,1.3c-0.3,0.4-0.6,0.7-1,1c-0.4,0.3-0.9,0.6-1.4,0.8
			c0.2,0.1,0.5,0.3,0.7,0.5c0.2,0.2,0.4,0.4,0.6,0.7l3.4,5.6h-3.4c-0.6,0-1.1-0.2-1.3-0.7l-2.7-4.6c-0.1-0.2-0.3-0.4-0.4-0.4
			c-0.2-0.1-0.4-0.1-0.7-0.1H131.1z M131.1,115.3h1.5c0.5,0,0.9-0.1,1.3-0.2c0.4-0.1,0.6-0.3,0.9-0.5c0.2-0.2,0.4-0.5,0.5-0.8
			c0.1-0.3,0.2-0.6,0.2-1c0-0.7-0.2-1.3-0.7-1.6c-0.5-0.4-1.2-0.6-2.1-0.6h-1.5V115.3z"/>
		<path class="st1" d="M161,119.6c0.1,0,0.2,0,0.3,0c0.1,0,0.2,0.1,0.3,0.2l1.5,1.5c-0.6,0.8-1.4,1.5-2.4,1.9
			c-1,0.4-2.1,0.6-3.4,0.6c-1.2,0-2.3-0.2-3.3-0.6c-1-0.4-1.8-1-2.4-1.7c-0.7-0.7-1.2-1.6-1.5-2.6c-0.4-1-0.5-2.1-0.5-3.3
			c0-1.2,0.2-2.3,0.6-3.3c0.4-1,1-1.9,1.7-2.6c0.7-0.7,1.6-1.3,2.6-1.7c1-0.4,2.2-0.6,3.4-0.6c0.6,0,1.2,0.1,1.7,0.2
			c0.5,0.1,1,0.3,1.5,0.4c0.5,0.2,0.9,0.4,1.3,0.7c0.4,0.3,0.7,0.5,1,0.9l-1.3,1.7c-0.1,0.1-0.2,0.2-0.3,0.3
			c-0.1,0.1-0.3,0.1-0.5,0.1c-0.1,0-0.3,0-0.4-0.1c-0.1-0.1-0.2-0.1-0.4-0.2c-0.1-0.1-0.3-0.2-0.4-0.3c-0.2-0.1-0.3-0.2-0.6-0.3
			c-0.2-0.1-0.5-0.2-0.8-0.2c-0.3-0.1-0.6-0.1-1-0.1c-0.7,0-1.3,0.1-1.8,0.4c-0.6,0.2-1,0.6-1.4,1c-0.4,0.4-0.7,1-0.9,1.6
			c-0.2,0.6-0.3,1.3-0.3,2.1c0,0.8,0.1,1.5,0.3,2.2c0.2,0.6,0.5,1.2,0.9,1.6c0.4,0.4,0.8,0.8,1.3,1c0.5,0.2,1.1,0.3,1.6,0.3
			c0.3,0,0.6,0,0.9,0c0.3,0,0.5-0.1,0.8-0.2c0.2-0.1,0.5-0.2,0.7-0.3c0.2-0.1,0.4-0.3,0.7-0.5c0.1-0.1,0.2-0.1,0.3-0.2
			S160.9,119.6,161,119.6z"/>
		<path class="st1" d="M177.5,123.7h-3.7v-16h3.7V123.7z"/>
		<path class="st1" d="M204.1,123.7h-2.9c-0.3,0-0.6-0.1-0.8-0.2c-0.2-0.1-0.4-0.3-0.4-0.6l-0.9-2.8H193l-0.9,2.8
			c-0.1,0.2-0.2,0.4-0.4,0.6c-0.2,0.2-0.5,0.2-0.8,0.2h-2.9l6.2-16h3.8L204.1,123.7z M193.8,117.6h4.4l-1.5-4.4
			c-0.1-0.3-0.2-0.6-0.3-1c-0.1-0.4-0.3-0.8-0.4-1.2c-0.1,0.4-0.2,0.9-0.4,1.2c-0.1,0.4-0.2,0.7-0.4,1L193.8,117.6z"/>
		<path class="st1" d="M217.8,120.8h5.9v3h-9.6v-16h3.7V120.8z"/>
	</g>
	<g>
		<g>
			<g>
				<path class="st2" d="M49.3,86.2v4.2h-12v-3.6c-1.1,1.3-2.3,2.3-3.8,3.1c-1.5,0.7-3.2,1.1-5,1.1c-2.4,0-4.5-0.6-6.4-1.8
					c-1.9-1.2-3.3-2.8-4.4-4.9c-1.1-2.1-1.6-4.5-1.6-7.1s0.5-5,1.6-7.1c1.1-2.1,2.5-3.7,4.4-4.9c1.9-1.2,4-1.8,6.4-1.8
					c1.8,0,3.5,0.4,5,1.1c1.5,0.7,2.8,1.7,3.8,3.1V54.9h-5.9v-4.2h12v35.5H49.3z M35.4,84.2c1.3-1.7,2-4,2-7c0-2.9-0.7-5.2-2-7
					c-1.3-1.7-3.1-2.6-5.3-2.6c-1.5,0-2.8,0.4-4,1.2c-1.2,0.8-2.1,1.9-2.8,3.4c-0.7,1.5-1,3.1-1,4.9c0,1.8,0.3,3.5,1,4.9
					c0.7,1.5,1.6,2.6,2.8,3.4c1.2,0.8,2.5,1.2,4,1.2C32.3,86.8,34.1,85.9,35.4,84.2z"/>
				<path class="st2" d="M70.6,86.2v4.2H52.8v-4.2h5.9v-18h-5.9V64h12v22.3H70.6z M57.8,58.4c-0.8-0.9-1.3-2-1.3-3.4
					c0-1.4,0.4-2.5,1.3-3.4c0.9-0.8,2-1.3,3.4-1.3c1.4,0,2.5,0.4,3.4,1.3c0.8,0.8,1.3,2,1.3,3.4c0,1.4-0.4,2.6-1.3,3.4
					c-0.8,0.9-2,1.3-3.4,1.3C59.8,59.7,58.7,59.3,57.8,58.4z"/>
				<path class="st2" d="M82.7,73.2c1,0.4,2.6,0.9,4.7,1.2c2.1,0.4,3.8,0.8,5.1,1.2c1.3,0.4,2.5,1.2,3.4,2.3
					c0.9,1.1,1.4,2.5,1.4,4.5c0,2.8-1,4.9-3.1,6.4c-2,1.5-4.7,2.3-8.1,2.3c-3,0-5.5-0.6-7.4-1.8v1.3h-4.2V79.9h4.2
					c0,2.5,0.6,4.2,1.8,5.3c1.2,1.1,2.9,1.6,5.1,1.6c1.8,0,3.2-0.3,4.1-0.9c1-0.6,1.4-1.5,1.4-2.6c0-1.3-0.6-2.2-1.7-2.7
					c-1.1-0.5-2.8-1-5.1-1.5c-2-0.4-3.6-0.8-4.9-1.3c-1.2-0.4-2.3-1.1-3.2-2.1c-0.9-1-1.3-2.3-1.3-4c0-2.6,1-4.6,3-6
					c2-1.4,4.6-2.2,7.7-2.2c2.5,0,4.7,0.5,6.4,1.5v-1h4.2v9.6h-4.2c0-2.2-0.5-3.7-1.5-4.6c-1-0.8-2.4-1.3-4.2-1.3
					c-1.7,0-3,0.3-3.9,0.8c-0.9,0.6-1.4,1.4-1.4,2.4C81.2,72,81.7,72.7,82.7,73.2z"/>
				<path class="st2" d="M113.3,68.2v14.5c0,1.4,0.2,2.4,0.6,3.1c0.4,0.7,0.9,1,1.4,1c1,0,1.5-0.9,1.5-2.6c0-0.6-0.1-1.3-0.2-2.1
					h3.7c0.2,1.3,0.3,2.4,0.3,3.3c0,2-0.5,3.4-1.5,4.3c-1,0.9-2.7,1.3-4.9,1.3c-2.4,0-4.2-0.6-5.5-1.8c-1.3-1.2-1.9-3.4-1.9-6.5
					V68.2h-5.5V64h5.5V53.3c2.8,0,4.9-0.2,6.5-0.5V64h7.4v4.2H113.3z"/>
				<path class="st2" d="M148.7,64.7c1,0.8,1.8,1.8,2.2,3c0.5,1.2,0.7,2.3,0.7,3.4c0,1.4-0.3,2.5-1,3.2c-0.7,0.8-1.6,1.2-2.8,1.2
					c-1.1,0-1.9-0.3-2.6-1c-0.7-0.7-1-1.5-1-2.5c0-1.5,0.7-2.5,2-3.1c-0.6-0.8-1.4-1.2-2.6-1.2c-1.1,0-2.2,0.4-3.2,1.2
					c-1,0.8-1.9,2-2.5,3.6c-0.6,1.5-1,3.3-1,5.3v8.5h5.8v4.2h-17.8v-4.2h5.9v-18h-5.9V64h12v5c0.9-1.8,2-3.2,3.3-4.1
					c1.3-0.9,2.9-1.4,4.6-1.4C146.4,63.4,147.7,63.8,148.7,64.7z"/>
				<path class="st2" d="M172.9,86.2v4.2h-17.8v-4.2h5.9v-18h-5.9V64h12v22.3H172.9z M160.1,58.4c-0.8-0.9-1.3-2-1.3-3.4
					c0-1.4,0.4-2.5,1.3-3.4c0.9-0.8,2-1.3,3.4-1.3c1.4,0,2.5,0.4,3.4,1.3c0.8,0.8,1.3,2,1.3,3.4c0,1.4-0.4,2.6-1.3,3.4
					c-0.8,0.9-2,1.3-3.4,1.3C162.1,59.7,161,59.3,160.1,58.4z"/>
				<path class="st2" d="M184.9,68.2v14.5c0,1.4,0.2,2.4,0.6,3.1c0.4,0.7,0.9,1,1.4,1c1,0,1.5-0.9,1.5-2.6c0-0.6-0.1-1.3-0.2-2.1
					h3.7c0.2,1.3,0.3,2.4,0.3,3.3c0,2-0.5,3.4-1.5,4.3c-1,0.9-2.7,1.3-4.9,1.3c-2.4,0-4.2-0.6-5.5-1.8c-1.3-1.2-1.9-3.4-1.9-6.5
					V68.2h-5.5V64h5.5V53.3c2.8,0,4.9-0.2,6.5-0.5V64h7.4v4.2H184.9z"/>
			</g>
		</g>
		<g>
			<g>
				<g>
					<path class="st3" d="M229.9,80.7c-0.4,1.4-0.9,2.8-1.7,4.1l1.2,1.2c0.6,0.6,0.6,1.5,0,2l-3.4,3.4c-0.6,0.6-1.5,0.6-2,0
						l-1.2-1.2c-1.2,0.7-2.6,1.3-4,1.7v1.7c0,0.8-0.6,1.4-1.4,1.4h-4.8c-0.8,0-1.4-0.6-1.4-1.4v-1.7c-1.4-0.4-2.8-0.9-4-1.7
						l-1.2,1.2c-0.6,0.6-1.5,0.6-2,0l-3.4-3.4c-0.6-0.6-0.6-1.5,0-2l1.2-1.2c-0.7-1.3-1.3-2.6-1.7-4.1h-1.7c-0.8,0-1.4-0.6-1.4-1.4
						v-4.8c0-0.8,0.6-1.4,1.4-1.4h1.7c0.4-1.4,0.9-2.8,1.7-4.1l-1.2-1.2c-0.6-0.6-0.6-1.5,0-2l3.4-3.4c0.6-0.6,1.5-0.6,2,0l1.2,1.2
						c1.2-0.7,2.6-1.3,4-1.7v-1.7c0-0.8,0.6-1.4,1.4-1.4h4.8c0.8,0,1.4,0.6,1.4,1.4v1.7c1.4,0.4,2.8,0.9,4,1.7l1.2-1.2
						c0.6-0.6,1.5-0.6,2,0l3.4,3.4c0.6,0.6,0.6,1.5,0,2l-1.2,1.2c0.7,1.3,1.3,2.6,1.7,4.1h1.7c0.8,0,1.4,0.6,1.4,1.4v4.8
						c0,0.8-0.6,1.4-1.4,1.4H229.9z"/>
				</g>
			</g>
			<g>
				<g>
					<path class="st4" d="M226,91.3l3.4-3.4c0.6-0.6,0.6-1.5,0-2l-1.2-1.2c0.7-1.3,1.3-2.6,1.7-4.1h1.7c0.8,0,1.4-0.6,1.4-1.4V76
						c-2,1-4.2,1.8-6.5,2.4c-0.8,5.7-5.6,10.1-11.5,10.1c-5.6,0-10.2-3.9-11.4-9.1c0-0.1-0.1-0.3-0.1-0.4c-2.3-0.5-4.6-1.2-6.6-2
						v2.3c0,0.8,0.6,1.4,1.4,1.4h1.7c0.4,1.4,0.9,2.8,1.7,4.1l-1.2,1.2c-0.6,0.6-0.6,1.5,0,2l3.4,3.4c0.6,0.6,1.5,0.6,2,0l1.2-1.2
						c1.2,0.7,2.6,1.3,4,1.7v1.7c0,0.8,0.6,1.4,1.4,1.4h4.8c0.8,0,1.4-0.6,1.4-1.4v-1.7c1.4-0.4,2.8-0.9,4-1.7l1.2,1.2
						C224.6,91.9,225.5,91.9,226,91.3L226,91.3z"/>
				</g>
			</g>
			<g>
				<g>
					<path class="st5" d="M215,88.5c6.4,0,11.7-5.2,11.7-11.6c0-6.4-5.2-11.6-11.7-11.6c-6.4,0-11.7,5.2-11.7,11.6
						C203.3,83.3,208.5,88.5,215,88.5z"/>
				</g>
			</g>
			<g>
				<g>
					<path class="st3" d="M217.5,82.7c2.6-0.9,4.4-3.4,4.4-6.3c0-2.3-1.2-4.3-2.9-5.5c-1.9-1.3-1.5,0.7-1.5,1.1v4
						c0,1.4-1.1,2.6-2.5,2.7c-1.4-0.1-2.5-1.3-2.5-2.7v-4c0-0.3,0.4-2.3-1.5-1.1c-1.8,1.2-2.9,3.2-2.9,5.5c0,2.9,1.8,5.3,4.4,6.3
						v5.5c0.8,0.2,1.7,0.3,2.5,0.3c0.9,0,1.7-0.1,2.5-0.3L217.5,82.7L217.5,82.7z"/>
				</g>
			</g>
			<g>
				<g>
					<path class="st4" d="M217.5,88.2v-5.5c2.6-0.9,4.4-3.4,4.4-6.3c0-2.3-1.2-4.3-2.9-5.5c-0.4-0.3-0.7-0.4-0.9-0.4
						c1.4,1.2,2.2,3,2.2,5c0,2.8-1.7,5.1-4.1,6.2c-0.4,0.2-0.3,0.6-0.3,1.1v5.8C216.4,88.4,216.9,88.3,217.5,88.2z"/>
				</g>
			</g>
		</g>
	</g>
</g>
<g>
	<path class="st6" d="M42.9,180.9c-0.8,1.4-2,2.5-3.7,3.3c-1.6,0.8-3.6,1.3-5.9,1.3c-2.3,0-4.3-0.4-6.1-1.2
		c-1.8-0.8-3.2-1.9-4.3-3.4c-1.1-1.5-1.7-3.2-1.9-5.1h6.9c0.2,1.3,0.7,2.4,1.6,3.3c0.9,0.9,2.1,1.3,3.6,1.3c1.3,0,2.4-0.4,3.1-1.1
		c0.7-0.7,1.1-1.6,1.1-2.8c0-1-0.3-1.8-0.9-2.5c-0.6-0.7-1.3-1.2-2.2-1.6c-0.9-0.4-2.1-0.9-3.7-1.4c-2-0.7-3.7-1.3-5-2
		c-1.3-0.7-2.4-1.6-3.3-2.9c-0.9-1.3-1.4-2.9-1.4-4.9c0-2.8,1-5,3-6.6c2-1.6,4.7-2.4,8-2.4c3.4,0,6.1,0.8,8.2,2.5
		c2,1.7,3.2,3.9,3.5,6.6h-7c-0.2-1.2-0.7-2.1-1.5-2.9c-0.8-0.7-1.9-1.1-3.3-1.1c-1.2,0-2.2,0.3-2.9,0.9s-1.1,1.5-1.1,2.7
		c0,0.9,0.3,1.7,0.8,2.4c0.6,0.6,1.3,1.1,2.2,1.5c0.9,0.4,2.1,0.8,3.6,1.3c2.1,0.7,3.8,1.4,5.1,2.1s2.4,1.6,3.3,2.9
		c0.9,1.3,1.4,3,1.4,5C44.1,178,43.7,179.5,42.9,180.9z"/>
	<path class="st6" d="M72.5,173.8H53.9c0.1,2.3,0.7,3.9,1.8,5c1.1,1.1,2.5,1.6,4.2,1.6c1.5,0,2.7-0.4,3.7-1.1c1-0.7,1.6-1.7,1.9-3
		h6.8c-0.3,1.8-1.1,3.4-2.2,4.8s-2.5,2.5-4.2,3.3c-1.7,0.8-3.6,1.2-5.8,1.2c-2.5,0-4.7-0.5-6.6-1.6c-1.9-1.1-3.4-2.6-4.5-4.5
		c-1.1-2-1.6-4.3-1.6-6.9c0-2.7,0.5-5,1.6-6.9c1.1-2,2.6-3.5,4.5-4.5c1.9-1,4.1-1.6,6.6-1.6c2.5,0,4.7,0.5,6.6,1.6
		c1.9,1,3.3,2.5,4.4,4.3c1,1.8,1.5,3.9,1.5,6.2C72.8,172.2,72.7,172.9,72.5,173.8z M64.6,166.2c-1.2-1.1-2.6-1.6-4.3-1.6
		c-1.7,0-3.2,0.5-4.4,1.6c-1.2,1.1-1.8,2.6-2,4.7h12.3C66.3,168.8,65.8,167.3,64.6,166.2z"/>
	<path class="st6" d="M87.6,160.9c1.6-0.9,3.3-1.4,5.2-1.4v6.9h-1.9c-4.7,0-7.1,2.2-7.1,6.6v12.2h-6.5v-25.4h6.5v4.9
		C84.7,163.1,86,161.8,87.6,160.9z"/>
	<path class="st6" d="M107.4,178.8l6.4-18.9h6.9l-9.4,25.4h-7.9L94,159.8h6.9L107.4,178.8z"/>
	<path class="st6" d="M124.6,150c0.7-0.7,1.7-1,2.9-1c1.2,0,2.2,0.3,2.9,1c0.7,0.7,1.1,1.5,1.1,2.5c0,1-0.4,1.8-1.1,2.5
		c-0.7,0.7-1.7,1-2.9,1c-1.2,0-2.2-0.3-2.9-1c-0.7-0.7-1.1-1.5-1.1-2.5C123.5,151.5,123.9,150.6,124.6,150z M130.7,159.8v25.4h-6.5
		v-25.4H130.7z"/>
	<path class="st6" d="M156.2,162.2c2.2,1.8,3.6,4.2,4.1,7.2h-6.8c-0.3-1.3-0.9-2.4-1.9-3.2c-1-0.8-2.2-1.2-3.7-1.2
		c-1.7,0-3.1,0.6-4.3,1.9c-1.1,1.3-1.7,3.1-1.7,5.6s0.6,4.3,1.7,5.6c1.1,1.3,2.6,1.9,4.3,1.9c1.5,0,2.7-0.4,3.7-1.2
		c1-0.8,1.6-1.8,1.9-3.2h6.8c-0.5,3.1-1.9,5.5-4.1,7.2c-2.2,1.8-4.9,2.7-8.2,2.7c-2.5,0-4.7-0.5-6.6-1.6c-1.9-1.1-3.4-2.6-4.5-4.5
		c-1.1-2-1.6-4.3-1.6-6.9c0-2.7,0.5-5,1.6-6.9c1.1-2,2.6-3.5,4.5-4.5c1.9-1,4.1-1.6,6.6-1.6C151.3,159.5,154,160.4,156.2,162.2z"/>
	<path class="st6" d="M165.2,150c0.7-0.7,1.7-1,2.9-1c1.2,0,2.2,0.3,2.9,1c0.7,0.7,1.1,1.5,1.1,2.5c0,1-0.4,1.8-1.1,2.5
		c-0.7,0.7-1.7,1-2.9,1c-1.2,0-2.2-0.3-2.9-1c-0.7-0.7-1.1-1.5-1.1-2.5C164.1,151.5,164.5,150.6,165.2,150z M171.3,159.8v25.4h-6.5
		v-25.4H171.3z"/>
	<path class="st6" d="M195.6,161.1c2,1,3.5,2.5,4.7,4.5c1.1,2,1.7,4.3,1.7,6.9c0,2.7-0.6,5-1.7,6.9c-1.1,2-2.7,3.5-4.7,4.5
		c-2,1.1-4.2,1.6-6.7,1.6c-2.5,0-4.7-0.5-6.7-1.6c-2-1.1-3.5-2.6-4.7-4.5c-1.1-2-1.7-4.3-1.7-6.9c0-2.7,0.6-5,1.7-6.9
		c1.1-2,2.7-3.5,4.7-4.5c2-1,4.2-1.6,6.7-1.6C191.4,159.5,193.6,160,195.6,161.1z M184.4,167c-1.3,1.3-1.9,3.1-1.9,5.5
		s0.6,4.3,1.9,5.5c1.3,1.3,2.8,1.9,4.6,1.9c1.8,0,3.3-0.6,4.6-1.9c1.3-1.3,1.9-3.1,1.9-5.5s-0.6-4.3-1.9-5.5
		c-1.3-1.3-2.8-1.9-4.6-1.9C187.1,165.1,185.6,165.7,184.4,167z"/>
	<path class="st6" d="M222.7,161.8c1.9,1.6,3,3.6,3.5,6.2h-6.1c-0.2-1.2-0.8-2.2-1.7-2.9s-2-1.1-3.3-1.1c-1.1,0-2,0.3-2.6,0.8
		c-0.6,0.5-0.9,1.2-0.9,2.1c0,0.7,0.2,1.3,0.7,1.7c0.5,0.4,1.1,0.8,1.8,1s1.8,0.5,3.2,0.9c1.9,0.4,3.5,0.9,4.7,1.4
		c1.2,0.5,2.2,1.2,3.1,2.2c0.9,1,1.3,2.4,1.3,4.1c0,2.2-0.8,3.9-2.5,5.3c-1.7,1.3-4,2-6.9,2c-3.3,0-5.9-0.7-7.9-2.2
		c-2-1.5-3.2-3.6-3.6-6.3h6.2c0.2,1.3,0.7,2.2,1.6,3s2.2,1.1,3.7,1.1c1.1,0,1.9-0.3,2.5-0.8c0.6-0.5,0.9-1.2,0.9-2.1
		c0-0.7-0.3-1.3-0.8-1.8c-0.5-0.5-1.1-0.8-1.9-1.1c-0.7-0.2-1.8-0.5-3.2-0.9c-1.9-0.4-3.4-0.9-4.6-1.3c-1.2-0.4-2.2-1.2-3-2.1
		c-0.8-1-1.3-2.3-1.3-4c0-2.2,0.8-4,2.5-5.4s4-2.1,7-2.1C218.4,159.5,220.9,160.3,222.7,161.8z"/>
</g>
<g>
</g>
<g>
</g>
<g>
</g>
<g>
</g>
<g>
</g>
<g>
</g>
<g>
</g>
<g>
</g>
<g>
</g>
<g>
</g>
<g>
</g>
</svg>
