<?xml version="1.0" encoding="UTF-8"?>
<svg xmlns="http://www.w3.org/2000/svg" xmlns:xlink="http://www.w3.org/1999/xlink" width="150pt" height="70pt" viewBox="0 0 150 70" version="1.1">
<g id="surface1">
<path style="fill:none;stroke-width:1;stroke-linecap:butt;stroke-linejoin:miter;stroke:rgb(76.078431%,23.921569%,17.254902%);stroke-opacity:1;stroke-miterlimit:10;" d="M 219.199219 98.6 L 30.201823 98.6 C 22.597656 98.6 16.39974 92.398661 16.39974 84.799107 C 16.39974 77.199554 22.597656 70.998214 30.201823 70.998214 L 219.199219 70.998214 C 226.796875 70.998214 233.001302 77.199554 233.001302 84.799107 C 233.001302 92.398661 226.796875 98.6 219.199219 98.6 Z M 219.199219 98.6 " transform="matrix(0.6,0,0,0.603448,0,0)"/>
<path style=" stroke:none;fill-rule:nonzero;fill:rgb(76.078431%,23.921569%,17.254902%);fill-opacity:1;" d="M 22.859375 53.464844 C 22.921875 53.464844 22.980469 53.464844 23.039062 53.464844 C 23.101562 53.464844 23.160156 53.527344 23.21875 53.585938 L 24.121094 54.492188 C 23.761719 54.972656 23.28125 55.398438 22.679688 55.636719 C 22.078125 55.878906 21.421875 56 20.640625 56 C 19.921875 56 19.261719 55.878906 18.660156 55.636719 C 18.058594 55.398438 17.578125 55.035156 17.21875 54.613281 C 16.800781 54.191406 16.5 53.648438 16.320312 53.042969 C 16.078125 52.441406 16.019531 51.777344 16.019531 51.050781 C 16.019531 50.328125 16.140625 49.664062 16.378906 49.058594 C 16.621094 48.457031 16.980469 47.914062 17.398438 47.492188 C 17.820312 47.070312 18.359375 46.707031 18.960938 46.464844 C 19.558594 46.222656 20.28125 46.101562 21 46.101562 C 21.359375 46.101562 21.71875 46.164062 22.019531 46.222656 C 22.320312 46.285156 22.621094 46.40625 22.921875 46.464844 C 23.21875 46.585938 23.460938 46.707031 23.699219 46.886719 C 23.941406 47.070312 24.121094 47.191406 24.300781 47.429688 L 23.519531 48.457031 C 23.460938 48.515625 23.398438 48.578125 23.339844 48.636719 C 23.28125 48.699219 23.160156 48.699219 23.039062 48.699219 C 22.980469 48.699219 22.859375 48.699219 22.800781 48.636719 C 22.738281 48.578125 22.679688 48.578125 22.558594 48.515625 C 22.441406 48.457031 22.378906 48.398438 22.320312 48.335938 C 22.199219 48.277344 22.140625 48.214844 21.960938 48.15625 C 21.839844 48.09375 21.660156 48.035156 21.480469 48.035156 C 21.300781 47.972656 21.121094 47.972656 20.878906 47.972656 C 20.460938 47.972656 20.101562 48.035156 19.800781 48.214844 C 19.441406 48.335938 19.199219 48.578125 18.960938 48.820312 C 18.71875 49.058594 18.539062 49.421875 18.421875 49.785156 C 18.300781 50.148438 18.238281 50.570312 18.238281 51.050781 C 18.238281 51.535156 18.300781 51.957031 18.421875 52.378906 C 18.539062 52.742188 18.71875 53.101562 18.960938 53.34375 C 19.199219 53.585938 19.441406 53.828125 19.738281 53.949219 C 20.039062 54.070312 20.398438 54.128906 20.699219 54.128906 C 20.878906 54.128906 21.058594 54.128906 21.238281 54.128906 C 21.421875 54.128906 21.539062 54.070312 21.71875 54.007812 C 21.839844 53.949219 22.019531 53.886719 22.140625 53.828125 C 22.261719 53.765625 22.378906 53.648438 22.558594 53.527344 C 22.621094 53.464844 22.679688 53.464844 22.738281 53.40625 C 22.800781 53.34375 22.800781 53.464844 22.859375 53.464844 Z M 22.859375 53.464844 "/>
<path style=" stroke:none;fill-rule:nonzero;fill:rgb(76.078431%,23.921569%,17.254902%);fill-opacity:1;" d="M 39.78125 51.113281 C 39.78125 51.835938 39.660156 52.441406 39.421875 53.042969 C 39.179688 53.648438 38.820312 54.191406 38.398438 54.613281 C 37.980469 55.035156 37.441406 55.398438 36.839844 55.636719 C 36.238281 55.878906 35.519531 56 34.800781 56 C 34.078125 56 33.359375 55.878906 32.761719 55.636719 C 32.160156 55.398438 31.621094 55.035156 31.199219 54.613281 C 30.78125 54.191406 30.421875 53.648438 30.179688 53.042969 C 29.941406 52.441406 29.820312 51.777344 29.820312 51.113281 C 29.820312 50.386719 29.941406 49.785156 30.179688 49.179688 C 30.421875 48.578125 30.78125 48.035156 31.199219 47.613281 C 31.621094 47.191406 32.160156 46.828125 32.761719 46.585938 C 33.359375 46.34375 34.078125 46.222656 34.800781 46.222656 C 35.519531 46.222656 36.238281 46.34375 36.839844 46.585938 C 37.441406 46.828125 37.980469 47.191406 38.398438 47.613281 C 38.820312 48.035156 39.179688 48.578125 39.421875 49.179688 C 39.660156 49.785156 39.78125 50.449219 39.78125 51.113281 Z M 37.5 51.113281 C 37.5 50.628906 37.441406 50.207031 37.320312 49.84375 C 37.199219 49.484375 37.019531 49.121094 36.78125 48.878906 C 36.539062 48.636719 36.238281 48.398438 35.941406 48.277344 C 35.578125 48.15625 35.21875 48.035156 34.800781 48.035156 C 34.378906 48.035156 33.960938 48.09375 33.660156 48.277344 C 33.300781 48.398438 33.058594 48.636719 32.820312 48.878906 C 32.578125 49.121094 32.398438 49.484375 32.28125 49.84375 C 32.160156 50.207031 32.101562 50.628906 32.101562 51.113281 C 32.101562 51.59375 32.160156 52.015625 32.28125 52.378906 C 32.398438 52.742188 32.578125 53.101562 32.820312 53.34375 C 33.058594 53.585938 33.359375 53.828125 33.660156 53.949219 C 34.019531 54.070312 34.378906 54.128906 34.800781 54.128906 C 35.21875 54.128906 35.578125 54.070312 35.941406 53.949219 C 36.300781 53.828125 36.539062 53.585938 36.78125 53.34375 C 37.019531 53.101562 37.199219 52.742188 37.320312 52.378906 C 37.441406 52.015625 37.5 51.59375 37.5 51.113281 Z M 37.5 51.113281 "/>
<path style=" stroke:none;fill-rule:nonzero;fill:rgb(76.078431%,23.921569%,17.254902%);fill-opacity:1;" d="M 51.300781 52.078125 C 51.359375 52.257812 51.480469 52.441406 51.539062 52.621094 C 51.601562 52.441406 51.71875 52.257812 51.78125 52.078125 C 51.839844 51.898438 51.960938 51.714844 52.019531 51.535156 L 54.480469 46.648438 C 54.539062 46.585938 54.539062 46.527344 54.601562 46.464844 C 54.660156 46.40625 54.71875 46.40625 54.78125 46.34375 C 54.839844 46.34375 54.898438 46.285156 54.960938 46.285156 C 55.019531 46.285156 55.140625 46.285156 55.199219 46.285156 L 56.878906 46.285156 L 56.878906 55.941406 L 54.898438 55.941406 L 54.898438 50.386719 C 54.898438 50.148438 54.898438 49.84375 54.960938 49.542969 L 52.441406 54.492188 C 52.378906 54.671875 52.261719 54.734375 52.140625 54.851562 C 52.019531 54.914062 51.839844 54.972656 51.660156 54.972656 L 51.359375 54.972656 C 51.179688 54.972656 51.058594 54.914062 50.878906 54.851562 C 50.761719 54.792969 50.640625 54.671875 50.578125 54.492188 L 48 49.542969 C 48 49.722656 48.058594 49.84375 48.058594 50.027344 C 48.058594 50.207031 48.058594 50.328125 48.058594 50.449219 L 48.058594 56 L 46.078125 56 L 46.078125 46.34375 L 47.761719 46.34375 C 47.878906 46.34375 47.941406 46.34375 48 46.34375 C 48.058594 46.34375 48.121094 46.34375 48.179688 46.40625 C 48.238281 46.40625 48.300781 46.464844 48.359375 46.527344 C 48.421875 46.585938 48.480469 46.648438 48.480469 46.707031 L 50.941406 51.59375 C 51.121094 51.714844 51.179688 51.898438 51.300781 52.078125 Z M 51.300781 52.078125 "/>
<path style=" stroke:none;fill-rule:nonzero;fill:rgb(76.078431%,23.921569%,17.254902%);fill-opacity:1;" d="M 69.898438 46.285156 L 69.898438 48.035156 L 66 48.035156 L 66 50.265625 L 69 50.265625 L 69 51.898438 L 66 51.898438 L 66 54.191406 L 69.960938 54.191406 L 69.960938 55.941406 L 63.78125 55.941406 L 63.78125 46.285156 Z M 69.898438 46.285156 "/>
<path style=" stroke:none;fill-rule:nonzero;fill:rgb(76.078431%,23.921569%,17.254902%);fill-opacity:1;" d="M 78.660156 52.378906 L 78.660156 55.941406 L 76.441406 55.941406 L 76.441406 46.285156 L 79.558594 46.285156 C 80.28125 46.285156 80.820312 46.34375 81.359375 46.527344 C 81.839844 46.648438 82.261719 46.886719 82.558594 47.128906 C 82.859375 47.371094 83.101562 47.671875 83.21875 48.035156 C 83.339844 48.398438 83.460938 48.757812 83.460938 49.179688 C 83.460938 49.484375 83.398438 49.785156 83.339844 50.085938 C 83.28125 50.386719 83.160156 50.628906 82.980469 50.871094 C 82.800781 51.113281 82.621094 51.292969 82.378906 51.472656 C 82.140625 51.65625 81.839844 51.835938 81.539062 51.957031 C 81.660156 52.015625 81.839844 52.136719 81.960938 52.257812 C 82.078125 52.378906 82.199219 52.5 82.320312 52.679688 L 84.359375 56.058594 L 82.320312 56.058594 C 81.960938 56.058594 81.660156 55.941406 81.539062 55.636719 L 79.921875 52.863281 C 79.859375 52.742188 79.738281 52.621094 79.679688 52.621094 C 79.558594 52.558594 79.441406 52.558594 79.261719 52.558594 L 78.660156 52.558594 Z M 78.660156 50.871094 L 79.558594 50.871094 C 79.859375 50.871094 80.101562 50.808594 80.339844 50.75 C 80.578125 50.691406 80.699219 50.570312 80.878906 50.449219 C 81 50.328125 81.121094 50.148438 81.179688 49.964844 C 81.238281 49.785156 81.300781 49.601562 81.300781 49.363281 C 81.300781 48.941406 81.179688 48.578125 80.878906 48.398438 C 80.578125 48.15625 80.160156 48.035156 79.621094 48.035156 L 78.71875 48.035156 Z M 78.660156 50.871094 "/>
<path style=" stroke:none;fill-rule:nonzero;fill:rgb(76.078431%,23.921569%,17.254902%);fill-opacity:1;" d="M 96.601562 53.464844 C 96.660156 53.464844 96.71875 53.464844 96.78125 53.464844 C 96.839844 53.464844 96.898438 53.527344 96.960938 53.585938 L 97.859375 54.492188 C 97.5 54.972656 97.019531 55.398438 96.421875 55.636719 C 95.820312 55.878906 95.160156 56 94.378906 56 C 93.660156 56 93 55.878906 92.398438 55.636719 C 91.800781 55.398438 91.320312 55.035156 90.960938 54.613281 C 90.539062 54.191406 90.238281 53.648438 90.058594 53.042969 C 89.820312 52.441406 89.761719 51.777344 89.761719 51.050781 C 89.761719 50.328125 89.878906 49.664062 90.121094 49.058594 C 90.359375 48.457031 90.71875 47.914062 91.140625 47.492188 C 91.558594 47.070312 92.101562 46.707031 92.699219 46.464844 C 93.300781 46.222656 94.019531 46.101562 94.738281 46.101562 C 95.101562 46.101562 95.460938 46.164062 95.761719 46.222656 C 96.058594 46.285156 96.359375 46.40625 96.660156 46.464844 C 96.960938 46.585938 97.199219 46.707031 97.441406 46.886719 C 97.679688 47.070312 97.859375 47.191406 98.039062 47.429688 L 97.261719 48.457031 C 97.199219 48.515625 97.140625 48.578125 97.078125 48.636719 C 97.019531 48.699219 96.898438 48.699219 96.78125 48.699219 C 96.71875 48.699219 96.601562 48.699219 96.539062 48.636719 C 96.480469 48.578125 96.421875 48.578125 96.300781 48.515625 C 96.238281 48.457031 96.121094 48.398438 96.058594 48.335938 C 95.941406 48.277344 95.878906 48.214844 95.699219 48.15625 C 95.578125 48.09375 95.398438 48.035156 95.21875 48.035156 C 95.039062 47.972656 94.859375 47.972656 94.621094 47.972656 C 94.199219 47.972656 93.839844 48.035156 93.539062 48.214844 C 93.179688 48.335938 92.941406 48.578125 92.699219 48.820312 C 92.460938 49.058594 92.28125 49.421875 92.160156 49.785156 C 92.039062 50.148438 91.980469 50.570312 91.980469 51.050781 C 91.980469 51.535156 92.039062 51.957031 92.160156 52.378906 C 92.28125 52.742188 92.460938 53.101562 92.699219 53.34375 C 92.941406 53.585938 93.179688 53.828125 93.480469 53.949219 C 93.78125 54.070312 94.140625 54.128906 94.441406 54.128906 C 94.621094 54.128906 94.800781 54.128906 94.980469 54.128906 C 95.160156 54.128906 95.28125 54.070312 95.460938 54.007812 C 95.578125 53.949219 95.761719 53.886719 95.878906 53.828125 C 96 53.765625 96.121094 53.648438 96.300781 53.527344 C 96.359375 53.464844 96.421875 53.464844 96.480469 53.40625 C 96.539062 53.34375 96.539062 53.464844 96.601562 53.464844 Z M 96.601562 53.464844 "/>
<path style=" stroke:none;fill-rule:nonzero;fill:rgb(76.078431%,23.921569%,17.254902%);fill-opacity:1;" d="M 106.5 55.941406 L 104.28125 55.941406 L 104.28125 46.285156 L 106.5 46.285156 Z M 106.5 55.941406 "/>
<path style=" stroke:none;fill-rule:nonzero;fill:rgb(76.078431%,23.921569%,17.254902%);fill-opacity:1;" d="M 122.460938 55.941406 L 120.71875 55.941406 C 120.539062 55.941406 120.359375 55.878906 120.238281 55.820312 C 120.121094 55.757812 120 55.636719 120 55.457031 L 119.460938 53.765625 L 115.800781 53.765625 L 115.261719 55.457031 C 115.199219 55.578125 115.140625 55.699219 115.019531 55.820312 C 114.898438 55.941406 114.71875 55.941406 114.539062 55.941406 L 112.800781 55.941406 L 116.519531 46.285156 L 118.800781 46.285156 Z M 116.28125 52.257812 L 118.921875 52.257812 L 118.019531 49.601562 C 117.960938 49.421875 117.898438 49.242188 117.839844 49 C 117.78125 48.757812 117.660156 48.515625 117.601562 48.277344 C 117.539062 48.515625 117.480469 48.820312 117.359375 49 C 117.300781 49.242188 117.238281 49.421875 117.121094 49.601562 Z M 116.28125 52.257812 "/>
<path style=" stroke:none;fill-rule:nonzero;fill:rgb(76.078431%,23.921569%,17.254902%);fill-opacity:1;" d="M 130.679688 54.191406 L 134.21875 54.191406 L 134.21875 56 L 128.460938 56 L 128.460938 46.34375 L 130.679688 46.34375 Z M 130.679688 54.191406 "/>
<path style=" stroke:none;fill-rule:nonzero;fill:rgb(12.941176%,17.647059%,39.215686%);fill-opacity:1;" d="M 29.578125 33.308594 L 29.578125 35.84375 L 22.378906 35.84375 L 22.378906 33.671875 C 21.71875 34.457031 21 35.058594 20.101562 35.542969 C 19.199219 35.964844 18.179688 36.207031 17.101562 36.207031 C 15.660156 36.207031 14.398438 35.84375 13.261719 35.121094 C 12.121094 34.398438 11.28125 33.429688 10.621094 32.164062 C 9.960938 30.898438 9.660156 29.449219 9.660156 27.878906 C 9.660156 26.308594 9.960938 24.863281 10.621094 23.59375 C 11.28125 22.328125 12.121094 21.363281 13.261719 20.636719 C 14.398438 19.914062 15.660156 19.550781 17.101562 19.550781 C 18.179688 19.550781 19.199219 19.792969 20.101562 20.214844 C 21 20.636719 21.78125 21.242188 22.378906 22.085938 L 22.378906 14.421875 L 18.839844 14.421875 L 18.839844 11.886719 L 26.039062 11.886719 L 26.039062 33.308594 C 26.039062 33.308594 29.578125 33.308594 29.578125 33.308594 Z M 21.238281 32.101562 C 22.019531 31.078125 22.441406 29.691406 22.441406 27.878906 C 22.441406 26.128906 22.019531 24.742188 21.238281 23.65625 C 20.460938 22.628906 19.378906 22.085938 18.058594 22.085938 C 17.160156 22.085938 16.378906 22.328125 15.660156 22.808594 C 14.941406 23.292969 14.398438 23.957031 13.980469 24.863281 C 13.558594 25.765625 13.378906 26.734375 13.378906 27.820312 C 13.378906 28.90625 13.558594 29.929688 13.980469 30.777344 C 14.398438 31.679688 14.941406 32.34375 15.660156 32.828125 C 16.378906 33.308594 17.160156 33.550781 18.058594 33.550781 C 19.378906 33.671875 20.460938 33.128906 21.238281 32.101562 Z M 21.238281 32.101562 "/>
<path style=" stroke:none;fill-rule:nonzero;fill:rgb(12.941176%,17.647059%,39.215686%);fill-opacity:1;" d="M 42.359375 33.308594 L 42.359375 35.84375 L 31.679688 35.84375 L 31.679688 33.308594 L 35.21875 33.308594 L 35.21875 22.449219 L 31.679688 22.449219 L 31.679688 19.914062 L 38.878906 19.914062 L 38.878906 33.371094 L 42.359375 33.371094 Z M 34.679688 16.535156 C 34.199219 15.992188 33.898438 15.328125 33.898438 14.484375 C 33.898438 13.636719 34.140625 12.972656 34.679688 12.429688 C 35.21875 11.949219 35.878906 11.648438 36.71875 11.648438 C 37.558594 11.648438 38.21875 11.886719 38.761719 12.429688 C 39.238281 12.914062 39.539062 13.636719 39.539062 14.484375 C 39.539062 15.328125 39.300781 16.050781 38.761719 16.535156 C 38.28125 17.078125 37.558594 17.320312 36.71875 17.320312 C 35.878906 17.320312 35.21875 17.078125 34.679688 16.535156 Z M 34.679688 16.535156 "/>
<path style=" stroke:none;fill-rule:nonzero;fill:rgb(12.941176%,17.647059%,39.215686%);fill-opacity:1;" d="M 49.621094 25.464844 C 50.21875 25.707031 51.179688 26.007812 52.441406 26.191406 C 53.699219 26.429688 54.71875 26.671875 55.5 26.914062 C 56.28125 27.15625 57 27.636719 57.539062 28.300781 C 58.078125 28.964844 58.378906 29.808594 58.378906 31.015625 C 58.378906 32.707031 57.78125 33.972656 56.519531 34.878906 C 55.320312 35.785156 53.699219 36.265625 51.660156 36.265625 C 49.859375 36.265625 48.359375 35.90625 47.21875 35.179688 L 47.21875 35.964844 L 44.699219 35.964844 L 44.699219 29.570312 L 47.21875 29.570312 C 47.21875 31.078125 47.578125 32.101562 48.300781 32.765625 C 49.019531 33.429688 50.039062 33.734375 51.359375 33.734375 C 52.441406 33.734375 53.28125 33.550781 53.820312 33.191406 C 54.421875 32.828125 54.660156 32.285156 54.660156 31.621094 C 54.660156 30.835938 54.300781 30.292969 53.640625 29.992188 C 52.980469 29.691406 51.960938 29.386719 50.578125 29.085938 C 49.378906 28.84375 48.421875 28.601562 47.640625 28.300781 C 46.921875 28.058594 46.261719 27.636719 45.71875 27.035156 C 45.179688 26.429688 44.941406 25.648438 44.941406 24.621094 C 44.941406 23.050781 45.539062 21.84375 46.738281 21 C 47.941406 20.15625 49.5 19.671875 51.359375 19.671875 C 52.859375 19.671875 54.179688 19.972656 55.199219 20.578125 L 55.199219 19.972656 L 57.71875 19.972656 L 57.71875 25.765625 L 55.199219 25.765625 C 55.199219 24.441406 54.898438 23.535156 54.300781 22.992188 C 53.699219 22.507812 52.859375 22.207031 51.78125 22.207031 C 50.761719 22.207031 49.980469 22.386719 49.441406 22.691406 C 48.898438 23.050781 48.601562 23.535156 48.601562 24.136719 C 48.71875 24.742188 49.019531 25.164062 49.621094 25.464844 Z M 49.621094 25.464844 "/>
<path style=" stroke:none;fill-rule:nonzero;fill:rgb(12.941176%,17.647059%,39.215686%);fill-opacity:1;" d="M 67.980469 22.449219 L 67.980469 31.199219 C 67.980469 32.042969 68.101562 32.648438 68.339844 33.070312 C 68.578125 33.492188 68.878906 33.671875 69.179688 33.671875 C 69.78125 33.671875 70.078125 33.128906 70.078125 32.101562 C 70.078125 31.742188 70.019531 31.320312 69.960938 30.835938 L 72.179688 30.835938 C 72.300781 31.621094 72.359375 32.285156 72.359375 32.828125 C 72.359375 34.035156 72.058594 34.878906 71.460938 35.421875 C 70.859375 35.964844 69.839844 36.207031 68.519531 36.207031 C 67.078125 36.207031 66 35.84375 65.21875 35.121094 C 64.441406 34.398438 64.078125 33.070312 64.078125 31.199219 L 64.078125 22.449219 L 60.78125 22.449219 L 60.78125 19.914062 L 64.078125 19.914062 L 64.078125 13.457031 C 65.761719 13.457031 67.019531 13.335938 67.980469 13.15625 L 67.980469 19.914062 L 72.421875 19.914062 L 72.421875 22.449219 Z M 67.980469 22.449219 "/>
<path style=" stroke:none;fill-rule:nonzero;fill:rgb(12.941176%,17.647059%,39.215686%);fill-opacity:1;" d="M 89.21875 20.335938 C 89.820312 20.820312 90.300781 21.421875 90.539062 22.148438 C 90.839844 22.871094 90.960938 23.535156 90.960938 24.199219 C 90.960938 25.042969 90.78125 25.707031 90.359375 26.128906 C 89.941406 26.613281 89.398438 26.851562 88.679688 26.851562 C 88.019531 26.851562 87.539062 26.671875 87.121094 26.25 C 86.699219 25.828125 86.519531 25.34375 86.519531 24.742188 C 86.519531 23.835938 86.941406 23.234375 87.71875 22.871094 C 87.359375 22.386719 86.878906 22.148438 86.160156 22.148438 C 85.5 22.148438 84.839844 22.386719 84.238281 22.871094 C 83.640625 23.351562 83.101562 24.078125 82.738281 25.042969 C 82.378906 25.949219 82.140625 27.035156 82.140625 28.242188 L 82.140625 33.371094 L 85.621094 33.371094 L 85.621094 35.90625 L 74.941406 35.90625 L 74.941406 33.371094 L 78.480469 33.371094 L 78.480469 22.507812 L 74.941406 22.507812 L 74.941406 19.914062 L 82.140625 19.914062 L 82.140625 22.929688 C 82.679688 21.84375 83.339844 21 84.121094 20.457031 C 84.898438 19.914062 85.859375 19.613281 86.878906 19.613281 C 87.839844 19.550781 88.621094 19.792969 89.21875 20.335938 Z M 89.21875 20.335938 "/>
<path style=" stroke:none;fill-rule:nonzero;fill:rgb(12.941176%,17.647059%,39.215686%);fill-opacity:1;" d="M 103.738281 33.308594 L 103.738281 35.84375 L 93.058594 35.84375 L 93.058594 33.308594 L 96.601562 33.308594 L 96.601562 22.449219 L 93.058594 22.449219 L 93.058594 19.914062 L 100.261719 19.914062 L 100.261719 33.371094 L 103.738281 33.371094 Z M 96.058594 16.535156 C 95.578125 15.992188 95.28125 15.328125 95.28125 14.484375 C 95.28125 13.636719 95.519531 12.972656 96.058594 12.429688 C 96.601562 11.949219 97.261719 11.648438 98.101562 11.648438 C 98.941406 11.648438 99.601562 11.886719 100.140625 12.429688 C 100.621094 12.914062 100.921875 13.636719 100.921875 14.484375 C 100.921875 15.328125 100.679688 16.050781 100.140625 16.535156 C 99.660156 17.078125 98.941406 17.320312 98.101562 17.320312 C 97.261719 17.320312 96.601562 17.078125 96.058594 16.535156 Z M 96.058594 16.535156 "/>
<path style=" stroke:none;fill-rule:nonzero;fill:rgb(12.941176%,17.647059%,39.215686%);fill-opacity:1;" d="M 110.941406 22.449219 L 110.941406 31.199219 C 110.941406 32.042969 111.058594 32.648438 111.300781 33.070312 C 111.539062 33.492188 111.839844 33.671875 112.140625 33.671875 C 112.738281 33.671875 113.039062 33.128906 113.039062 32.101562 C 113.039062 31.742188 112.980469 31.320312 112.921875 30.835938 L 115.140625 30.835938 C 115.261719 31.621094 115.320312 32.285156 115.320312 32.828125 C 115.320312 34.035156 115.019531 34.878906 114.421875 35.421875 C 113.820312 35.964844 112.800781 36.207031 111.480469 36.207031 C 110.039062 36.207031 108.960938 35.84375 108.179688 35.121094 C 107.398438 34.398438 107.039062 33.070312 107.039062 31.199219 L 107.039062 22.449219 L 103.738281 22.449219 L 103.738281 19.914062 L 107.039062 19.914062 L 107.039062 13.457031 C 108.71875 13.457031 109.980469 13.335938 110.941406 13.15625 L 110.941406 19.914062 L 115.378906 19.914062 L 115.378906 22.449219 Z M 110.941406 22.449219 "/>
<path style=" stroke:none;fill-rule:evenodd;fill:rgb(87.45098%,38.823529%,30.980392%);fill-opacity:1;" d="M 137.941406 29.992188 C 137.699219 30.835938 137.398438 31.679688 136.921875 32.464844 L 137.640625 33.191406 C 138 33.550781 138 34.09375 137.640625 34.398438 L 135.601562 36.449219 C 135.238281 36.808594 134.699219 36.808594 134.398438 36.449219 L 133.679688 35.722656 C 132.960938 36.148438 132.121094 36.507812 131.28125 36.75 L 131.28125 37.777344 C 131.28125 38.257812 130.921875 38.621094 130.441406 38.621094 L 127.558594 38.621094 C 127.078125 38.621094 126.71875 38.257812 126.71875 37.777344 L 126.71875 36.75 C 125.878906 36.507812 125.039062 36.207031 124.320312 35.722656 L 123.601562 36.449219 C 123.238281 36.808594 122.699219 36.808594 122.398438 36.449219 L 120.359375 34.398438 C 120 34.035156 120 33.492188 120.359375 33.191406 L 121.078125 32.464844 C 120.660156 31.679688 120.300781 30.898438 120.058594 29.992188 L 119.039062 29.992188 C 118.558594 29.992188 118.199219 29.628906 118.199219 29.148438 L 118.199219 26.25 C 118.199219 25.765625 118.558594 25.40625 119.039062 25.40625 L 120.058594 25.40625 C 120.300781 24.558594 120.601562 23.714844 121.078125 22.929688 L 120.359375 22.207031 C 120 21.84375 120 21.300781 120.359375 21 L 122.398438 18.949219 C 122.761719 18.585938 123.300781 18.585938 123.601562 18.949219 L 124.320312 19.671875 C 125.039062 19.25 125.878906 18.886719 126.71875 18.648438 L 126.71875 17.621094 C 126.71875 17.136719 127.078125 16.777344 127.558594 16.777344 L 130.441406 16.777344 C 130.921875 16.777344 131.28125 17.136719 131.28125 17.621094 L 131.28125 18.648438 C 132.121094 18.886719 132.960938 19.191406 133.679688 19.671875 L 134.398438 18.949219 C 134.761719 18.585938 135.300781 18.585938 135.601562 18.949219 L 137.640625 21 C 138 21.363281 138 21.90625 137.640625 22.207031 L 136.921875 22.929688 C 137.339844 23.714844 137.699219 24.5 137.941406 25.40625 L 138.960938 25.40625 C 139.441406 25.40625 139.800781 25.765625 139.800781 26.25 L 139.800781 29.148438 C 139.800781 29.628906 139.441406 29.992188 138.960938 29.992188 Z M 137.941406 29.992188 "/>
<path style=" stroke:none;fill-rule:evenodd;fill:rgb(76.078431%,23.921569%,17.254902%);fill-opacity:1;" d="M 135.601562 36.386719 L 137.640625 34.335938 C 138 33.972656 138 33.429688 137.640625 33.128906 L 136.921875 32.40625 C 137.339844 31.621094 137.699219 30.835938 137.941406 29.929688 L 138.960938 29.929688 C 139.441406 29.929688 139.800781 29.570312 139.800781 29.085938 L 139.800781 27.15625 C 138.601562 27.757812 137.28125 28.242188 135.898438 28.601562 C 135.421875 32.042969 132.539062 34.699219 129 34.699219 C 125.640625 34.699219 122.878906 32.34375 122.160156 29.207031 C 122.160156 29.148438 122.101562 29.027344 122.101562 28.964844 C 120.71875 28.664062 119.339844 28.242188 118.140625 27.757812 L 118.140625 29.148438 C 118.140625 29.628906 118.5 29.992188 118.980469 29.992188 L 120 29.992188 C 120.238281 30.835938 120.539062 31.679688 121.019531 32.464844 L 120.300781 33.191406 C 119.941406 33.550781 119.941406 34.09375 120.300781 34.398438 L 122.339844 36.449219 C 122.699219 36.808594 123.238281 36.808594 123.539062 36.449219 L 124.261719 35.722656 C 124.980469 36.148438 125.820312 36.507812 126.660156 36.75 L 126.660156 37.777344 C 126.660156 38.257812 127.019531 38.621094 127.5 38.621094 L 130.378906 38.621094 C 130.859375 38.621094 131.21875 38.257812 131.21875 37.777344 L 131.21875 36.75 C 132.058594 36.507812 132.898438 36.207031 133.621094 35.722656 L 134.339844 36.449219 C 134.761719 36.75 135.300781 36.75 135.601562 36.386719 Z M 135.601562 36.386719 "/>
<path style=" stroke:none;fill-rule:evenodd;fill:rgb(100%,100%,100%);fill-opacity:1;" d="M 129 34.699219 C 132.839844 34.699219 136.019531 31.558594 136.019531 27.699219 C 136.019531 23.835938 132.898438 20.699219 129 20.699219 C 125.160156 20.699219 121.980469 23.835938 121.980469 27.699219 C 121.980469 31.558594 125.101562 34.699219 129 34.699219 Z M 129 34.699219 "/>
<path style=" stroke:none;fill-rule:evenodd;fill:rgb(87.45098%,38.823529%,30.980392%);fill-opacity:1;" d="M 130.5 31.199219 C 132.058594 30.65625 133.140625 29.148438 133.140625 27.398438 C 133.140625 26.007812 132.421875 24.800781 131.398438 24.078125 C 130.261719 23.292969 130.5 24.5 130.5 24.742188 L 130.5 27.15625 C 130.5 28 129.839844 28.722656 129 28.785156 C 128.160156 28.722656 127.5 28 127.5 27.15625 L 127.5 24.742188 C 127.5 24.558594 127.738281 23.351562 126.601562 24.078125 C 125.519531 24.800781 124.859375 26.007812 124.859375 27.398438 C 124.859375 29.148438 125.941406 30.59375 127.5 31.199219 L 127.5 34.515625 C 127.980469 34.636719 128.519531 34.699219 129 34.699219 C 129.539062 34.699219 130.019531 34.636719 130.5 34.515625 Z M 130.5 31.199219 "/>
<path style=" stroke:none;fill-rule:evenodd;fill:rgb(76.078431%,23.921569%,17.254902%);fill-opacity:1;" d="M 130.5 34.515625 L 130.5 31.199219 C 132.058594 30.65625 133.140625 29.148438 133.140625 27.398438 C 133.140625 26.007812 132.421875 24.800781 131.398438 24.078125 C 131.160156 23.898438 130.980469 23.835938 130.859375 23.835938 C 131.699219 24.558594 132.179688 25.648438 132.179688 26.851562 C 132.179688 28.542969 131.160156 29.929688 129.71875 30.59375 C 129.480469 30.714844 129.539062 30.957031 129.539062 31.257812 L 129.539062 34.757812 C 129.839844 34.636719 130.140625 34.578125 130.5 34.515625 Z M 130.5 34.515625 "/>
</g>
</svg>
