<?xml version="1.0" encoding="UTF-8"?>
<svg xmlns="http://www.w3.org/2000/svg" xmlns:xlink="http://www.w3.org/1999/xlink" width="600pt" height="600pt" viewBox="0 0 600 600" version="1.1">
<defs>
<linearGradient id="linear0" gradientUnits="userSpaceOnUse" x1="174.2187" y1="34.4537" x2="174.1609" y2="30.9858" gradientTransform="matrix(2.4,0,0,2.4,0,0)">
<stop offset="0.00000068" style="stop-color:rgb(76.078431%,23.921569%,17.254902%);stop-opacity:1;"/>
<stop offset="1" style="stop-color:rgb(87.45098%,38.823529%,30.980392%);stop-opacity:1;"/>
</linearGradient>
<filter id="alpha" filterUnits="objectBoundingBox" x="0%" y="0%" width="100%" height="100%">
  <feColorMatrix type="matrix" in="SourceGraphic" values="0 0 0 0 1 0 0 0 0 1 0 0 0 0 1 0 0 0 1 0"/>
</filter>
<mask id="mask0">
  <g filter="url(#alpha)">
<rect x="0" y="0" width="600" height="600" style="fill:rgb(0%,0%,0%);fill-opacity:0.4;stroke:none;"/>
  </g>
</mask>
<radialGradient id="radial0" gradientUnits="userSpaceOnUse" cx="-792.693" cy="998.3918" fx="-792.693" fy="998.3918" r="15.0305" gradientTransform="matrix(-5.8596,0,0,0.10584,-4197.86064,23.73024)">
<stop offset="0" style="stop-color:rgb(100%,100%,100%);stop-opacity:1;"/>
<stop offset="0.1263" style="stop-color:rgb(90.196078%,90.196078%,90.196078%);stop-opacity:1;"/>
<stop offset="0.3961" style="stop-color:rgb(64.313725%,64.313725%,64.313725%);stop-opacity:1;"/>
<stop offset="0.7845" style="stop-color:rgb(23.529412%,23.529412%,23.529412%);stop-opacity:1;"/>
<stop offset="1" style="stop-color:rgb(0%,0%,0%);stop-opacity:1;"/>
</radialGradient>
<clipPath id="clip1">
  <rect x="0" y="0" width="600" height="600"/>
</clipPath>
<g id="surface5" clip-path="url(#clip1)">
<path style=" stroke:none;fill-rule:nonzero;fill:url(#radial0);" d="M 359.039062 129.359375 C 359.039062 130.320312 398.398438 131.039062 447.121094 131.039062 C 495.839844 131.039062 535.199219 130.320312 535.199219 129.359375 C 535.199219 128.398438 495.839844 127.679688 447.121094 127.679688 C 398.398438 127.921875 359.039062 128.640625 359.039062 129.359375 Z M 359.039062 129.359375 "/>
</g>
<clipPath id="clip2">
  <path d="M 348 73 L 488 73 L 488 84 L 348 84 Z M 348 73 "/>
</clipPath>
<clipPath id="clip3">
  <path d="M 487.441406 83.039062 L 348.71875 83.039062 L 348.71875 79.441406 C 348.71875 76.078125 351.359375 73.199219 354.960938 73.199219 L 481.441406 73.199219 C 484.800781 73.199219 487.679688 75.839844 487.679688 79.441406 L 487.679688 83.039062 Z M 487.441406 83.039062 "/>
</clipPath>
<mask id="mask1">
  <g filter="url(#alpha)">
<rect x="0" y="0" width="600" height="600" style="fill:rgb(0%,0%,0%);fill-opacity:0.4;stroke:none;"/>
  </g>
</mask>
<radialGradient id="radial1" gradientUnits="userSpaceOnUse" cx="-788.9367" cy="471.4018" fx="-788.9367" fy="471.4018" r="15.0305" gradientTransform="matrix(-5.8596,0,0,0.10584,-4197.86064,23.73024)">
<stop offset="0" style="stop-color:rgb(100%,100%,100%);stop-opacity:1;"/>
<stop offset="0.1263" style="stop-color:rgb(90.196078%,90.196078%,90.196078%);stop-opacity:1;"/>
<stop offset="0.3961" style="stop-color:rgb(64.313725%,64.313725%,64.313725%);stop-opacity:1;"/>
<stop offset="0.7845" style="stop-color:rgb(23.529412%,23.529412%,23.529412%);stop-opacity:1;"/>
<stop offset="1" style="stop-color:rgb(0%,0%,0%);stop-opacity:1;"/>
</radialGradient>
<clipPath id="clip4">
  <rect x="0" y="0" width="600" height="600"/>
</clipPath>
<g id="surface8" clip-path="url(#clip4)">
<path style=" stroke:none;fill-rule:nonzero;fill:url(#radial1);" d="M 336.960938 73.679688 C 336.960938 74.640625 376.320312 75.359375 425.039062 75.359375 C 473.761719 75.359375 513.121094 74.640625 513.121094 73.679688 C 513.121094 72.71875 473.761719 72 425.039062 72 C 376.320312 72 336.960938 72.71875 336.960938 73.679688 Z M 336.960938 73.679688 "/>
</g>
<mask id="mask2">
  <g filter="url(#alpha)">
<rect x="0" y="0" width="600" height="600" style="fill:rgb(0%,0%,0%);fill-opacity:0.4;stroke:none;"/>
  </g>
</mask>
<radialGradient id="radial2" gradientUnits="userSpaceOnUse" cx="-789.7621" cy="82.6385" fx="-789.7621" fy="82.6385" r="15.0342" gradientTransform="matrix(-4.06368,0,0,0.04896,-2785.1088,79.1028)">
<stop offset="0" style="stop-color:rgb(100%,100%,100%);stop-opacity:1;"/>
<stop offset="0.1263" style="stop-color:rgb(90.196078%,90.196078%,90.196078%);stop-opacity:1;"/>
<stop offset="0.3961" style="stop-color:rgb(64.313725%,64.313725%,64.313725%);stop-opacity:1;"/>
<stop offset="0.7845" style="stop-color:rgb(23.529412%,23.529412%,23.529412%);stop-opacity:1;"/>
<stop offset="1" style="stop-color:rgb(0%,0%,0%);stop-opacity:1;"/>
</radialGradient>
<clipPath id="clip5">
  <rect x="0" y="0" width="600" height="600"/>
</clipPath>
<g id="surface11" clip-path="url(#clip5)">
<path style=" stroke:none;fill-rule:nonzero;fill:url(#radial2);" d="M 363.121094 83.039062 C 363.121094 83.519531 390.480469 83.761719 424.320312 83.761719 C 458.160156 83.761719 485.519531 83.519531 485.519531 83.039062 C 485.519531 82.558594 458.160156 82.320312 424.320312 82.320312 C 390.480469 82.320312 363.121094 82.800781 363.121094 83.039062 Z M 363.121094 83.039062 "/>
</g>
</defs>
<g id="surface1">
<path style=" stroke:none;fill-rule:nonzero;fill:rgb(99.607843%,38.039216%,30.588235%);fill-opacity:1;" d="M 111.601562 484.078125 L 96 484.078125 L 61.199219 431.28125 L 61.199219 484.078125 L 45.601562 484.078125 L 45.601562 406.320312 L 61.199219 406.320312 L 96 459.601562 L 96 406.320312 L 111.601562 406.320312 Z M 111.601562 484.078125 "/>
<path style=" stroke:none;fill-rule:nonzero;fill:rgb(99.607843%,38.039216%,30.588235%);fill-opacity:1;" d="M 182.640625 456.480469 L 137.761719 456.480469 C 138 462 139.441406 465.839844 142.078125 468.480469 C 144.71875 471.121094 148.078125 472.320312 152.160156 472.320312 C 155.761719 472.320312 158.640625 471.359375 161.039062 469.679688 C 163.441406 468 164.878906 465.601562 165.601562 462.480469 L 182.398438 462.480469 C 181.679688 466.800781 179.761719 470.640625 177.121094 474 C 174.480469 477.359375 171.121094 480 167.039062 481.921875 C 162.960938 483.839844 158.398438 484.800781 153.121094 484.800781 C 147.121094 484.800781 141.839844 483.601562 137.28125 480.960938 C 132.71875 478.320312 129.121094 474.71875 126.480469 470.160156 C 123.839844 465.359375 122.640625 459.839844 122.640625 453.601562 C 122.640625 447.121094 123.839844 441.601562 126.480469 437.039062 C 129.121094 432.238281 132.71875 428.640625 137.28125 426.238281 C 141.839844 423.839844 147.121094 422.398438 153.121094 422.398438 C 159.121094 422.398438 164.398438 423.601562 168.960938 426.238281 C 173.519531 428.640625 176.878906 432.238281 179.519531 436.558594 C 181.921875 440.878906 183.121094 445.921875 183.121094 451.441406 C 183.121094 452.640625 182.878906 454.558594 182.640625 456.480469 Z M 163.679688 438.238281 C 160.800781 435.601562 157.441406 434.398438 153.359375 434.398438 C 149.28125 434.398438 145.679688 435.601562 142.800781 438.238281 C 139.921875 440.878906 138.480469 444.480469 138 449.519531 L 167.519531 449.519531 C 167.761719 444.71875 166.320312 440.878906 163.679688 438.238281 Z M 163.679688 438.238281 "/>
<path style=" stroke:none;fill-rule:nonzero;fill:rgb(99.607843%,38.039216%,30.588235%);fill-opacity:1;" d="M 231.121094 425.761719 C 234.71875 428.160156 237.359375 431.519531 239.039062 435.601562 L 239.039062 422.878906 L 254.398438 422.878906 L 254.398438 484.078125 C 254.398438 489.839844 253.199219 494.878906 251.039062 499.199219 C 248.878906 503.761719 245.519531 507.359375 240.960938 509.761719 C 236.640625 512.398438 231.121094 513.601562 224.878906 513.601562 C 216 513.601562 209.039062 511.441406 203.519531 507.359375 C 198 503.28125 194.878906 497.519531 193.679688 490.320312 L 209.039062 490.320312 C 210 493.441406 211.679688 495.839844 214.078125 497.519531 C 216.71875 499.199219 219.839844 500.160156 223.921875 500.160156 C 228.480469 500.160156 232.078125 498.71875 234.960938 496.078125 C 237.839844 493.441406 239.039062 489.359375 239.039062 483.839844 L 239.039062 470.878906 C 237.601562 474.960938 234.960938 478.320312 231.121094 480.71875 C 227.519531 483.121094 222.960938 484.320312 217.921875 484.320312 C 212.878906 484.320312 208.078125 483.121094 204 480.480469 C 199.921875 478.078125 196.800781 474.480469 194.398438 469.679688 C 192 464.878906 191.039062 459.359375 191.039062 453.121094 C 191.039062 446.640625 192.238281 441.121094 194.398438 436.558594 C 196.800781 431.761719 199.921875 428.160156 204 425.761719 C 208.078125 423.359375 212.640625 421.921875 217.921875 421.921875 C 223.199219 422.160156 227.519531 423.359375 231.121094 425.761719 Z M 211.199219 440.398438 C 208.320312 443.519531 206.878906 447.839844 206.878906 453.359375 C 206.878906 458.878906 208.320312 463.199219 211.199219 466.320312 C 214.078125 469.441406 217.921875 470.878906 222.960938 470.878906 C 227.761719 470.878906 231.601562 469.199219 234.480469 466.078125 C 237.359375 462.960938 239.039062 458.640625 239.039062 453.359375 C 239.039062 447.839844 237.601562 443.519531 234.480469 440.398438 C 231.359375 437.28125 227.519531 435.601562 222.960938 435.601562 C 217.921875 435.839844 214.078125 437.28125 211.199219 440.398438 Z M 211.199219 440.398438 "/>
<path style=" stroke:none;fill-rule:nonzero;fill:rgb(99.607843%,38.039216%,30.588235%);fill-opacity:1;" d="M 312.71875 426 C 317.519531 428.398438 321.121094 432 324 436.800781 C 326.640625 441.601562 328.078125 447.121094 328.078125 453.359375 C 328.078125 459.839844 326.640625 465.359375 324 469.921875 C 321.359375 474.71875 317.519531 478.320312 312.71875 480.71875 C 307.921875 483.359375 302.640625 484.558594 296.640625 484.558594 C 290.640625 484.558594 285.359375 483.359375 280.558594 480.71875 C 275.761719 478.078125 272.160156 474.480469 269.28125 469.921875 C 266.640625 465.121094 265.199219 459.601562 265.199219 453.359375 C 265.199219 446.878906 266.640625 441.359375 269.28125 436.800781 C 271.921875 432 275.761719 428.398438 280.558594 426 C 285.359375 423.601562 290.640625 422.160156 296.640625 422.160156 C 302.640625 422.160156 307.921875 423.601562 312.71875 426 Z M 285.601562 440.160156 C 282.480469 443.28125 281.039062 447.601562 281.039062 453.359375 C 281.039062 459.121094 282.480469 463.679688 285.601562 466.558594 C 288.71875 469.679688 292.320312 471.121094 296.640625 471.121094 C 300.960938 471.121094 304.558594 469.679688 307.679688 466.558594 C 310.800781 463.441406 312.238281 459.121094 312.238281 453.359375 C 312.238281 447.601562 310.800781 443.039062 307.679688 440.160156 C 304.558594 437.039062 300.960938 435.601562 296.640625 435.601562 C 292.320312 435.601562 288.71875 437.28125 285.601562 440.160156 Z M 285.601562 440.160156 "/>
<path style=" stroke:none;fill-rule:nonzero;fill:rgb(99.607843%,38.039216%,30.588235%);fill-opacity:1;" d="M 385.921875 428.640625 C 391.199219 432.960938 394.558594 438.71875 395.761719 445.921875 L 379.441406 445.921875 C 378.71875 442.800781 377.28125 440.160156 374.878906 438.238281 C 372.480469 436.320312 369.601562 435.359375 366 435.359375 C 361.921875 435.359375 358.558594 436.800781 355.679688 439.921875 C 353.039062 443.039062 351.601562 447.359375 351.601562 453.359375 C 351.601562 459.359375 353.039062 463.679688 355.679688 466.800781 C 358.320312 469.921875 361.921875 471.359375 366 471.359375 C 369.601562 471.359375 372.480469 470.398438 374.878906 468.480469 C 377.28125 466.558594 378.71875 464.160156 379.441406 460.800781 L 395.761719 460.800781 C 394.558594 468.238281 391.199219 474 385.921875 478.078125 C 380.640625 482.398438 374.160156 484.558594 366.238281 484.558594 C 360.238281 484.558594 354.960938 483.359375 350.398438 480.71875 C 345.839844 478.078125 342.238281 474.480469 339.601562 469.921875 C 336.960938 465.121094 335.761719 459.601562 335.761719 453.359375 C 335.761719 446.878906 336.960938 441.359375 339.601562 436.800781 C 342.238281 432 345.839844 428.398438 350.398438 426 C 354.960938 423.601562 360.238281 422.160156 366.238281 422.160156 C 374.160156 422.160156 380.640625 424.320312 385.921875 428.640625 Z M 385.921875 428.640625 "/>
<path style=" stroke:none;fill-rule:nonzero;fill:rgb(99.607843%,38.039216%,30.588235%);fill-opacity:1;" d="M 407.519531 399.359375 C 409.199219 397.679688 411.601562 396.960938 414.480469 396.960938 C 417.359375 396.960938 419.761719 397.679688 421.441406 399.359375 C 423.121094 401.039062 424.078125 402.960938 424.078125 405.359375 C 424.078125 407.761719 423.121094 409.679688 421.441406 411.359375 C 419.761719 413.039062 417.359375 413.761719 414.480469 413.761719 C 411.601562 413.761719 409.199219 413.039062 407.519531 411.359375 C 405.839844 409.679688 404.878906 407.761719 404.878906 405.359375 C 404.878906 402.960938 405.839844 401.039062 407.519531 399.359375 Z M 422.160156 423.121094 L 422.160156 484.078125 L 406.558594 484.078125 L 406.558594 423.121094 Z M 422.160156 423.121094 "/>
<path style=" stroke:none;fill-rule:nonzero;fill:rgb(99.607843%,38.039216%,30.588235%);fill-opacity:1;" d="M 480.480469 426 C 485.28125 428.398438 488.878906 432 491.761719 436.800781 C 494.398438 441.601562 495.839844 447.121094 495.839844 453.359375 C 495.839844 459.839844 494.398438 465.359375 491.761719 469.921875 C 489.121094 474.71875 485.28125 478.320312 480.480469 480.71875 C 475.679688 483.359375 470.398438 484.558594 464.398438 484.558594 C 458.398438 484.558594 453.121094 483.359375 448.320312 480.71875 C 443.519531 478.078125 439.921875 474.480469 437.039062 469.921875 C 434.398438 465.121094 432.960938 459.601562 432.960938 453.359375 C 432.960938 446.878906 434.398438 441.359375 437.039062 436.800781 C 439.679688 432 443.519531 428.398438 448.320312 426 C 453.121094 423.601562 458.398438 422.160156 464.398438 422.160156 C 470.398438 422.160156 475.679688 423.601562 480.480469 426 Z M 453.601562 440.160156 C 450.480469 443.28125 449.039062 447.601562 449.039062 453.359375 C 449.039062 459.121094 450.480469 463.679688 453.601562 466.558594 C 456.71875 469.679688 460.320312 471.121094 464.640625 471.121094 C 468.960938 471.121094 472.558594 469.679688 475.679688 466.558594 C 478.800781 463.441406 480.238281 459.121094 480.238281 453.359375 C 480.238281 447.601562 478.800781 443.039062 475.679688 440.160156 C 472.558594 437.039062 468.960938 435.601562 464.640625 435.601562 C 460.078125 435.601562 456.480469 437.28125 453.601562 440.160156 Z M 453.601562 440.160156 "/>
<path style=" stroke:none;fill-rule:nonzero;fill:rgb(99.607843%,38.039216%,30.588235%);fill-opacity:1;" d="M 545.519531 427.921875 C 550.078125 431.761719 552.71875 436.558594 553.921875 442.800781 L 539.28125 442.800781 C 538.800781 439.921875 537.359375 437.519531 535.199219 435.839844 C 533.039062 434.160156 530.398438 433.199219 527.28125 433.199219 C 524.640625 433.199219 522.480469 433.921875 521.039062 435.121094 C 519.601562 436.320312 518.878906 438 518.878906 440.160156 C 518.878906 441.839844 519.359375 443.28125 520.558594 444.238281 C 521.761719 445.199219 523.199219 446.160156 524.878906 446.640625 C 526.558594 447.121094 529.199219 447.839844 532.558594 448.800781 C 537.121094 449.761719 540.960938 450.960938 543.839844 452.160156 C 546.71875 453.359375 549.121094 455.039062 551.28125 457.441406 C 553.441406 459.839844 554.398438 463.199219 554.398438 467.28125 C 554.398438 472.558594 552.480469 476.640625 548.398438 480 C 544.320312 483.121094 538.800781 484.800781 531.839844 484.800781 C 523.921875 484.800781 517.679688 483.121094 512.878906 479.519531 C 508.078125 475.921875 505.199219 470.878906 504.238281 464.398438 L 519.121094 464.398438 C 519.601562 467.519531 520.800781 469.679688 522.960938 471.601562 C 525.121094 473.519531 528.238281 474.238281 531.839844 474.238281 C 534.480469 474.238281 536.398438 473.519531 537.839844 472.320312 C 539.28125 471.121094 540 469.441406 540 467.28125 C 540 465.601562 539.28125 464.160156 538.078125 462.960938 C 536.878906 461.761719 535.441406 461.039062 533.519531 460.320312 C 531.839844 459.839844 529.199219 459.121094 525.839844 458.160156 C 521.28125 457.199219 517.679688 456 514.800781 455.039062 C 511.921875 454.078125 509.519531 452.160156 507.601562 450 C 505.679688 447.601562 504.480469 444.480469 504.480469 440.398438 C 504.480469 435.121094 506.398438 430.800781 510.480469 427.441406 C 514.558594 424.078125 520.078125 422.398438 527.28125 422.398438 C 535.199219 422.160156 541.199219 424.078125 545.519531 427.921875 Z M 545.519531 427.921875 "/>
<path style="fill:none;stroke-width:1;stroke-linecap:butt;stroke-linejoin:miter;stroke:rgb(76.078431%,23.921569%,17.254902%);stroke-opacity:1;stroke-miterlimit:10;" d="M 223.699544 150.299479 L 25.400391 150.299479 C 20.600586 150.299479 16.599935 146.39974 16.599935 141.500651 L 16.599935 131.39974 C 16.599935 126.599935 20.499674 122.599284 25.400391 122.599284 L 223.800456 122.599284 C 228.60026 122.599284 232.599284 126.500651 232.599284 131.39974 L 232.599284 141.500651 C 232.5 146.39974 228.60026 150.299479 223.699544 150.299479 Z M 223.699544 150.299479 " transform="matrix(2.4,0,0,2.4,0,0)"/>
<path style=" stroke:none;fill-rule:nonzero;fill:rgb(76.078431%,23.921569%,17.254902%);fill-opacity:1;" d="M 91.921875 336.71875 C 92.160156 336.71875 92.398438 336.71875 92.640625 336.71875 C 92.878906 336.71875 93.121094 336.960938 93.359375 337.199219 L 96.960938 340.800781 C 95.519531 342.71875 93.601562 344.398438 91.199219 345.359375 C 88.800781 346.320312 86.160156 346.800781 83.039062 346.800781 C 80.160156 346.800781 77.519531 346.320312 75.121094 345.359375 C 72.71875 344.398438 70.800781 342.960938 69.359375 341.28125 C 67.679688 339.601562 66.480469 337.441406 65.761719 335.039062 C 64.800781 332.640625 64.558594 330 64.558594 327.359375 C 64.558594 324.480469 65.039062 321.839844 66 319.441406 C 66.960938 317.039062 68.398438 314.878906 70.078125 313.199219 C 71.761719 311.519531 73.921875 310.078125 76.320312 309.121094 C 78.71875 308.160156 81.359375 307.679688 84.480469 307.679688 C 85.921875 307.679688 87.359375 307.921875 88.558594 308.160156 C 89.761719 308.398438 90.960938 308.878906 92.160156 309.121094 C 93.359375 309.601562 94.320312 310.078125 95.28125 310.800781 C 96.238281 311.519531 96.960938 312 97.679688 312.960938 L 94.800781 317.039062 C 94.558594 317.28125 94.320312 317.519531 94.078125 317.761719 C 93.839844 318 93.359375 318 92.878906 318 C 92.640625 318 92.160156 318 91.921875 317.761719 C 91.679688 317.519531 91.441406 317.519531 90.960938 317.28125 C 90.71875 317.039062 90.238281 316.800781 90 316.558594 C 89.519531 316.320312 89.28125 316.078125 88.558594 315.839844 C 88.078125 315.601562 87.359375 315.359375 86.640625 315.359375 C 85.921875 315.121094 85.199219 315.121094 84.238281 315.121094 C 82.558594 315.121094 81.121094 315.359375 79.921875 316.078125 C 78.480469 316.558594 77.519531 317.519531 76.558594 318.480469 C 75.601562 319.441406 74.878906 320.878906 74.398438 322.320312 C 73.921875 323.761719 73.679688 325.441406 73.679688 327.359375 C 73.679688 329.28125 73.921875 330.960938 74.398438 332.640625 C 74.878906 334.320312 75.601562 335.519531 76.558594 336.480469 C 77.519531 337.441406 78.480469 338.398438 79.679688 338.878906 C 80.878906 339.359375 82.320312 339.601562 83.519531 339.601562 C 84.238281 339.601562 84.960938 339.601562 85.679688 339.601562 C 86.398438 339.601562 86.878906 339.359375 87.601562 339.121094 C 88.078125 338.878906 88.800781 338.640625 89.28125 338.398438 C 89.761719 338.160156 90.238281 337.679688 90.960938 337.199219 C 91.199219 336.960938 91.441406 336.960938 91.679688 336.71875 C 91.441406 336.960938 91.679688 336.71875 91.921875 336.71875 Z M 91.921875 336.71875 "/>
<path style=" stroke:none;fill-rule:nonzero;fill:rgb(76.078431%,23.921569%,17.254902%);fill-opacity:1;" d="M 159.359375 327.601562 C 159.359375 330.480469 158.878906 332.878906 157.921875 335.28125 C 156.960938 337.679688 155.519531 339.839844 153.839844 341.519531 C 152.160156 343.199219 150 344.640625 147.601562 345.601562 C 145.199219 346.558594 142.558594 347.039062 139.441406 347.039062 C 136.558594 347.039062 133.679688 346.558594 131.28125 345.601562 C 128.878906 344.640625 126.71875 343.199219 125.039062 341.519531 C 123.359375 339.839844 121.921875 337.679688 120.960938 335.28125 C 120 332.878906 119.519531 330.238281 119.519531 327.601562 C 119.519531 324.71875 120 322.320312 120.960938 319.921875 C 121.921875 317.519531 123.359375 315.601562 125.039062 313.679688 C 126.71875 312 128.878906 310.558594 131.28125 309.601562 C 133.679688 308.640625 136.320312 308.160156 139.441406 308.160156 C 142.320312 308.160156 145.199219 308.640625 147.601562 309.601562 C 150 310.558594 152.160156 312 153.839844 313.679688 C 155.519531 315.359375 156.960938 317.519531 157.921875 319.921875 C 158.878906 322.320312 159.359375 324.71875 159.359375 327.601562 Z M 150.480469 327.601562 C 150.480469 325.679688 150.238281 324 149.761719 322.558594 C 149.28125 321.121094 148.558594 319.679688 147.601562 318.71875 C 146.640625 317.761719 145.441406 316.800781 144.238281 316.320312 C 142.800781 315.839844 141.359375 315.601562 139.679688 315.601562 C 138 315.601562 136.558594 315.839844 135.121094 316.320312 C 133.679688 316.800781 132.71875 317.761719 131.761719 318.71875 C 130.800781 319.679688 130.078125 321.121094 129.601562 322.558594 C 129.121094 324 128.878906 325.679688 128.878906 327.601562 C 128.878906 329.519531 129.121094 331.199219 129.601562 332.640625 C 130.078125 334.078125 130.800781 335.519531 131.761719 336.480469 C 132.71875 337.441406 133.921875 338.398438 135.121094 338.878906 C 136.558594 339.359375 138 339.601562 139.679688 339.601562 C 141.359375 339.601562 142.800781 339.359375 144.238281 338.878906 C 145.679688 338.398438 146.640625 337.441406 147.601562 336.480469 C 148.558594 335.519531 149.28125 334.078125 149.761719 332.640625 C 150.238281 331.199219 150.480469 329.519531 150.480469 327.601562 Z M 150.480469 327.601562 "/>
<path style=" stroke:none;fill-rule:nonzero;fill:rgb(76.078431%,23.921569%,17.254902%);fill-opacity:1;" d="M 205.199219 331.199219 C 205.441406 331.921875 205.921875 332.640625 206.160156 333.359375 C 206.398438 332.640625 206.878906 331.921875 207.121094 331.199219 C 207.359375 330.480469 207.839844 329.761719 208.078125 329.039062 L 217.921875 309.839844 C 218.160156 309.601562 218.160156 309.359375 218.398438 309.121094 C 218.640625 308.878906 218.878906 308.878906 219.121094 308.640625 C 219.359375 308.640625 219.601562 308.398438 219.839844 308.398438 C 220.078125 308.398438 220.558594 308.398438 220.800781 308.398438 L 227.519531 308.398438 L 227.519531 346.558594 L 219.601562 346.558594 L 219.601562 324.480469 C 219.601562 323.519531 219.601562 322.320312 219.839844 321.121094 L 209.761719 340.800781 C 209.519531 341.519531 209.039062 341.761719 208.558594 342.238281 C 208.078125 342.480469 207.359375 342.71875 206.640625 342.71875 L 205.441406 342.71875 C 204.71875 342.71875 204.238281 342.480469 203.519531 342.238281 C 203.039062 342 202.558594 341.519531 202.320312 340.800781 L 192.238281 321.121094 C 192.238281 321.839844 192.480469 322.320312 192.480469 323.039062 C 192.480469 323.761719 192.480469 324.238281 192.480469 324.71875 L 192.480469 346.800781 L 184.558594 346.800781 L 184.558594 308.640625 L 191.28125 308.640625 C 191.761719 308.640625 192 308.640625 192.238281 308.640625 C 192.480469 308.640625 192.71875 308.640625 192.960938 308.878906 C 193.199219 308.878906 193.441406 309.121094 193.679688 309.359375 C 193.921875 309.601562 194.160156 309.839844 194.160156 310.078125 L 204 329.519531 C 204.480469 330 204.960938 330.480469 205.199219 331.199219 Z M 205.199219 331.199219 "/>
<path style=" stroke:none;fill-rule:nonzero;fill:rgb(76.078431%,23.921569%,17.254902%);fill-opacity:1;" d="M 279.601562 308.398438 L 279.601562 315.121094 L 264 315.121094 L 264 324 L 276 324 L 276 330.480469 L 264 330.480469 L 264 339.601562 L 279.601562 339.601562 L 279.601562 346.320312 L 255.121094 346.320312 L 255.121094 308.160156 L 279.601562 308.160156 Z M 279.601562 308.398438 "/>
<path style=" stroke:none;fill-rule:nonzero;fill:rgb(76.078431%,23.921569%,17.254902%);fill-opacity:1;" d="M 314.398438 332.640625 L 314.398438 346.800781 L 305.519531 346.800781 L 305.519531 308.640625 L 318 308.640625 C 320.878906 308.640625 323.039062 308.878906 324.960938 309.601562 C 326.878906 310.078125 328.558594 311.039062 329.761719 312 C 330.960938 312.960938 331.921875 314.160156 332.398438 315.601562 C 332.878906 317.039062 333.121094 318.480469 333.121094 320.160156 C 333.121094 321.359375 332.878906 322.558594 332.640625 323.761719 C 332.398438 324.960938 331.921875 325.921875 331.199219 326.878906 C 330.480469 327.839844 329.761719 328.558594 328.800781 329.28125 C 327.839844 330 326.640625 330.71875 325.441406 331.199219 C 325.921875 331.441406 326.640625 331.921875 327.121094 332.398438 C 327.601562 332.878906 328.078125 333.359375 328.558594 334.078125 L 336.71875 347.28125 L 328.800781 347.28125 C 327.359375 347.28125 326.160156 346.800781 325.679688 345.601562 L 319.441406 334.558594 C 319.199219 334.078125 318.71875 333.839844 318.480469 333.601562 C 318 333.359375 317.519531 333.359375 316.800781 333.359375 L 314.398438 333.359375 Z M 314.398438 326.398438 L 318 326.398438 C 319.199219 326.398438 320.160156 326.160156 321.121094 325.921875 C 322.078125 325.679688 322.558594 325.199219 323.28125 324.71875 C 323.761719 324.238281 324.238281 323.519531 324.480469 322.800781 C 324.71875 322.078125 324.960938 321.359375 324.960938 320.398438 C 324.960938 318.71875 324.480469 317.519531 323.28125 316.558594 C 322.078125 315.601562 320.398438 315.121094 318.238281 315.121094 L 314.398438 315.121094 Z M 314.398438 326.398438 "/>
<path style=" stroke:none;fill-rule:nonzero;fill:rgb(76.078431%,23.921569%,17.254902%);fill-opacity:1;" d="M 385.679688 336.71875 C 385.921875 336.71875 386.160156 336.71875 386.398438 336.71875 C 386.640625 336.71875 386.878906 336.960938 387.121094 337.199219 L 390.71875 340.800781 C 389.28125 342.71875 387.359375 344.398438 384.960938 345.359375 C 382.558594 346.320312 379.921875 346.800781 376.800781 346.800781 C 373.921875 346.800781 371.28125 346.320312 369.121094 345.359375 C 366.71875 344.398438 364.800781 342.960938 363.359375 341.28125 C 361.679688 339.601562 360.480469 337.441406 359.761719 335.039062 C 358.800781 332.640625 358.558594 330 358.558594 327.359375 C 358.558594 324.480469 359.039062 321.839844 360 319.441406 C 360.960938 317.039062 362.398438 314.878906 364.078125 313.199219 C 365.761719 311.519531 367.921875 310.078125 370.320312 309.121094 C 372.71875 308.160156 375.359375 307.679688 378.480469 307.679688 C 379.921875 307.679688 381.359375 307.921875 382.558594 308.160156 C 383.761719 308.398438 384.960938 308.878906 386.160156 309.121094 C 387.359375 309.601562 388.320312 310.078125 389.28125 310.800781 C 390.238281 311.519531 390.960938 312 391.679688 312.960938 L 388.800781 317.039062 C 388.558594 317.28125 388.320312 317.519531 388.078125 317.761719 C 387.839844 318 387.359375 318 386.878906 318 C 386.640625 318 386.160156 318 385.921875 317.761719 C 385.679688 317.519531 385.441406 317.519531 384.960938 317.28125 C 384.71875 317.039062 384.238281 316.800781 384 316.558594 C 383.519531 316.320312 383.28125 316.078125 382.558594 315.839844 C 382.078125 315.601562 381.359375 315.359375 380.640625 315.359375 C 379.921875 315.121094 379.199219 315.121094 378.238281 315.121094 C 376.558594 315.121094 375.121094 315.359375 373.921875 316.078125 C 372.480469 316.558594 371.519531 317.519531 370.558594 318.480469 C 369.601562 319.441406 368.878906 320.878906 368.398438 322.320312 C 367.921875 323.761719 367.679688 325.441406 367.679688 327.359375 C 367.679688 329.28125 367.921875 330.960938 368.398438 332.640625 C 368.878906 334.078125 369.601562 335.519531 370.558594 336.480469 C 371.519531 337.441406 372.480469 338.398438 373.679688 338.878906 C 374.878906 339.359375 376.320312 339.601562 377.519531 339.601562 C 378.238281 339.601562 378.960938 339.601562 379.679688 339.601562 C 380.398438 339.601562 380.878906 339.359375 381.601562 339.121094 C 382.078125 338.878906 382.800781 338.640625 383.28125 338.398438 C 383.761719 338.160156 384.238281 337.679688 384.960938 337.199219 C 385.199219 336.960938 385.441406 336.960938 385.679688 336.71875 C 385.199219 336.960938 385.441406 336.71875 385.679688 336.71875 Z M 385.679688 336.71875 "/>
<path style=" stroke:none;fill-rule:nonzero;fill:rgb(76.078431%,23.921569%,17.254902%);fill-opacity:1;" d="M 425.28125 346.800781 L 416.398438 346.800781 L 416.398438 308.640625 L 425.28125 308.640625 Z M 425.28125 346.800781 "/>
<path style=" stroke:none;fill-rule:nonzero;fill:rgb(76.078431%,23.921569%,17.254902%);fill-opacity:1;" d="M 488.878906 346.800781 L 481.921875 346.800781 C 481.199219 346.800781 480.480469 346.558594 480 346.320312 C 479.519531 346.078125 479.039062 345.601562 479.039062 344.878906 L 476.878906 338.160156 L 462.238281 338.160156 L 460.078125 344.878906 C 459.839844 345.359375 459.601562 345.839844 459.121094 346.320312 C 458.640625 346.800781 457.921875 346.800781 457.199219 346.800781 L 450.238281 346.800781 L 465.121094 308.640625 L 474.238281 308.640625 Z M 464.160156 332.160156 L 474.480469 332.160156 L 470.878906 321.601562 C 470.640625 320.878906 470.398438 320.160156 470.160156 319.199219 C 469.921875 318.238281 469.441406 317.28125 469.199219 316.320312 C 468.960938 317.28125 468.71875 318.480469 468.238281 319.199219 C 468 320.160156 467.761719 320.878906 467.519531 321.601562 Z M 464.160156 332.160156 "/>
<path style=" stroke:none;fill-rule:nonzero;fill:rgb(76.078431%,23.921569%,17.254902%);fill-opacity:1;" d="M 521.761719 339.601562 L 535.921875 339.601562 L 535.921875 346.558594 L 512.878906 346.558594 L 512.878906 308.398438 L 521.761719 308.398438 Z M 521.761719 339.601562 "/>
<path style=" stroke:none;fill-rule:nonzero;fill:rgb(93.333333%,77.647059%,36.470588%);fill-opacity:1;" d="M 318.960938 129.839844 L 279.359375 129.839844 L 348.71875 83.039062 L 368.640625 83.039062 Z M 318.960938 129.839844 "/>
<path style=" stroke:none;fill-rule:nonzero;fill:rgb(87.45098%,38.823529%,30.980392%);fill-opacity:1;" d="M 358.320312 129.839844 L 318.960938 129.839844 L 368.640625 83.039062 L 388.320312 83.039062 Z M 358.320312 129.839844 "/>
<path style=" stroke:none;fill-rule:nonzero;fill:rgb(93.333333%,77.647059%,36.470588%);fill-opacity:1;" d="M 397.921875 129.839844 L 358.320312 129.839844 L 388.320312 83.039062 L 408.238281 83.039062 Z M 397.921875 129.839844 "/>
<path style=" stroke:none;fill-rule:nonzero;fill:rgb(87.45098%,38.823529%,30.980392%);fill-opacity:1;" d="M 439.441406 129.839844 L 397.921875 129.839844 L 408.238281 83.039062 L 427.921875 83.039062 Z M 439.441406 129.839844 "/>
<path style=" stroke:none;fill-rule:nonzero;fill:rgb(93.333333%,77.647059%,36.470588%);fill-opacity:1;" d="M 479.039062 129.839844 L 439.441406 129.839844 L 427.921875 83.039062 L 447.839844 83.039062 Z M 479.039062 129.839844 "/>
<path style=" stroke:none;fill-rule:nonzero;fill:rgb(93.333333%,77.647059%,36.470588%);fill-opacity:1;" d="M 558 129.839844 L 518.398438 129.839844 L 467.761719 83.039062 L 487.441406 83.039062 Z M 558 129.839844 "/>
<path style=" stroke:none;fill-rule:nonzero;fill:rgb(87.45098%,38.823529%,30.980392%);fill-opacity:1;" d="M 518.398438 129.839844 L 479.039062 129.839844 L 447.839844 83.039062 L 467.761719 83.039062 Z M 518.398438 129.839844 "/>
<path style=" stroke:none;fill-rule:nonzero;fill:rgb(92.54902%,70.980392%,16.862745%);fill-opacity:1;" d="M 318.960938 129.839844 L 279.359375 129.839844 L 279.359375 140.640625 C 279.359375 147.601562 284.878906 153.121094 291.839844 153.121094 L 306.238281 153.121094 C 313.199219 153.121094 318.71875 147.601562 318.71875 140.640625 L 318.71875 129.839844 Z M 318.960938 129.839844 "/>
<path style=" stroke:none;fill-rule:nonzero;fill:rgb(76.078431%,23.921569%,17.254902%);fill-opacity:1;" d="M 358.320312 129.839844 L 318.71875 129.839844 L 318.71875 140.640625 C 318.71875 147.601562 324.238281 153.121094 331.199219 153.121094 L 345.601562 153.121094 C 352.558594 153.121094 358.078125 147.601562 358.078125 140.640625 L 358.078125 129.839844 Z M 358.320312 129.839844 "/>
<path style=" stroke:none;fill-rule:nonzero;fill:rgb(92.54902%,70.980392%,16.862745%);fill-opacity:1;" d="M 397.921875 129.839844 L 358.320312 129.839844 L 358.320312 140.640625 C 358.320312 147.601562 363.839844 153.121094 370.800781 153.121094 L 385.199219 153.121094 C 392.160156 153.121094 397.679688 147.601562 397.679688 140.640625 L 397.679688 129.839844 Z M 397.921875 129.839844 "/>
<path style=" stroke:none;fill-rule:nonzero;fill:rgb(76.078431%,23.921569%,17.254902%);fill-opacity:1;" d="M 439.441406 129.839844 L 397.921875 129.839844 L 397.921875 140.160156 C 397.921875 147.359375 403.921875 153.359375 411.121094 153.359375 L 426.238281 153.359375 C 433.441406 153.359375 439.441406 147.359375 439.441406 140.160156 Z M 439.441406 129.839844 "/>
<path style=" stroke:none;fill-rule:nonzero;fill:rgb(92.54902%,70.980392%,16.862745%);fill-opacity:1;" d="M 479.039062 129.839844 L 439.441406 129.839844 L 439.441406 140.640625 C 439.441406 147.601562 444.960938 153.121094 451.921875 153.121094 L 466.320312 153.121094 C 473.28125 153.121094 478.800781 147.601562 478.800781 140.640625 L 478.800781 129.839844 Z M 479.039062 129.839844 "/>
<path style=" stroke:none;fill-rule:nonzero;fill:rgb(92.54902%,70.980392%,16.862745%);fill-opacity:1;" d="M 558 129.839844 L 518.398438 129.839844 L 518.398438 140.640625 C 518.398438 147.601562 523.921875 153.121094 530.878906 153.121094 L 545.28125 153.121094 C 552.238281 153.121094 557.761719 147.601562 557.761719 140.640625 L 557.761719 129.839844 Z M 558 129.839844 "/>
<path style=" stroke:none;fill-rule:nonzero;fill:rgb(76.078431%,23.921569%,17.254902%);fill-opacity:1;" d="M 518.398438 129.839844 L 478.800781 129.839844 L 478.800781 140.640625 C 478.800781 147.601562 484.320312 153.121094 491.28125 153.121094 L 505.679688 153.121094 C 512.640625 153.121094 518.160156 147.601562 518.160156 140.640625 L 518.160156 129.839844 Z M 518.398438 129.839844 "/>
<path style=" stroke:none;fill-rule:nonzero;fill:url(#linear0);" d="M 487.441406 83.039062 L 348.71875 83.039062 L 348.71875 79.441406 C 348.71875 76.078125 351.359375 73.199219 354.960938 73.199219 L 481.441406 73.199219 C 484.800781 73.199219 487.679688 75.839844 487.679688 79.441406 L 487.679688 83.039062 Z M 487.441406 83.039062 "/>
<use xlink:href="#surface5" mask="url(#mask0)"/>
<g clip-path="url(#clip2)" clip-rule="nonzero">
<g clip-path="url(#clip3)" clip-rule="nonzero">
<use xlink:href="#surface8" mask="url(#mask1)"/>
</g>
</g>
<use xlink:href="#surface11" mask="url(#mask2)"/>
<path style=" stroke:none;fill-rule:nonzero;fill:rgb(12.941176%,17.647059%,39.215686%);fill-opacity:1;" d="M 118.800781 257.039062 L 118.800781 267.121094 L 90 267.121094 L 90 258.480469 C 87.359375 261.601562 84.480469 264 80.878906 265.679688 C 77.28125 267.359375 73.199219 268.320312 68.878906 268.320312 C 63.121094 268.320312 58.078125 266.878906 53.761719 264 C 49.199219 261.121094 45.839844 257.28125 43.199219 252.238281 C 40.558594 247.199219 39.359375 241.679688 39.359375 235.199219 C 39.359375 228.960938 40.558594 223.199219 43.199219 218.160156 C 45.839844 213.121094 49.199219 209.28125 53.761719 206.398438 C 58.320312 203.519531 63.359375 202.078125 68.878906 202.078125 C 73.199219 202.078125 77.28125 203.039062 80.878906 204.71875 C 84.480469 206.398438 87.601562 208.800781 90 211.921875 L 90 182.160156 L 75.839844 182.160156 L 75.839844 172.078125 L 104.398438 172.078125 L 104.398438 257.039062 Z M 85.441406 252.238281 C 88.558594 248.160156 90.238281 242.640625 90.238281 235.679688 C 90.238281 228.71875 88.558594 223.199219 85.441406 219.121094 C 82.320312 215.039062 78.238281 212.878906 72.960938 212.878906 C 69.359375 212.878906 66.238281 213.839844 63.359375 215.761719 C 60.480469 217.679688 58.320312 220.320312 56.878906 223.921875 C 55.199219 227.28125 54.480469 231.359375 54.480469 235.679688 C 54.480469 240 55.199219 244.078125 56.878906 247.441406 C 58.558594 250.800781 60.71875 253.679688 63.359375 255.601562 C 66.238281 257.519531 69.359375 258.480469 72.960938 258.480469 C 78 258.480469 82.320312 256.320312 85.441406 252.238281 Z M 85.441406 252.238281 "/>
<path style=" stroke:none;fill-rule:nonzero;fill:rgb(12.941176%,17.647059%,39.215686%);fill-opacity:1;" d="M 169.679688 257.039062 L 169.679688 267.121094 L 126.960938 267.121094 L 126.960938 257.039062 L 141.121094 257.039062 L 141.121094 213.839844 L 126.960938 213.839844 L 126.960938 203.761719 L 155.519531 203.761719 L 155.519531 257.039062 Z M 138.960938 190.558594 C 137.039062 188.398438 135.839844 185.761719 135.839844 182.398438 C 135.839844 179.039062 136.800781 176.398438 138.960938 174.238281 C 141.121094 172.320312 143.761719 171.121094 147.121094 171.121094 C 150.480469 171.121094 153.121094 172.078125 155.28125 174.238281 C 157.199219 176.160156 158.398438 179.039062 158.398438 182.398438 C 158.398438 185.761719 157.441406 188.398438 155.28125 190.558594 C 153.359375 192.71875 150.480469 193.679688 147.121094 193.679688 C 143.761719 193.679688 141.121094 192.71875 138.960938 190.558594 Z M 138.960938 190.558594 "/>
<path style=" stroke:none;fill-rule:nonzero;fill:rgb(12.941176%,17.647059%,39.215686%);fill-opacity:1;" d="M 198.71875 225.839844 C 201.121094 226.800781 204.960938 228 210 228.71875 C 215.039062 229.679688 219.121094 230.398438 222.238281 231.601562 C 225.359375 232.558594 228 234.480469 230.398438 236.878906 C 232.558594 239.519531 233.761719 242.878906 233.761719 247.441406 C 233.761719 254.160156 231.359375 259.199219 226.558594 262.800781 C 221.761719 266.398438 215.28125 268.078125 207.121094 268.078125 C 199.921875 268.078125 193.921875 266.640625 189.601562 263.761719 L 189.601562 266.878906 L 179.519531 266.878906 L 179.519531 241.441406 L 189.601562 241.441406 C 189.601562 247.441406 191.039062 251.519531 193.679688 254.160156 C 196.558594 256.800781 200.640625 258 205.921875 258 C 210.238281 258 213.601562 257.28125 215.761719 255.839844 C 218.160156 254.398438 219.121094 252.238281 219.121094 249.601562 C 219.121094 246.480469 217.679688 244.320312 215.039062 243.121094 C 212.398438 241.921875 208.320312 240.71875 203.039062 239.519531 C 198.238281 238.558594 194.398438 237.601562 191.28125 236.398438 C 188.398438 235.441406 185.761719 233.761719 183.601562 231.359375 C 181.441406 228.960938 180.480469 225.839844 180.480469 221.761719 C 180.480469 215.519531 182.878906 210.71875 187.679688 207.359375 C 192.480469 204 198.480469 202.078125 206.160156 202.078125 C 212.160156 202.078125 217.199219 203.28125 221.519531 205.679688 L 221.519531 203.28125 L 231.601562 203.28125 L 231.601562 226.078125 L 221.519531 226.078125 C 221.519531 220.800781 220.320312 217.199219 217.921875 215.28125 C 215.519531 213.359375 212.160156 212.160156 207.839844 212.160156 C 203.761719 212.160156 200.640625 212.878906 198.480469 214.078125 C 196.320312 215.519531 195.121094 217.441406 195.121094 219.839844 C 195.121094 222.960938 196.320312 224.878906 198.71875 225.839844 Z M 198.71875 225.839844 "/>
<path style=" stroke:none;fill-rule:nonzero;fill:rgb(12.941176%,17.647059%,39.215686%);fill-opacity:1;" d="M 271.679688 214.078125 L 271.679688 248.640625 C 271.679688 252 272.160156 254.398438 273.121094 256.078125 C 274.078125 257.761719 275.28125 258.480469 276.480469 258.480469 C 278.878906 258.480469 280.078125 256.320312 280.078125 252.238281 C 280.078125 250.800781 279.839844 249.121094 279.601562 247.199219 L 288.480469 247.199219 C 288.960938 250.320312 289.199219 252.960938 289.199219 255.121094 C 289.199219 259.921875 288 263.28125 285.601562 265.441406 C 283.199219 267.601562 279.121094 268.558594 273.839844 268.558594 C 268.078125 268.558594 263.761719 267.121094 260.878906 264.238281 C 257.761719 261.359375 256.320312 256.078125 256.320312 248.640625 L 256.320312 214.078125 L 243.121094 214.078125 L 243.121094 204 L 256.320312 204 L 256.320312 178.558594 C 262.800781 178.558594 268.078125 178.078125 271.679688 177.359375 L 271.679688 204 L 289.441406 204 L 289.441406 214.078125 Z M 271.679688 214.078125 "/>
<path style=" stroke:none;fill-rule:nonzero;fill:rgb(12.941176%,17.647059%,39.215686%);fill-opacity:1;" d="M 356.398438 205.441406 C 358.800781 207.359375 360.71875 209.761719 361.679688 212.640625 C 362.878906 215.519531 363.359375 218.160156 363.359375 220.800781 C 363.359375 224.160156 362.640625 226.558594 360.960938 228.480469 C 359.28125 230.398438 357.121094 231.359375 354.238281 231.359375 C 351.601562 231.359375 349.679688 230.640625 348 228.960938 C 346.320312 227.28125 345.601562 225.359375 345.601562 222.960938 C 345.601562 219.601562 347.28125 216.960938 350.398438 215.519531 C 348.960938 213.601562 347.039062 212.640625 344.160156 212.640625 C 341.519531 212.640625 338.878906 213.601562 336.480469 215.519531 C 334.078125 217.441406 331.921875 220.320312 330.480469 223.921875 C 329.039062 227.519531 328.078125 231.839844 328.078125 236.640625 L 328.078125 257.039062 L 342 257.039062 L 342 267.121094 L 299.28125 267.121094 L 299.28125 257.039062 L 313.441406 257.039062 L 313.441406 213.839844 L 299.28125 213.839844 L 299.28125 203.761719 L 327.839844 203.761719 L 327.839844 215.761719 C 330 211.441406 332.640625 208.078125 335.761719 205.921875 C 338.878906 203.761719 342.71875 202.558594 346.558594 202.558594 C 350.878906 202.558594 354 203.519531 356.398438 205.441406 Z M 356.398438 205.441406 "/>
<path style=" stroke:none;fill-rule:nonzero;fill:rgb(12.941176%,17.647059%,39.215686%);fill-opacity:1;" d="M 414.238281 257.039062 L 414.238281 267.121094 L 371.519531 267.121094 L 371.519531 257.039062 L 385.679688 257.039062 L 385.679688 213.839844 L 371.519531 213.839844 L 371.519531 203.761719 L 400.078125 203.761719 L 400.078125 257.039062 Z M 383.761719 190.558594 C 381.839844 188.398438 380.640625 185.761719 380.640625 182.398438 C 380.640625 179.039062 381.601562 176.398438 383.761719 174.238281 C 385.921875 172.320312 388.558594 171.121094 391.921875 171.121094 C 395.28125 171.121094 397.921875 172.078125 400.078125 174.238281 C 402 176.160156 403.199219 179.039062 403.199219 182.398438 C 403.199219 185.761719 402.238281 188.398438 400.078125 190.558594 C 398.160156 192.71875 395.28125 193.679688 391.921875 193.679688 C 388.320312 193.679688 385.679688 192.71875 383.761719 190.558594 Z M 383.761719 190.558594 "/>
<path style=" stroke:none;fill-rule:nonzero;fill:rgb(12.941176%,17.647059%,39.215686%);fill-opacity:1;" d="M 442.800781 214.078125 L 442.800781 248.640625 C 442.800781 252 443.28125 254.398438 444.238281 256.078125 C 445.199219 257.761719 446.398438 258.480469 447.601562 258.480469 C 450 258.480469 451.199219 256.320312 451.199219 252.238281 C 451.199219 250.800781 450.960938 249.121094 450.71875 247.199219 L 459.601562 247.199219 C 460.078125 250.320312 460.320312 252.960938 460.320312 255.121094 C 460.320312 259.921875 459.121094 263.28125 456.71875 265.441406 C 454.320312 267.601562 450.238281 268.558594 444.960938 268.558594 C 439.199219 268.558594 434.878906 267.121094 432 264.238281 C 428.878906 261.359375 427.441406 256.078125 427.441406 248.640625 L 427.441406 214.078125 L 414.238281 214.078125 L 414.238281 204 L 427.441406 204 L 427.441406 178.558594 C 433.921875 178.558594 439.199219 178.078125 442.800781 177.359375 L 442.800781 204 L 460.558594 204 L 460.558594 214.078125 Z M 442.800781 214.078125 "/>
<path style=" stroke:none;fill-rule:evenodd;fill:rgb(87.45098%,38.823529%,30.980392%);fill-opacity:1;" d="M 550.558594 243.839844 C 549.601562 247.199219 548.398438 250.558594 546.480469 253.441406 L 549.359375 256.320312 C 550.800781 257.761719 550.800781 259.921875 549.359375 261.121094 L 541.199219 269.28125 C 539.761719 270.71875 537.601562 270.71875 536.398438 269.28125 L 533.519531 266.398438 C 530.640625 268.078125 527.28125 269.519531 523.921875 270.480469 L 523.921875 274.320312 C 523.921875 276.238281 522.480469 277.679688 520.558594 277.679688 L 509.039062 277.679688 C 507.121094 277.679688 505.679688 276.238281 505.679688 274.320312 L 505.679688 270.480469 C 502.320312 269.519531 498.960938 268.320312 496.078125 266.398438 L 493.199219 269.28125 C 491.761719 270.71875 489.601562 270.71875 488.398438 269.28125 L 480.238281 261.121094 C 478.800781 259.679688 478.800781 257.519531 480.238281 256.320312 L 483.121094 253.441406 C 481.441406 250.558594 480 247.199219 479.039062 243.839844 L 475.199219 243.839844 C 473.28125 243.839844 471.839844 242.398438 471.839844 240.480469 L 471.839844 228.960938 C 471.839844 227.039062 473.28125 225.601562 475.199219 225.601562 L 479.039062 225.601562 C 480 222.238281 481.199219 218.878906 483.121094 216 L 480.238281 213.121094 C 478.800781 211.679688 478.800781 209.519531 480.238281 208.320312 L 488.398438 200.160156 C 489.839844 198.71875 492 198.71875 493.199219 200.160156 L 496.078125 203.039062 C 498.960938 201.359375 502.320312 199.921875 505.679688 198.960938 L 505.679688 195.121094 C 505.679688 193.199219 507.121094 191.761719 509.039062 191.761719 L 520.558594 191.761719 C 522.480469 191.761719 523.921875 193.199219 523.921875 195.121094 L 523.921875 198.960938 C 527.28125 199.921875 530.640625 201.121094 533.519531 203.039062 L 536.398438 200.160156 C 537.839844 198.71875 540 198.71875 541.199219 200.160156 L 549.359375 208.320312 C 550.800781 209.761719 550.800781 211.921875 549.359375 213.121094 L 546.480469 216 C 548.160156 218.878906 549.601562 222.238281 550.558594 225.601562 L 554.398438 225.601562 C 556.320312 225.601562 557.761719 227.039062 557.761719 228.960938 L 557.761719 240.480469 C 557.761719 242.398438 556.320312 243.839844 554.398438 243.839844 Z M 550.558594 243.839844 "/>
<path style=" stroke:none;fill-rule:evenodd;fill:rgb(76.078431%,23.921569%,17.254902%);fill-opacity:1;" d="M 541.199219 269.28125 L 549.359375 261.121094 C 550.800781 259.679688 550.800781 257.519531 549.359375 256.320312 L 546.480469 253.441406 C 548.160156 250.558594 549.601562 247.199219 550.558594 243.839844 L 554.398438 243.839844 C 556.320312 243.839844 557.761719 242.398438 557.761719 240.480469 L 557.761719 232.800781 C 552.960938 235.199219 547.921875 237.121094 542.160156 238.558594 C 540.238281 252.238281 528.71875 262.800781 514.558594 262.800781 C 501.359375 262.800781 490.078125 253.441406 487.441406 240.960938 C 487.441406 240.71875 487.199219 240.238281 487.199219 240 C 481.679688 238.800781 476.398438 237.121094 471.359375 235.199219 L 471.359375 240.71875 C 471.359375 242.640625 472.800781 244.078125 474.71875 244.078125 L 478.558594 244.078125 C 479.519531 247.441406 480.71875 250.800781 482.640625 253.679688 L 479.761719 256.558594 C 478.320312 258 478.320312 260.160156 479.761719 261.359375 L 487.921875 269.519531 C 489.359375 270.960938 491.519531 270.960938 492.71875 269.519531 L 495.601562 266.640625 C 498.480469 268.320312 501.839844 269.761719 505.199219 270.71875 L 505.199219 274.558594 C 505.199219 276.480469 506.640625 277.921875 508.558594 277.921875 L 520.078125 277.921875 C 522 277.921875 523.441406 276.480469 523.441406 274.558594 L 523.441406 270.71875 C 526.800781 269.761719 530.160156 268.558594 533.039062 266.640625 L 535.921875 269.519531 C 537.839844 270.480469 540 270.480469 541.199219 269.28125 Z M 541.199219 269.28125 "/>
<path style=" stroke:none;fill-rule:evenodd;fill:rgb(100%,100%,100%);fill-opacity:1;" d="M 514.800781 262.558594 C 530.160156 262.558594 542.640625 250.078125 542.640625 234.71875 C 542.640625 219.359375 530.160156 206.878906 514.800781 206.878906 C 499.441406 206.878906 486.960938 219.359375 486.960938 234.71875 C 486.960938 249.839844 499.441406 262.558594 514.800781 262.558594 Z M 514.800781 262.558594 "/>
<path style=" stroke:none;fill-rule:evenodd;fill:rgb(87.45098%,38.823529%,30.980392%);fill-opacity:1;" d="M 520.800781 248.640625 C 526.800781 246.480469 531.359375 240.480469 531.359375 233.761719 C 531.359375 228.238281 528.480469 223.441406 524.398438 220.558594 C 519.839844 217.441406 520.800781 222.238281 520.800781 223.199219 L 520.800781 232.800781 C 520.800781 236.160156 518.160156 239.039062 514.800781 239.039062 C 511.441406 238.800781 508.800781 236.160156 508.800781 232.800781 L 508.800781 223.199219 C 508.800781 222.480469 509.761719 217.679688 505.199219 220.558594 C 500.878906 223.441406 498.238281 228.238281 498.238281 233.761719 C 498.238281 240.71875 502.558594 246.480469 508.800781 248.640625 L 508.800781 261.839844 C 510.71875 262.320312 512.878906 262.558594 514.800781 262.558594 C 516.71875 262.558594 518.878906 262.320312 520.800781 261.839844 Z M 520.800781 248.640625 "/>
<path style=" stroke:none;fill-rule:evenodd;fill:rgb(76.078431%,23.921569%,17.254902%);fill-opacity:1;" d="M 520.800781 261.839844 L 520.800781 248.640625 C 526.800781 246.480469 531.359375 240.480469 531.359375 233.761719 C 531.359375 228.238281 528.480469 223.441406 524.398438 220.558594 C 523.441406 219.839844 522.71875 219.601562 522.238281 219.601562 C 525.601562 222.480469 527.519531 226.800781 527.519531 231.359375 C 527.519531 237.839844 523.441406 243.601562 517.679688 246 C 516.71875 246.480469 516.960938 247.441406 516.960938 248.640625 L 516.960938 262.320312 C 518.160156 262.320312 519.601562 262.078125 520.800781 261.839844 Z M 520.800781 261.839844 "/>
</g>
</svg>
