<?xml version="1.0" encoding="UTF-8"?>
<svg xmlns="http://www.w3.org/2000/svg" xmlns:xlink="http://www.w3.org/1999/xlink" width="30pt" height="30pt" viewBox="0 0 30 30" version="1.1">
<g id="surface1">
<path style=" stroke:none;fill-rule:nonzero;fill:rgb(88.627451%,65.098039%,23.137255%);fill-opacity:1;" d="M 30 19.609375 L 30 23.023438 C 30 24.183594 26.90625 25.152344 23.105469 25.152344 C 19.300781 25.152344 16.273438 24.214844 16.273438 23.054688 L 16.273438 22.667969 L 16.207031 19.960938 L 16.242188 19.960938 C 16.757812 20.960938 19.59375 21.734375 23.007812 21.734375 C 26.421875 21.734375 29.9375 20.769531 29.9375 19.609375 Z M 30 19.609375 "/>
<path style=" stroke:none;fill-rule:nonzero;fill:rgb(95.686275%,72.156863%,26.666667%);fill-opacity:1;" d="M 22.910156 6.914062 L 22.910156 10.296875 L 22.847656 10.296875 C 22.847656 11.488281 19.65625 12.421875 15.886719 12.421875 C 14.4375 12.453125 12.953125 12.292969 11.535156 11.9375 L 11.472656 12.003906 C 10.761719 11.421875 9.957031 10.972656 9.085938 10.683594 L 9.085938 10.617188 L 8.992188 7.042969 C 9.214844 8.136719 12.210938 9.007812 15.855469 9.007812 C 19.496094 9.007812 22.847656 8.074219 22.847656 6.914062 Z M 22.910156 6.914062 "/>
<path style=" stroke:none;fill-rule:nonzero;fill:rgb(99.607843%,85.882353%,25.490196%);fill-opacity:1;" d="M 22.910156 6.976562 C 22.910156 8.136719 19.722656 9.070312 15.917969 9.070312 C 12.117188 9.070312 9.25 8.203125 9.023438 7.105469 C 9.023438 7.074219 8.992188 7.007812 8.992188 6.976562 C 8.992188 5.816406 12.082031 4.851562 15.917969 4.851562 C 19.753906 4.816406 22.910156 5.785156 22.910156 6.976562 Z M 22.910156 6.976562 "/>
<path style=" stroke:none;fill-rule:nonzero;fill:rgb(95.686275%,72.156863%,26.666667%);fill-opacity:1;" d="M 16.242188 19.960938 L 16.207031 19.253906 L 16.144531 16.355469 C 16.371094 17.449219 19.367188 18.320312 23.007812 18.320312 C 26.648438 18.320312 29.871094 17.386719 29.96875 16.257812 L 30 16.257812 L 30 19.609375 L 29.9375 19.609375 C 29.9375 20.769531 26.808594 21.734375 23.007812 21.734375 C 19.207031 21.734375 16.757812 20.960938 16.242188 19.960938 Z M 16.242188 19.960938 "/>
<path style=" stroke:none;fill-rule:nonzero;fill:rgb(88.627451%,65.098039%,23.137255%);fill-opacity:1;" d="M 11.632812 22.121094 C 12.503906 21.316406 13.179688 20.285156 13.535156 19.15625 L 13.695312 19.15625 C 14.402344 19.222656 15.113281 19.253906 15.886719 19.253906 L 16.207031 19.253906 L 16.207031 19.960938 L 16.273438 22.667969 L 15.917969 22.667969 C 14.5 22.703125 13.113281 22.539062 11.730469 22.21875 Z M 11.632812 22.121094 "/>
<path style=" stroke:none;fill-rule:nonzero;fill:rgb(95.686275%,72.156863%,26.666667%);fill-opacity:1;" d="M 16.242188 16.097656 L 16.242188 16.257812 L 16.304688 19.253906 L 15.984375 19.253906 C 15.175781 19.253906 14.4375 19.222656 13.726562 19.15625 L 13.566406 19.15625 C 13.792969 18.480469 13.886719 17.773438 13.886719 17.0625 C 13.886719 16.578125 13.824219 16.128906 13.726562 15.675781 L 13.886719 15.675781 C 14.566406 15.742188 15.242188 15.773438 15.984375 15.773438 L 16.273438 15.933594 C 16.242188 16 16.242188 16.0625 16.242188 16.097656 Z M 16.242188 16.097656 "/>
<path style=" stroke:none;fill-rule:nonzero;fill:rgb(88.627451%,65.098039%,23.137255%);fill-opacity:1;" d="M 11.535156 11.9375 C 12.953125 12.292969 14.4375 12.453125 15.886719 12.421875 C 19.65625 12.421875 22.847656 11.488281 22.847656 10.296875 L 22.910156 10.296875 L 22.910156 14.097656 C 19.398438 14.097656 16.53125 14.9375 16.175781 16 L 15.886719 15.839844 C 15.175781 15.839844 14.5 15.804688 13.855469 15.742188 L 13.695312 15.742188 C 13.40625 14.257812 12.632812 12.9375 11.472656 11.972656 Z M 11.535156 11.9375 "/>
<path style=" stroke:none;fill-rule:nonzero;fill:rgb(99.607843%,85.882353%,25.490196%);fill-opacity:1;" d="M 13.757812 15.742188 C 13.4375 14.257812 12.632812 12.90625 11.472656 11.90625 C 10.761719 11.261719 9.925781 10.8125 9.023438 10.554688 C 8.378906 10.328125 7.667969 10.230469 6.992188 10.230469 C 3.15625 10.199219 0.03125 13.261719 0 17.09375 C -0.03125 20.929688 3.027344 24.054688 6.863281 24.085938 C 8.636719 24.085938 10.3125 23.441406 11.632812 22.25 C 12.535156 21.414062 13.210938 20.347656 13.566406 19.1875 C 13.792969 18.511719 13.886719 17.835938 13.886719 17.128906 C 13.886719 16.675781 13.757812 16.191406 13.757812 15.742188 Z M 13.757812 15.742188 "/>
<path style=" stroke:none;fill-rule:nonzero;fill:rgb(99.607843%,85.882353%,25.490196%);fill-opacity:1;" d="M 29.96875 16.191406 L 29.96875 16.257812 C 29.871094 17.386719 26.746094 18.320312 23.007812 18.320312 C 19.269531 18.320312 16.371094 17.449219 16.144531 16.355469 L 16.144531 16.191406 C 16.144531 16.128906 16.144531 16.0625 16.175781 16 C 16.53125 14.9375 19.398438 14.097656 22.910156 14.097656 L 23.007812 14.097656 C 26.808594 14.097656 29.96875 15.03125 29.96875 16.191406 Z M 29.96875 16.191406 "/>
<path style=" stroke:none;fill-rule:nonzero;fill:rgb(88.627451%,65.098039%,23.137255%);fill-opacity:1;" d="M 6.992188 16.289062 C 6.414062 16.289062 5.929688 15.804688 5.929688 15.226562 C 5.929688 14.644531 6.414062 14.164062 6.992188 14.164062 C 7.574219 14.164062 8.054688 14.644531 8.054688 15.226562 C 8.054688 15.582031 8.347656 15.871094 8.699219 15.871094 C 9.054688 15.871094 9.34375 15.582031 9.34375 15.226562 C 9.34375 14.195312 8.636719 13.261719 7.636719 12.96875 L 7.636719 12.710938 C 7.636719 12.359375 7.347656 12.066406 6.992188 12.066406 C 6.636719 12.066406 6.347656 12.359375 6.347656 12.710938 L 6.347656 12.96875 C 5.316406 13.226562 4.609375 14.164062 4.640625 15.226562 C 4.640625 16.515625 5.703125 17.578125 6.992188 17.578125 C 7.574219 17.578125 8.054688 18.0625 8.054688 18.640625 C 8.054688 19.222656 7.574219 19.703125 6.992188 19.703125 C 6.414062 19.703125 5.929688 19.222656 5.929688 18.640625 C 5.929688 18.289062 5.640625 17.996094 5.285156 17.996094 C 4.929688 17.996094 4.640625 18.289062 4.640625 18.640625 C 4.640625 19.703125 5.347656 20.605469 6.347656 20.898438 L 6.347656 21.414062 C 6.347656 21.765625 6.636719 22.058594 6.992188 22.058594 C 7.347656 22.058594 7.636719 21.765625 7.636719 21.414062 L 7.636719 20.898438 C 8.894531 20.542969 9.601562 19.222656 9.214844 17.964844 C 8.925781 17 8.023438 16.289062 6.992188 16.289062 Z M 6.992188 16.289062 "/>
</g>
</svg>
