<?xml version="1.0" encoding="UTF-8"?>
<svg xmlns="http://www.w3.org/2000/svg" xmlns:xlink="http://www.w3.org/1999/xlink" width="30pt" height="30pt" viewBox="0 0 30 30" version="1.1">
<g id="surface1">
<path style=" stroke:none;fill-rule:nonzero;fill:rgb(85.882353%,36.078431%,43.137255%);fill-opacity:1;" d="M 29.097656 4.390625 C 28.59375 4.949219 27.875 5.515625 26.949219 6.082031 C 26.75 6.203125 26.542969 6.324219 26.328125 6.445312 C 25.5625 6.871094 24.695312 7.292969 23.753906 7.695312 C 23.472656 7.816406 23.21875 7.921875 22.996094 8.007812 C 22.472656 8.214844 22.140625 8.332031 22.121094 8.339844 C 22.074219 8.355469 22.023438 8.363281 21.972656 8.363281 C 21.890625 8.363281 21.808594 8.339844 21.738281 8.296875 C 21.625 8.226562 21.546875 8.105469 21.53125 7.972656 C 21.460938 7.425781 21.46875 6.859375 21.554688 6.296875 C 21.589844 6.054688 21.816406 5.886719 22.058594 5.921875 C 22.304688 5.960938 22.472656 6.1875 22.4375 6.429688 C 22.390625 6.71875 22.371094 7.007812 22.375 7.292969 C 22.464844 7.257812 22.566406 7.21875 22.675781 7.175781 C 22.890625 7.089844 23.136719 6.988281 23.40625 6.875 C 24.316406 6.484375 25.15625 6.078125 25.890625 5.667969 C 26.078125 5.5625 26.28125 5.445312 26.488281 5.316406 C 27.847656 4.480469 29.492188 3.175781 29.019531 1.984375 C 28.789062 1.398438 28.378906 1.074219 27.808594 1.011719 C 26.5 0.875 24.648438 2.066406 23.492188 3.789062 L 23.148438 4.375 C 23.023438 4.589844 22.75 4.660156 22.539062 4.535156 C 22.324219 4.410156 22.253906 4.136719 22.378906 3.921875 L 22.730469 3.328125 C 22.734375 3.320312 22.742188 3.3125 22.746094 3.304688 C 24.09375 1.289062 26.261719 -0.0507812 27.902344 0.125 C 28.804688 0.21875 29.496094 0.765625 29.847656 1.652344 C 30.195312 2.535156 29.945312 3.457031 29.097656 4.390625 Z M 29.097656 4.390625 "/>
<path style=" stroke:none;fill-rule:nonzero;fill:rgb(85.882353%,36.078431%,43.137255%);fill-opacity:1;" d="M 21.972656 8.363281 C 21.890625 8.363281 21.808594 8.339844 21.738281 8.296875 C 21.625 8.226562 21.546875 8.105469 21.53125 7.972656 C 21.460938 7.425781 21.46875 6.859375 21.554688 6.296875 C 21.589844 6.054688 21.816406 5.886719 22.058594 5.921875 C 22.304688 5.960938 22.472656 6.1875 22.4375 6.429688 C 22.390625 6.71875 22.371094 7.007812 22.375 7.292969 C 22.648438 7.1875 23 7.046875 23.40625 6.875 C 24.316406 6.484375 25.15625 6.078125 25.890625 5.667969 C 27.292969 4.882812 29.5625 3.359375 29.019531 1.984375 C 28.789062 1.398438 28.378906 1.074219 27.808594 1.011719 C 26.5 0.875 24.648438 2.066406 23.492188 3.789062 L 23.148438 4.375 C 23.023438 4.589844 22.75 4.660156 22.539062 4.535156 C 22.324219 4.410156 22.253906 4.136719 22.378906 3.921875 L 22.730469 3.328125 C 22.734375 3.320312 22.738281 3.3125 22.746094 3.304688 C 24.09375 1.289062 26.261719 -0.0507812 27.902344 0.125 C 28.804688 0.21875 29.496094 0.765625 29.847656 1.65625 C 30.195312 2.535156 29.945312 3.457031 29.097656 4.390625 C 28.488281 5.066406 27.554688 5.757812 26.328125 6.445312 C 25.5625 6.871094 24.695312 7.292969 23.753906 7.695312 C 22.8125 8.097656 22.148438 8.328125 22.121094 8.339844 C 22.074219 8.355469 22.023438 8.363281 21.972656 8.363281 Z M 21.972656 8.363281 "/>
<path style=" stroke:none;fill-rule:nonzero;fill:rgb(100%,81.568627%,39.215686%);fill-opacity:1;" d="M 26.507812 15.691406 C 26.746094 15.410156 26.914062 15.074219 26.988281 14.710938 C 27.25 13.425781 27.613281 10.109375 25.859375 5.335938 C 25.636719 4.734375 25.15625 4.253906 24.554688 4.03125 C 19.78125 2.277344 16.464844 2.640625 15.179688 2.902344 C 14.816406 2.976562 14.480469 3.144531 14.199219 3.382812 C 8.9375 7.871094 4.960938 11.800781 0.539062 16.90625 C -0.152344 17.703125 -0.183594 18.878906 0.472656 19.707031 C 3.332031 23.324219 6.566406 26.558594 10.183594 29.417969 C 11.011719 30.074219 12.1875 30.042969 12.984375 29.351562 C 18.089844 24.929688 22.019531 20.953125 26.507812 15.691406 Z M 20.753906 9.136719 C 20.078125 8.464844 20.078125 7.371094 20.753906 6.695312 C 21.425781 6.023438 22.519531 6.023438 23.195312 6.695312 C 23.867188 7.371094 23.867188 8.464844 23.195312 9.136719 C 22.519531 9.8125 21.425781 9.8125 20.753906 9.136719 Z M 20.753906 9.136719 "/>
<path style=" stroke:none;fill-rule:nonzero;fill:rgb(100%,76.078431%,31.372549%);fill-opacity:1;" d="M 15.179688 2.902344 C 14.816406 2.976562 14.480469 3.144531 14.199219 3.382812 C 8.9375 7.871094 4.960938 11.800781 0.539062 16.90625 C -0.152344 17.703125 -0.183594 18.882812 0.472656 19.707031 C 0.519531 19.769531 0.570312 19.832031 0.621094 19.894531 C 0.503906 19.261719 0.710938 18.535156 1.21875 17.964844 C 5.796875 12.800781 9.859375 8.777344 15.171875 4.128906 C 15.457031 3.882812 15.789062 3.695312 16.136719 3.597656 C 17.117188 3.316406 19.320312 2.871094 22.378906 3.34375 C 18.773438 2.390625 16.257812 2.679688 15.179688 2.902344 Z M 15.179688 2.902344 "/>
<path style=" stroke:none;fill-rule:nonzero;fill:rgb(85.882353%,36.078431%,43.137255%);fill-opacity:1;" d="M 7.144531 19.695312 C 7.066406 19.617188 7 19.519531 6.957031 19.410156 C 6.773438 18.964844 6.988281 18.460938 7.429688 18.277344 L 18.09375 13.917969 C 18.539062 13.738281 19.042969 13.949219 19.226562 14.394531 C 19.40625 14.835938 19.195312 15.34375 18.75 15.523438 L 8.085938 19.882812 C 7.753906 20.019531 7.382812 19.933594 7.144531 19.695312 Z M 7.144531 19.695312 "/>
<path style=" stroke:none;fill-rule:nonzero;fill:rgb(85.882353%,36.078431%,43.137255%);fill-opacity:1;" d="M 10.554688 13.851562 C 9.449219 12.746094 9.546875 10.847656 10.777344 9.617188 C 12.011719 8.386719 13.910156 8.285156 15.015625 9.390625 C 16.125 10.496094 16.023438 12.398438 14.792969 13.628906 C 13.5625 14.859375 11.660156 14.960938 10.554688 13.851562 Z M 13.789062 10.617188 C 13.367188 10.191406 12.550781 10.296875 12.003906 10.839844 C 11.460938 11.386719 11.355469 12.203125 11.78125 12.628906 C 12.203125 13.050781 13.019531 12.945312 13.566406 12.402344 C 14.109375 11.855469 14.214844 11.039062 13.789062 10.617188 Z M 13.789062 10.617188 "/>
<path style=" stroke:none;fill-rule:nonzero;fill:rgb(85.882353%,36.078431%,43.137255%);fill-opacity:1;" d="M 10.902344 24.472656 C 9.796875 23.367188 9.894531 21.464844 11.125 20.234375 C 12.359375 19.003906 14.257812 18.902344 15.363281 20.011719 C 16.472656 21.117188 16.371094 23.015625 15.140625 24.246094 C 13.910156 25.476562 12.007812 25.578125 10.902344 24.472656 Z M 14.140625 21.234375 C 13.714844 20.8125 12.898438 20.917969 12.351562 21.460938 C 11.808594 22.007812 11.703125 22.824219 12.128906 23.246094 C 12.550781 23.671875 13.367188 23.566406 13.914062 23.023438 C 14.457031 22.476562 14.5625 21.660156 14.140625 21.234375 Z M 14.140625 21.234375 "/>
<path style=" stroke:none;fill-rule:nonzero;fill:rgb(100%,76.078431%,31.372549%);fill-opacity:1;" d="M 21.972656 10.085938 C 21.417969 10.085938 20.863281 9.875 20.4375 9.453125 C 19.589844 8.605469 19.589844 7.226562 20.4375 6.382812 C 20.847656 5.972656 21.394531 5.746094 21.972656 5.746094 C 22.554688 5.746094 23.097656 5.972656 23.507812 6.382812 C 24.355469 7.226562 24.355469 8.605469 23.507812 9.453125 C 23.085938 9.875 22.53125 10.085938 21.972656 10.085938 Z M 21.972656 6.636719 C 21.632812 6.636719 21.3125 6.769531 21.070312 7.011719 C 20.570312 7.511719 20.570312 8.324219 21.070312 8.820312 C 21.566406 9.320312 22.378906 9.320312 22.878906 8.820312 C 23.378906 8.324219 23.378906 7.511719 22.878906 7.011719 C 22.636719 6.769531 22.316406 6.636719 21.972656 6.636719 Z M 21.972656 6.636719 "/>
<path style=" stroke:none;fill-rule:nonzero;fill:rgb(85.882353%,36.078431%,43.137255%);fill-opacity:1;" d="M 26.949219 6.082031 C 26.75 6.203125 26.542969 6.324219 26.328125 6.445312 C 25.5625 6.871094 24.695312 7.292969 23.753906 7.695312 C 23.472656 7.816406 23.21875 7.921875 22.996094 8.007812 C 22.835938 7.761719 22.726562 7.476562 22.675781 7.175781 C 22.890625 7.089844 23.136719 6.988281 23.40625 6.875 C 24.316406 6.484375 25.15625 6.078125 25.890625 5.667969 C 26.078125 5.5625 26.28125 5.445312 26.488281 5.316406 C 26.691406 5.535156 26.847656 5.792969 26.949219 6.082031 Z M 26.949219 6.082031 "/>
</g>
</svg>
