<?xml version="1.0" encoding="UTF-8"?>
<svg xmlns="http://www.w3.org/2000/svg" xmlns:xlink="http://www.w3.org/1999/xlink" width="30pt" height="30pt" viewBox="0 0 30 30" version="1.1">
<defs>
<filter id="alpha" filterUnits="objectBoundingBox" x="0%" y="0%" width="100%" height="100%">
  <feColorMatrix type="matrix" in="SourceGraphic" values="0 0 0 0 1 0 0 0 0 1 0 0 0 0 1 0 0 0 1 0"/>
</filter>
<mask id="mask0">
  <g filter="url(#alpha)">
<rect x="0" y="0" width="30" height="30" style="fill:rgb(0%,0%,0%);fill-opacity:0.0705882;stroke:none;"/>
  </g>
</mask>
<clipPath id="clip1">
  <rect width="30" height="30"/>
</clipPath>
<g id="surface6" clip-path="url(#clip1)">
<path style=" stroke:none;fill-rule:nonzero;fill:rgb(0.392157%,0.392157%,0.392157%);fill-opacity:1;" d="M 29.996094 14.839844 L 29.996094 18.464844 C 29.996094 19.507812 29.160156 20.339844 28.121094 20.339844 L 25.851562 20.339844 L 26.5 11.34375 Z M 29.996094 14.839844 "/>
</g>
</defs>
<g id="surface1">
<path style=" stroke:none;fill-rule:nonzero;fill:rgb(43.529412%,43.921569%,43.921569%);fill-opacity:1;" d="M 29.996094 4.179688 L 29.996094 18.464844 C 29.996094 19.507812 29.160156 20.339844 28.121094 20.339844 L 5.359375 20.339844 C 4.316406 20.339844 3.484375 19.507812 3.484375 18.464844 L 3.484375 4.179688 C 3.484375 3.148438 4.316406 2.304688 5.359375 2.304688 L 28.121094 2.304688 C 29.160156 2.304688 29.996094 3.148438 29.996094 4.179688 Z M 29.996094 4.179688 "/>
<path style=" stroke:none;fill-rule:nonzero;fill:rgb(27.45098%,27.45098%,27.45098%);fill-opacity:1;" d="M 3.480469 5.714844 L 30 5.714844 L 30 8.761719 L 3.480469 8.761719 Z M 3.480469 5.714844 "/>
<path style=" stroke:none;fill-rule:nonzero;fill:rgb(47.058824%,47.058824%,47.058824%);fill-opacity:1;" d="M 23.082031 3.074219 L 17.03125 3.074219 C 16.515625 3.074219 16.09375 3.492188 16.09375 4.011719 C 16.09375 4.527344 16.515625 4.949219 17.03125 4.949219 L 23.082031 4.949219 C 23.601562 4.949219 24.019531 4.527344 24.019531 4.011719 C 24.019531 3.492188 23.601562 3.074219 23.082031 3.074219 Z M 23.082031 3.074219 "/>
<path style=" stroke:none;fill-rule:nonzero;fill:rgb(47.058824%,47.058824%,47.058824%);fill-opacity:1;" d="M 27.453125 3.074219 L 25.816406 3.074219 C 25.296875 3.074219 24.878906 3.492188 24.878906 4.011719 C 24.878906 4.527344 25.296875 4.949219 25.816406 4.949219 L 27.453125 4.949219 C 27.972656 4.949219 28.390625 4.527344 28.390625 4.011719 C 28.390625 3.492188 27.972656 3.074219 27.453125 3.074219 Z M 27.453125 3.074219 "/>
<path style=" stroke:none;fill-rule:nonzero;fill:rgb(24.313725%,24.313725%,24.313725%);fill-opacity:1;" d="M 10.535156 6.300781 L 5.964844 6.300781 C 5.445312 6.300781 5.027344 6.71875 5.027344 7.238281 C 5.027344 7.757812 5.445312 8.175781 5.964844 8.175781 L 10.535156 8.175781 C 11.050781 8.175781 11.472656 7.757812 11.472656 7.238281 C 11.472656 6.71875 11.054688 6.300781 10.535156 6.300781 Z M 10.535156 6.300781 "/>
<path style=" stroke:none;fill-rule:nonzero;fill:rgb(24.313725%,24.313725%,24.313725%);fill-opacity:1;" d="M 14.90625 6.300781 L 13.269531 6.300781 C 12.75 6.300781 12.332031 6.71875 12.332031 7.238281 C 12.332031 7.757812 12.75 8.175781 13.269531 8.175781 L 14.90625 8.175781 C 15.425781 8.175781 15.84375 7.757812 15.84375 7.238281 C 15.84375 6.71875 15.425781 6.300781 14.90625 6.300781 Z M 14.90625 6.300781 "/>
<use xlink:href="#surface6" mask="url(#mask0)"/>
<path style=" stroke:none;fill-rule:nonzero;fill:rgb(29.411765%,62.352941%,84.705882%);fill-opacity:1;" d="M 24.644531 27.695312 L 1.875 27.695312 C 0.839844 27.695312 0 26.855469 0 25.820312 L 0 11.53125 C 0 10.496094 0.839844 9.65625 1.875 9.65625 L 24.644531 9.65625 C 25.679688 9.65625 26.519531 10.496094 26.519531 11.53125 L 26.519531 25.820312 C 26.519531 26.855469 25.679688 27.695312 24.644531 27.695312 Z M 24.644531 27.695312 "/>
<path style=" stroke:none;fill-rule:nonzero;fill:rgb(22.745098%,60.784314%,83.921569%);fill-opacity:1;" d="M 12.113281 9.65625 C 6.261719 14.089844 2.148438 19.769531 0.0195312 26.003906 C 0.0078125 25.929688 0 25.855469 0 25.769531 L 0 11.484375 C 0 10.59375 0.617188 9.84375 1.453125 9.65625 Z M 12.113281 9.65625 "/>
<path style=" stroke:none;fill-rule:nonzero;fill:rgb(22.745098%,60.784314%,83.921569%);fill-opacity:1;" d="M 14.40625 27.695312 C 20.257812 23.261719 24.375 17.578125 26.5 11.347656 C 26.511719 11.421875 26.519531 11.496094 26.519531 11.582031 L 26.519531 25.867188 C 26.519531 26.757812 25.902344 27.507812 25.066406 27.695312 Z M 14.40625 27.695312 "/>
<path style=" stroke:none;fill-rule:nonzero;fill:rgb(99.607843%,88.627451%,9.411765%);fill-opacity:1;" d="M 20.429688 14.75 C 20.429688 16.011719 19.40625 17.035156 18.144531 17.035156 C 16.882812 17.035156 15.859375 16.011719 15.859375 14.75 C 15.859375 13.492188 16.882812 12.46875 18.144531 12.46875 C 19.40625 12.46875 20.429688 13.492188 20.429688 14.75 Z M 20.429688 14.75 "/>
<path style=" stroke:none;fill-rule:nonzero;fill:rgb(80.392157%,28.627451%,29.803922%);fill-opacity:1;" d="M 23.707031 14.75 C 23.707031 16.011719 22.683594 17.035156 21.425781 17.035156 C 20.164062 17.035156 19.140625 16.011719 19.140625 14.75 C 19.140625 13.492188 20.164062 12.46875 21.425781 12.46875 C 22.683594 12.46875 23.707031 13.492188 23.707031 14.75 Z M 23.707031 14.75 "/>
<path style=" stroke:none;fill-rule:nonzero;fill:rgb(100%,100%,100%);fill-opacity:1;" d="M 7.847656 20.5 L 3.410156 20.5 C 2.894531 20.5 2.472656 20.082031 2.472656 19.5625 C 2.472656 19.042969 2.894531 18.625 3.410156 18.625 L 7.847656 18.625 C 8.363281 18.625 8.785156 19.042969 8.785156 19.5625 C 8.785156 20.082031 8.363281 20.5 7.847656 20.5 Z M 7.847656 20.5 "/>
<path style=" stroke:none;fill-rule:nonzero;fill:rgb(100%,100%,100%);fill-opacity:1;" d="M 11.808594 15.6875 L 3.410156 15.6875 C 2.894531 15.6875 2.472656 15.269531 2.472656 14.75 C 2.472656 14.234375 2.894531 13.8125 3.410156 13.8125 L 11.808594 13.8125 C 12.324219 13.8125 12.746094 14.234375 12.746094 14.75 C 12.746094 15.269531 12.324219 15.6875 11.808594 15.6875 Z M 11.808594 15.6875 "/>
<path style=" stroke:none;fill-rule:nonzero;fill:rgb(54.509804%,83.529412%,92.54902%);fill-opacity:1;" d="M 6.15625 25.3125 L 3.410156 25.3125 C 2.894531 25.3125 2.472656 24.890625 2.472656 24.375 C 2.472656 23.855469 2.894531 23.4375 3.410156 23.4375 L 6.15625 23.4375 C 6.675781 23.4375 7.09375 23.855469 7.09375 24.375 C 7.09375 24.890625 6.675781 25.3125 6.15625 25.3125 Z M 6.15625 25.3125 "/>
<path style=" stroke:none;fill-rule:nonzero;fill:rgb(85.490196%,93.72549%,96.470588%);fill-opacity:1;" d="M 11.808594 25.3125 L 9.0625 25.3125 C 8.542969 25.3125 8.125 24.890625 8.125 24.375 C 8.125 23.855469 8.542969 23.4375 9.0625 23.4375 L 11.808594 23.4375 C 12.324219 23.4375 12.746094 23.855469 12.746094 24.375 C 12.746094 24.890625 12.324219 25.3125 11.808594 25.3125 Z M 11.808594 25.3125 "/>
<path style=" stroke:none;fill-rule:nonzero;fill:rgb(54.509804%,83.529412%,92.54902%);fill-opacity:1;" d="M 17.457031 25.3125 L 14.710938 25.3125 C 14.195312 25.3125 13.773438 24.890625 13.773438 24.375 C 13.773438 23.855469 14.195312 23.4375 14.710938 23.4375 L 17.457031 23.4375 C 17.976562 23.4375 18.394531 23.855469 18.394531 24.375 C 18.394531 24.890625 17.976562 25.3125 17.457031 25.3125 Z M 17.457031 25.3125 "/>
<path style=" stroke:none;fill-rule:nonzero;fill:rgb(85.490196%,93.72549%,96.470588%);fill-opacity:1;" d="M 23.109375 25.3125 L 20.363281 25.3125 C 19.84375 25.3125 19.425781 24.890625 19.425781 24.375 C 19.425781 23.855469 19.84375 23.4375 20.363281 23.4375 L 23.109375 23.4375 C 23.625 23.4375 24.046875 23.855469 24.046875 24.375 C 24.046875 24.890625 23.625 25.3125 23.109375 25.3125 Z M 23.109375 25.3125 "/>
</g>
</svg>
