<?xml version="1.0" encoding="UTF-8"?>
<svg xmlns="http://www.w3.org/2000/svg" xmlns:xlink="http://www.w3.org/1999/xlink" width="30pt" height="29pt" viewBox="0 0 30 29" version="1.1">
<g id="surface1">
<path style=" stroke:none;fill-rule:nonzero;fill:rgb(100%,90.196078%,0%);fill-opacity:1;" d="M 15 0.492188 C 12.894531 0.492188 11.1875 2.140625 11.1875 4.179688 L 11.1875 6.882812 L 18.8125 6.882812 L 18.8125 4.179688 C 18.8125 2.140625 17.105469 0.492188 15 0.492188 Z M 15 0.492188 "/>
<path style=" stroke:none;fill-rule:nonzero;fill:rgb(37.647059%,18.431373%,45.882353%);fill-opacity:1;" d="M 18.8125 7.371094 L 11.1875 7.371094 C 10.90625 7.371094 10.679688 7.152344 10.679688 6.882812 L 10.679688 4.179688 C 10.679688 1.875 12.617188 0 15 0 C 17.382812 0 19.320312 1.875 19.320312 4.179688 L 19.320312 6.882812 C 19.320312 7.152344 19.09375 7.371094 18.8125 7.371094 Z M 11.695312 6.390625 L 18.304688 6.390625 L 18.304688 4.179688 C 18.304688 2.417969 16.824219 0.984375 15 0.984375 C 13.175781 0.984375 11.695312 2.417969 11.695312 4.179688 Z M 11.695312 6.390625 "/>
<path style=" stroke:none;fill-rule:nonzero;fill:rgb(91.764706%,91.764706%,91.764706%);fill-opacity:1;" d="M 26.1875 9.339844 L 3.8125 9.339844 L 5.339844 6.882812 L 24.660156 6.882812 Z M 26.1875 9.339844 "/>
<path style=" stroke:none;fill-rule:nonzero;fill:rgb(37.647059%,18.431373%,45.882353%);fill-opacity:1;" d="M 26.1875 9.832031 L 3.8125 9.832031 C 3.628906 9.832031 3.460938 9.734375 3.371094 9.582031 C 3.28125 9.425781 3.285156 9.238281 3.378906 9.085938 L 4.902344 6.628906 C 4.996094 6.480469 5.160156 6.390625 5.339844 6.390625 L 24.660156 6.390625 C 24.839844 6.390625 25.003906 6.480469 25.097656 6.628906 L 26.621094 9.085938 C 26.714844 9.238281 26.71875 9.425781 26.628906 9.582031 C 26.539062 9.734375 26.371094 9.832031 26.1875 9.832031 Z M 4.710938 8.847656 L 25.289062 8.847656 L 24.371094 7.371094 L 5.628906 7.371094 Z M 4.710938 8.847656 "/>
<path style=" stroke:none;fill-rule:nonzero;fill:rgb(91.764706%,20.392157%,34.117647%);fill-opacity:1;" d="M 21.917969 11.992188 L 14.988281 10.421875 L 16.726562 3.246094 L 23.65625 4.8125 Z M 21.917969 11.992188 "/>
<path style=" stroke:none;fill-rule:nonzero;fill:rgb(37.647059%,18.431373%,45.882353%);fill-opacity:1;" d="M 21.917969 12.484375 C 21.878906 12.484375 21.84375 12.480469 21.804688 12.46875 L 14.871094 10.902344 C 14.597656 10.839844 14.429688 10.578125 14.492188 10.3125 L 16.230469 3.132812 C 16.261719 3.007812 16.34375 2.894531 16.457031 2.828125 C 16.570312 2.757812 16.710938 2.738281 16.839844 2.765625 L 23.773438 4.332031 C 24.046875 4.394531 24.214844 4.660156 24.152344 4.925781 L 22.414062 12.105469 C 22.382812 12.230469 22.300781 12.339844 22.1875 12.410156 C 22.105469 12.457031 22.011719 12.484375 21.917969 12.484375 Z M 15.597656 10.058594 L 21.539062 11.402344 L 23.046875 5.179688 L 17.105469 3.835938 Z M 15.597656 10.058594 "/>
<path style=" stroke:none;fill-rule:nonzero;fill:rgb(91.764706%,20.392157%,34.117647%);fill-opacity:1;" d="M 15.378906 10.792969 L 6.875 11.765625 L 5.796875 2.957031 L 14.300781 1.984375 Z M 15.378906 10.792969 "/>
<path style=" stroke:none;fill-rule:nonzero;fill:rgb(37.647059%,18.431373%,45.882353%);fill-opacity:1;" d="M 6.871094 12.257812 C 6.617188 12.257812 6.398438 12.074219 6.367188 11.824219 L 5.292969 3.015625 C 5.273438 2.886719 5.3125 2.753906 5.398438 2.652344 C 5.480469 2.550781 5.601562 2.484375 5.738281 2.46875 L 14.242188 1.496094 C 14.515625 1.464844 14.773438 1.660156 14.804688 1.929688 L 15.882812 10.738281 C 15.898438 10.867188 15.859375 10.996094 15.777344 11.097656 C 15.695312 11.199219 15.570312 11.265625 15.4375 11.28125 L 6.933594 12.253906 C 6.914062 12.257812 6.894531 12.257812 6.871094 12.257812 Z M 6.359375 3.386719 L 7.320312 11.21875 L 14.8125 10.363281 L 13.855469 2.53125 Z M 6.359375 3.386719 "/>
<path style=" stroke:none;fill-rule:nonzero;fill:rgb(0%,90.588235%,100%);fill-opacity:1;" d="M 19.859375 13.542969 L 11.667969 15.449219 L 9.59375 7.113281 L 17.785156 5.210938 Z M 19.859375 13.542969 "/>
<path style=" stroke:none;fill-rule:nonzero;fill:rgb(37.647059%,18.431373%,45.882353%);fill-opacity:1;" d="M 11.667969 15.941406 C 11.574219 15.941406 11.484375 15.914062 11.402344 15.867188 C 11.289062 15.800781 11.207031 15.691406 11.171875 15.5625 L 9.101562 7.230469 C 9.070312 7.101562 9.089844 6.96875 9.160156 6.859375 C 9.230469 6.746094 9.34375 6.667969 9.476562 6.636719 L 17.667969 4.730469 C 17.941406 4.671875 18.214844 4.832031 18.28125 5.097656 L 20.355469 13.429688 C 20.386719 13.554688 20.363281 13.6875 20.292969 13.800781 C 20.222656 13.910156 20.109375 13.992188 19.976562 14.023438 L 11.785156 15.925781 C 11.746094 15.933594 11.707031 15.941406 11.667969 15.941406 Z M 10.207031 7.476562 L 12.042969 14.855469 L 19.246094 13.179688 L 17.410156 5.804688 Z M 10.207031 7.476562 "/>
<path style=" stroke:none;fill-rule:nonzero;fill:rgb(100%,100%,100%);fill-opacity:1;" d="M 26.328125 12.019531 L 27.203125 28.507812 L 2.796875 28.507812 L 3.8125 9.339844 L 26.1875 9.339844 "/>
<path style=" stroke:none;fill-rule:nonzero;fill:rgb(37.647059%,18.431373%,45.882353%);fill-opacity:1;" d="M 27.203125 29 L 2.796875 29 C 2.65625 29 2.523438 28.945312 2.429688 28.847656 C 2.332031 28.75 2.28125 28.617188 2.289062 28.484375 L 3.304688 9.3125 C 3.320312 9.050781 3.542969 8.847656 3.8125 8.847656 L 26.1875 8.847656 C 26.46875 8.847656 26.695312 9.066406 26.695312 9.339844 C 26.695312 9.609375 26.46875 9.832031 26.1875 9.832031 L 4.296875 9.832031 L 3.332031 28.015625 L 26.667969 28.015625 L 25.820312 12.046875 C 25.808594 11.773438 26.023438 11.542969 26.300781 11.53125 C 26.582031 11.519531 26.824219 11.726562 26.835938 11.996094 L 27.710938 28.484375 C 27.71875 28.617188 27.667969 28.75 27.570312 28.847656 C 27.476562 28.945312 27.34375 29 27.203125 29 Z M 27.203125 29 "/>
<path style=" stroke:none;fill-rule:nonzero;fill:rgb(100%,90.196078%,0%);fill-opacity:1;" d="M 7.117188 9.832031 L 15.253906 9.832031 L 15.253906 28.015625 L 7.117188 28.015625 Z M 7.117188 9.832031 "/>
<path style=" stroke:none;fill-rule:nonzero;fill:rgb(100%,100%,100%);fill-opacity:1;" d="M 19.832031 12.289062 C 19.832031 12.832031 19.375 13.269531 18.8125 13.269531 C 18.253906 13.269531 17.796875 12.832031 17.796875 12.289062 C 17.796875 11.746094 18.253906 11.304688 18.8125 11.304688 C 19.375 11.304688 19.832031 11.746094 19.832031 12.289062 Z M 19.832031 12.289062 "/>
<path style=" stroke:none;fill-rule:nonzero;fill:rgb(37.647059%,18.431373%,45.882353%);fill-opacity:1;" d="M 18.8125 13.761719 C 17.972656 13.761719 17.289062 13.101562 17.289062 12.289062 C 17.289062 11.476562 17.972656 10.8125 18.8125 10.8125 C 19.65625 10.8125 20.339844 11.476562 20.339844 12.289062 C 20.339844 13.101562 19.65625 13.761719 18.8125 13.761719 Z M 18.8125 11.796875 C 18.535156 11.796875 18.304688 12.015625 18.304688 12.289062 C 18.304688 12.558594 18.535156 12.78125 18.8125 12.78125 C 19.09375 12.78125 19.320312 12.558594 19.320312 12.289062 C 19.320312 12.015625 19.09375 11.796875 18.8125 11.796875 Z M 18.8125 11.796875 "/>
<path style=" stroke:none;fill-rule:nonzero;fill:rgb(100%,100%,100%);fill-opacity:1;" d="M 12.203125 12.289062 C 12.203125 12.832031 11.75 13.269531 11.1875 13.269531 C 10.625 13.269531 10.167969 12.832031 10.167969 12.289062 C 10.167969 11.746094 10.625 11.304688 11.1875 11.304688 C 11.75 11.304688 12.203125 11.746094 12.203125 12.289062 Z M 12.203125 12.289062 "/>
<path style=" stroke:none;fill-rule:nonzero;fill:rgb(37.647059%,18.431373%,45.882353%);fill-opacity:1;" d="M 11.1875 13.761719 C 10.34375 13.761719 9.660156 13.101562 9.660156 12.289062 C 9.660156 11.476562 10.34375 10.8125 11.1875 10.8125 C 12.027344 10.8125 12.710938 11.476562 12.710938 12.289062 C 12.710938 13.101562 12.027344 13.761719 11.1875 13.761719 Z M 11.1875 11.796875 C 10.90625 11.796875 10.679688 12.015625 10.679688 12.289062 C 10.679688 12.558594 10.90625 12.78125 11.1875 12.78125 C 11.464844 12.78125 11.695312 12.558594 11.695312 12.289062 C 11.695312 12.015625 11.464844 11.796875 11.1875 11.796875 Z M 11.1875 11.796875 "/>
<path style=" stroke:none;fill-rule:nonzero;fill:rgb(37.647059%,18.431373%,45.882353%);fill-opacity:1;" d="M 15 19.660156 C 12.617188 19.660156 10.679688 17.785156 10.679688 15.484375 L 10.679688 12.78125 C 10.679688 12.507812 10.90625 12.289062 11.1875 12.289062 C 11.46875 12.289062 11.695312 12.507812 11.695312 12.78125 L 11.695312 15.484375 C 11.695312 17.246094 13.175781 18.679688 15 18.679688 C 16.824219 18.679688 18.304688 17.246094 18.304688 15.484375 L 18.304688 12.910156 C 18.292969 12.867188 18.285156 12.824219 18.285156 12.78125 C 18.285156 12.507812 18.492188 12.289062 18.773438 12.289062 L 18.8125 12.289062 C 19.09375 12.289062 19.320312 12.507812 19.320312 12.78125 L 19.320312 15.484375 C 19.320312 17.785156 17.382812 19.660156 15 19.660156 Z M 15 19.660156 "/>
</g>
</svg>
