<?xml version="1.0" encoding="UTF-8"?>
<svg xmlns="http://www.w3.org/2000/svg" xmlns:xlink="http://www.w3.org/1999/xlink" width="30pt" height="30pt" viewBox="0 0 30 30" version="1.1">
<g id="surface1">
<path style=" stroke:none;fill-rule:nonzero;fill:rgb(100%,71.764706%,30.196078%);fill-opacity:1;" d="M 23.648438 9.414062 L 23.648438 11.398438 C 23.074219 11.300781 22.476562 11.25 21.875 11.25 C 19.9375 11.25 18.101562 11.773438 16.539062 12.699219 C 15.949219 13.023438 15.414062 13.414062 14.914062 13.851562 C 12.675781 15.800781 11.25 18.675781 11.25 21.875 C 11.25 22.960938 11.414062 24.011719 11.710938 25 L 2.601562 25 C 1.914062 25 1.351562 24.4375 1.351562 23.75 L 1.351562 9.414062 Z M 23.648438 9.414062 "/>
<path style=" stroke:none;fill-rule:nonzero;fill:rgb(47.45098%,33.333333%,28.235294%);fill-opacity:1;" d="M 16.539062 12.699219 C 15.949219 13.023438 15.414062 13.414062 14.910156 13.851562 L 9.460938 13.851562 C 8.898438 13.851562 8.449219 13.398438 8.449219 12.835938 C 8.449219 12.273438 8.898438 11.824219 9.460938 11.824219 L 15.535156 11.824219 C 16.050781 11.824219 16.476562 12.199219 16.539062 12.699219 Z M 16.539062 12.699219 "/>
<path style=" stroke:none;fill-rule:nonzero;fill:rgb(100%,80%,50.196078%);fill-opacity:1;" d="M 24.375 9.410156 L 0.625 9.410156 C 0.28125 9.410156 0 9.128906 0 8.785156 L 0 4.679688 L 25 4.679688 L 25 8.785156 C 25 9.128906 24.71875 9.410156 24.375 9.410156 Z M 24.375 9.410156 "/>
<path style=" stroke:none;fill-rule:nonzero;fill:rgb(100%,65.490196%,14.901961%);fill-opacity:1;" d="M 25 4.679688 L 21.285156 0 L 3.714844 0 L 0 4.679688 Z M 25 4.679688 "/>
<path style=" stroke:none;fill-rule:nonzero;fill:rgb(87.058824%,62.352941%,26.27451%);fill-opacity:1;" d="M 12.5 9.414062 L 1.351562 9.414062 L 1.351562 23.75 C 1.351562 24.4375 1.914062 25 2.601562 25 L 11.710938 25 C 11.414062 24.011719 11.25 22.960938 11.25 21.875 C 11.25 20.070312 11.703125 18.367188 12.5 16.878906 L 12.5 13.851562 L 9.460938 13.851562 C 8.898438 13.851562 8.449219 13.398438 8.449219 12.835938 C 8.449219 12.273438 8.898438 11.824219 9.460938 11.824219 L 12.5 11.824219 Z M 12.5 9.414062 "/>
<path style=" stroke:none;fill-rule:nonzero;fill:rgb(41.176471%,29.019608%,24.705882%);fill-opacity:1;" d="M 12.5 11.824219 L 9.460938 11.824219 C 8.898438 11.824219 8.449219 12.273438 8.449219 12.835938 C 8.449219 13.398438 8.898438 13.851562 9.460938 13.851562 L 12.5 13.851562 Z M 12.5 11.824219 "/>
<path style=" stroke:none;fill-rule:nonzero;fill:rgb(87.058824%,69.803922%,43.529412%);fill-opacity:1;" d="M 12.5 4.679688 L 0 4.679688 L 0 8.785156 C 0 9.128906 0.28125 9.410156 0.625 9.410156 L 12.5 9.410156 Z M 12.5 4.679688 "/>
<path style=" stroke:none;fill-rule:nonzero;fill:rgb(87.058824%,56.862745%,12.941176%);fill-opacity:1;" d="M 12.5 0 L 3.714844 0 L 0 4.679688 L 12.5 4.679688 Z M 12.5 0 "/>
<path style=" stroke:none;fill-rule:nonzero;fill:rgb(29.803922%,68.627451%,31.372549%);fill-opacity:1;" d="M 21.875 30 C 17.394531 30 13.75 26.355469 13.75 21.875 C 13.75 17.394531 17.394531 13.75 21.875 13.75 C 26.355469 13.75 30 17.394531 30 21.875 C 30 26.355469 26.355469 30 21.875 30 Z M 21.875 30 "/>
<path style=" stroke:none;fill-rule:nonzero;fill:rgb(100%,100%,100%);fill-opacity:1;" d="M 21.875 25 C 21.648438 25 21.421875 24.917969 21.242188 24.757812 L 17.804688 21.632812 C 17.421875 21.28125 17.394531 20.691406 17.742188 20.304688 C 18.089844 19.921875 18.683594 19.894531 19.070312 20.242188 L 21.875 22.796875 L 24.679688 20.242188 C 25.066406 19.894531 25.65625 19.921875 26.007812 20.304688 C 26.355469 20.6875 26.328125 21.28125 25.945312 21.632812 L 22.507812 24.757812 C 22.328125 24.917969 22.101562 25 21.875 25 Z M 21.875 25 "/>
<path style=" stroke:none;fill-rule:nonzero;fill:rgb(25.882353%,59.607843%,27.45098%);fill-opacity:1;" d="M 21.875 13.75 C 17.394531 13.75 13.75 17.394531 13.75 21.875 C 13.75 26.355469 17.394531 30 21.875 30 L 21.875 25 C 21.648438 25 21.421875 24.917969 21.242188 24.757812 L 17.804688 21.632812 C 17.421875 21.28125 17.394531 20.691406 17.742188 20.304688 C 17.929688 20.105469 18.179688 20 18.4375 20 C 18.660156 20 18.886719 20.078125 19.070312 20.242188 L 21.875 22.796875 Z M 21.875 13.75 "/>
<path style=" stroke:none;fill-rule:nonzero;fill:rgb(87.058824%,87.058824%,87.058824%);fill-opacity:1;" d="M 18.4375 20 C 18.179688 20 17.925781 20.105469 17.742188 20.308594 C 17.394531 20.691406 17.421875 21.285156 17.804688 21.632812 L 21.242188 24.757812 C 21.421875 24.917969 21.648438 25 21.875 25 L 21.875 22.796875 L 19.070312 20.242188 C 18.890625 20.078125 18.664062 20 18.4375 20 Z M 18.4375 20 "/>
</g>
</svg>
