<?xml version="1.0" encoding="UTF-8"?>
<svg xmlns="http://www.w3.org/2000/svg" xmlns:xlink="http://www.w3.org/1999/xlink" width="30pt" height="30pt" viewBox="0 0 30 30" version="1.1">
<g id="surface1">
<path style=" stroke:none;fill-rule:nonzero;fill:rgb(93.72549%,93.72549%,93.72549%);fill-opacity:1;" d="M 3.472656 23.019531 C 3.472656 17.253906 0.488281 13.296875 0.488281 10.519531 C 0.488281 7.742188 2.082031 1.910156 14.859375 1.910156 C 27.636719 1.910156 29.511719 9.753906 29.511719 12.8125 C 29.515625 27.117188 3.472656 33.226562 3.472656 23.019531 Z M 3.472656 23.019531 "/>
<path style=" stroke:none;fill-rule:nonzero;fill:rgb(18.431373%,87.45098%,51.764706%);fill-opacity:1;" d="M 24.199219 19.726562 L 23.125 21.875 L 22.050781 19.726562 C 21.933594 19.496094 21.875 19.238281 21.875 18.980469 L 21.875 11.875 C 21.875 11.183594 22.433594 10.625 23.125 10.625 C 23.816406 10.625 24.375 11.183594 24.375 11.875 L 24.375 18.980469 C 24.375 19.238281 24.316406 19.496094 24.199219 19.726562 Z M 24.199219 19.726562 "/>
<path style=" stroke:none;fill-rule:nonzero;fill:rgb(95.294118%,95.294118%,94.509804%);fill-opacity:1;" d="M 17.707031 8.125 L 16.042969 8.125 L 16.042969 8.957031 C 16.042969 9.417969 15.667969 9.792969 15.207031 9.792969 L 9.792969 9.792969 C 9.332031 9.792969 8.957031 9.417969 8.957031 8.957031 L 8.957031 8.125 L 7.292969 8.125 C 6.371094 8.125 5.625 8.871094 5.625 9.792969 L 5.625 22.707031 C 5.625 23.628906 6.371094 24.375 7.292969 24.375 L 17.707031 24.375 C 18.628906 24.375 19.375 23.628906 19.375 22.707031 L 19.375 9.792969 C 19.375 8.871094 18.628906 8.125 17.707031 8.125 Z M 17.707031 8.125 "/>
<path style=" stroke:none;fill-rule:nonzero;fill:rgb(18.431373%,87.45098%,51.764706%);fill-opacity:1;" d="M 16.042969 7.292969 L 16.042969 8.957031 C 16.042969 9.417969 15.667969 9.792969 15.207031 9.792969 L 9.792969 9.792969 C 9.332031 9.792969 8.957031 9.417969 8.957031 8.957031 L 8.957031 7.292969 L 10.832031 7.292969 C 10.832031 6.375 11.582031 5.625 12.5 5.625 C 13.417969 5.625 14.167969 6.375 14.167969 7.292969 Z M 16.042969 7.292969 "/>
<path style=" stroke:none;fill-rule:nonzero;fill:rgb(83.529412%,85.882353%,88.235294%);fill-opacity:1;" d="M 17.917969 8.957031 L 17.917969 8.144531 C 17.847656 8.136719 17.78125 8.125 17.707031 8.125 L 16.042969 8.125 L 16.042969 8.957031 C 16.042969 9.417969 15.667969 9.792969 15.207031 9.792969 L 17.082031 9.792969 C 17.542969 9.792969 17.917969 9.417969 17.917969 8.957031 Z M 17.917969 8.957031 "/>
<path style=" stroke:none;fill-rule:nonzero;fill:rgb(83.529412%,85.882353%,88.235294%);fill-opacity:1;" d="M 7.5 22.707031 L 7.5 9.792969 C 7.5 8.941406 8.136719 8.25 8.957031 8.144531 L 8.957031 8.125 L 7.292969 8.125 C 6.371094 8.125 5.625 8.871094 5.625 9.792969 L 5.625 22.707031 C 5.625 23.628906 6.371094 24.375 7.292969 24.375 L 9.167969 24.375 C 8.246094 24.375 7.5 23.628906 7.5 22.707031 Z M 7.5 22.707031 "/>
<path style=" stroke:none;fill-rule:nonzero;fill:rgb(0%,72.156863%,44.313725%);fill-opacity:1;" d="M 10.832031 8.957031 L 10.832031 7.292969 L 8.957031 7.292969 L 8.957031 8.957031 C 8.957031 9.417969 9.332031 9.792969 9.792969 9.792969 L 11.667969 9.792969 C 11.207031 9.792969 10.832031 9.417969 10.832031 8.957031 Z M 10.832031 8.957031 "/>
<path style=" stroke:none;fill-rule:nonzero;fill:rgb(0%,72.156863%,44.313725%);fill-opacity:1;" d="M 13.4375 5.917969 C 13.171875 5.734375 12.847656 5.625 12.5 5.625 C 11.582031 5.625 10.832031 6.375 10.832031 7.292969 L 12.707031 7.292969 C 12.707031 6.722656 13 6.21875 13.4375 5.917969 Z M 13.4375 5.917969 "/>
<path style=" stroke:none;fill-rule:nonzero;fill:rgb(0%,0%,0%);fill-opacity:1;" d="M 23.125 22.5 C 22.886719 22.5 22.671875 22.367188 22.566406 22.152344 L 21.492188 20.003906 C 21.335938 19.6875 21.25 19.335938 21.25 18.980469 L 21.25 11.875 C 21.25 10.839844 22.089844 10 23.125 10 C 24.160156 10 25 10.839844 25 11.875 L 25 18.980469 C 25 19.335938 24.914062 19.691406 24.757812 20.003906 L 23.683594 22.152344 C 23.578125 22.367188 23.363281 22.5 23.125 22.5 Z M 23.125 11.25 C 22.78125 11.25 22.5 11.53125 22.5 11.875 L 22.5 18.980469 C 22.5 19.140625 22.539062 19.304688 22.609375 19.449219 L 23.125 20.476562 L 23.640625 19.449219 C 23.710938 19.304688 23.75 19.140625 23.75 18.980469 L 23.75 11.875 C 23.75 11.53125 23.46875 11.25 23.125 11.25 Z M 23.125 11.25 "/>
<path style=" stroke:none;fill-rule:nonzero;fill:rgb(0%,0%,0%);fill-opacity:1;" d="M 8.125 12.5 L 16.875 12.5 L 16.875 13.75 L 8.125 13.75 Z M 8.125 12.5 "/>
<path style=" stroke:none;fill-rule:nonzero;fill:rgb(0%,0%,0%);fill-opacity:1;" d="M 8.125 15 L 16.875 15 L 16.875 16.25 L 8.125 16.25 Z M 8.125 15 "/>
<path style=" stroke:none;fill-rule:nonzero;fill:rgb(0%,0%,0%);fill-opacity:1;" d="M 8.125 17.5 L 16.875 17.5 L 16.875 18.75 L 8.125 18.75 Z M 8.125 17.5 "/>
<path style=" stroke:none;fill-rule:nonzero;fill:rgb(0%,0%,0%);fill-opacity:1;" d="M 8.125 20 L 16.875 20 L 16.875 21.25 L 8.125 21.25 Z M 8.125 20 "/>
<path style=" stroke:none;fill-rule:nonzero;fill:rgb(0%,0%,0%);fill-opacity:1;" d="M 17.707031 25 L 7.292969 25 C 6.027344 25 5 23.972656 5 22.707031 L 5 9.792969 C 5 8.527344 6.027344 7.5 7.292969 7.5 L 8.859375 7.5 L 8.859375 8.75 L 7.292969 8.75 C 6.71875 8.75 6.25 9.21875 6.25 9.792969 L 6.25 22.707031 C 6.25 23.28125 6.71875 23.75 7.292969 23.75 L 17.707031 23.75 C 18.28125 23.75 18.75 23.28125 18.75 22.707031 L 18.75 9.792969 C 18.75 9.21875 18.28125 8.75 17.707031 8.75 L 16.140625 8.75 L 16.140625 7.5 L 17.707031 7.5 C 18.972656 7.5 20 8.527344 20 9.792969 L 20 22.707031 C 20 23.972656 18.972656 25 17.707031 25 Z M 17.707031 25 "/>
<path style=" stroke:none;fill-rule:nonzero;fill:rgb(0%,0%,0%);fill-opacity:1;" d="M 15.207031 10.417969 L 9.792969 10.417969 C 8.988281 10.417969 8.332031 9.761719 8.332031 8.957031 L 8.332031 7.292969 C 8.332031 6.945312 8.613281 6.667969 8.957031 6.667969 L 10.296875 6.667969 C 10.566406 5.707031 11.453125 5 12.5 5 C 13.546875 5 14.433594 5.707031 14.703125 6.667969 L 16.042969 6.667969 C 16.386719 6.667969 16.667969 6.945312 16.667969 7.292969 L 16.667969 8.957031 C 16.667969 9.761719 16.011719 10.417969 15.207031 10.417969 Z M 9.582031 7.917969 L 9.582031 8.957031 C 9.582031 9.074219 9.675781 9.167969 9.792969 9.167969 L 15.207031 9.167969 C 15.324219 9.167969 15.417969 9.074219 15.417969 8.957031 L 15.417969 7.917969 L 14.167969 7.917969 C 13.820312 7.917969 13.542969 7.636719 13.542969 7.292969 C 13.542969 6.71875 13.074219 6.25 12.5 6.25 C 11.925781 6.25 11.457031 6.71875 11.457031 7.292969 C 11.457031 7.636719 11.179688 7.917969 10.832031 7.917969 Z M 9.582031 7.917969 "/>
<path style=" stroke:none;fill-rule:nonzero;fill:rgb(64.313725%,68.627451%,75.686275%);fill-opacity:1;" d="M 13.980469 3.054688 L 15.648438 3.054688 L 15.648438 3.886719 L 13.980469 3.886719 Z M 13.980469 3.054688 "/>
<path style=" stroke:none;fill-rule:nonzero;fill:rgb(64.313725%,68.627451%,75.686275%);fill-opacity:1;" d="M 9.1875 3.054688 L 10.855469 3.054688 L 10.855469 3.886719 L 9.1875 3.886719 Z M 9.1875 3.054688 "/>
<path style=" stroke:none;fill-rule:nonzero;fill:rgb(64.313725%,68.627451%,75.686275%);fill-opacity:1;" d="M 12.105469 0.347656 L 12.9375 0.347656 L 12.9375 2.011719 L 12.105469 2.011719 Z M 12.105469 0.347656 "/>
<path style=" stroke:none;fill-rule:nonzero;fill:rgb(64.313725%,68.627451%,75.686275%);fill-opacity:1;" d="M 27.367188 11.042969 C 26.679688 11.042969 26.117188 10.480469 26.117188 9.792969 C 26.117188 9.101562 26.679688 8.542969 27.367188 8.542969 C 28.058594 8.542969 28.617188 9.101562 28.617188 9.792969 C 28.617188 10.480469 28.058594 11.042969 27.367188 11.042969 Z M 27.367188 9.375 C 27.136719 9.375 26.949219 9.5625 26.949219 9.792969 C 26.949219 10.023438 27.136719 10.207031 27.367188 10.207031 C 27.597656 10.207031 27.785156 10.023438 27.785156 9.792969 C 27.785156 9.5625 27.597656 9.375 27.367188 9.375 Z M 27.367188 9.375 "/>
</g>
</svg>
