<?xml version="1.0" encoding="UTF-8"?>
<svg xmlns="http://www.w3.org/2000/svg" xmlns:xlink="http://www.w3.org/1999/xlink" width="30pt" height="30pt" viewBox="0 0 30 30" version="1.1">
<g id="surface1">
<path style=" stroke:none;fill-rule:nonzero;fill:rgb(0%,0%,0%);fill-opacity:1;" d="M 28.273438 11.828125 L 18.566406 11.828125 C 18.152344 11.832031 17.820312 12.164062 17.816406 12.578125 L 17.816406 29.007812 C 17.820312 29.421875 18.152344 29.753906 18.566406 29.753906 L 28.273438 29.753906 C 28.6875 29.753906 29.019531 29.421875 29.019531 29.007812 L 29.019531 12.578125 C 29.019531 12.164062 28.6875 11.832031 28.273438 11.828125 Z M 22.300781 12.949219 L 24.539062 12.949219 C 24.746094 12.949219 24.914062 13.117188 24.914062 13.324219 C 24.914062 13.421875 24.875 13.519531 24.804688 13.589844 C 24.734375 13.660156 24.640625 13.699219 24.539062 13.695312 L 22.300781 13.695312 C 22.09375 13.695312 21.925781 13.53125 21.925781 13.324219 C 21.929688 13.117188 22.09375 12.953125 22.300781 12.949219 Z M 27.667969 26.019531 L 19.167969 26.019531 L 19.167969 15.5625 L 27.667969 15.5625 Z M 27.667969 26.019531 "/>
<path style=" stroke:none;fill-rule:nonzero;fill:rgb(0%,0%,0%);fill-opacity:1;" d="M 3.4375 5.164062 L 20.652344 5.164062 L 20.652344 10.886719 L 23.113281 10.886719 L 23.113281 2.703125 C 23.113281 1.34375 22.011719 0.242188 20.652344 0.246094 L 3.4375 0.246094 C 2.078125 0.242188 0.976562 1.34375 0.980469 2.703125 L 0.980469 27.296875 C 0.976562 28.65625 2.078125 29.757812 3.4375 29.753906 L 16.675781 29.753906 L 16.675781 24.222656 L 3.4375 24.222656 Z M 10.199219 2.089844 L 13.890625 2.089844 C 14.230469 2.089844 14.503906 2.363281 14.503906 2.703125 C 14.503906 3.042969 14.230469 3.316406 13.890625 3.320312 L 10.199219 3.320312 C 9.980469 3.320312 9.777344 3.203125 9.667969 3.011719 C 9.558594 2.820312 9.558594 2.585938 9.667969 2.394531 C 9.777344 2.207031 9.980469 2.089844 10.199219 2.089844 Z M 10.199219 2.089844 "/>
</g>
</svg>
