<?xml version="1.0" encoding="UTF-8"?>
<svg xmlns="http://www.w3.org/2000/svg" xmlns:xlink="http://www.w3.org/1999/xlink" width="30pt" height="30pt" viewBox="0 0 30 30" version="1.1">
<g id="surface1">
<path style=" stroke:none;fill-rule:nonzero;fill:rgb(27.058824%,35.294118%,39.215686%);fill-opacity:1;" d="M 29.101562 18.289062 L 26.34375 16.132812 C 26.429688 15.378906 26.429688 14.617188 26.34375 13.867188 L 29.101562 11.707031 C 29.621094 11.292969 29.757812 10.5625 29.429688 9.984375 L 26.558594 5.027344 C 26.230469 4.445312 25.527344 4.191406 24.902344 4.429688 L 21.652344 5.734375 C 21.039062 5.292969 20.386719 4.914062 19.699219 4.601562 L 19.199219 1.148438 C 19.109375 0.488281 18.542969 -0.00390625 17.871094 0 L 12.121094 0 C 11.460938 -0.00390625 10.894531 0.484375 10.804688 1.140625 L 10.304688 4.601562 C 9.617188 4.917969 8.964844 5.296875 8.351562 5.738281 L 5.09375 4.425781 C 4.476562 4.183594 3.773438 4.433594 3.449219 5.015625 L 0.578125 9.980469 C 0.238281 10.558594 0.378906 11.296875 0.902344 11.710938 L 3.660156 13.867188 C 3.574219 14.621094 3.574219 15.382812 3.660156 16.132812 L 0.898438 18.289062 C 0.382812 18.707031 0.242188 19.4375 0.574219 20.015625 L 3.441406 24.972656 C 3.769531 25.554688 4.472656 25.808594 5.097656 25.570312 L 8.347656 24.265625 C 8.960938 24.707031 9.613281 25.085938 10.304688 25.398438 L 10.804688 28.847656 C 10.890625 29.507812 11.457031 30.003906 12.121094 30 L 17.871094 30 C 18.539062 30.003906 19.101562 29.519531 19.195312 28.859375 L 19.695312 25.398438 C 20.382812 25.082031 21.035156 24.703125 21.648438 24.261719 L 24.910156 25.574219 C 25.527344 25.816406 26.230469 25.566406 26.554688 24.988281 L 29.433594 20 C 29.757812 19.425781 29.617188 18.699219 29.101562 18.289062 Z M 14.996094 21.25 C 11.546875 21.25 8.746094 18.453125 8.746094 15 C 8.746094 11.546875 11.546875 8.75 14.996094 8.75 C 18.449219 8.75 21.246094 11.546875 21.246094 15 C 21.242188 18.449219 18.449219 21.246094 14.996094 21.25 Z M 14.996094 21.25 "/>
</g>
</svg>
