<?xml version="1.0" encoding="UTF-8"?>
<svg xmlns="http://www.w3.org/2000/svg" xmlns:xlink="http://www.w3.org/1999/xlink" width="30pt" height="30pt" viewBox="0 0 30 30" version="1.1">
<g id="surface1">
<path style=" stroke:none;fill-rule:nonzero;fill:rgb(98.823529%,53.333333%,22.745098%);fill-opacity:1;" d="M 1.476562 6.457031 L 17.339844 6.457031 L 17.339844 18.953125 L 1.476562 18.953125 Z M 1.476562 6.457031 "/>
<path style=" stroke:none;fill-rule:nonzero;fill:rgb(24.313725%,63.529412%,89.803922%);fill-opacity:1;" d="M 28.523438 18.953125 L 28.523438 14.027344 L 25.476562 13.410156 L 22.472656 8.300781 L 17.339844 8.300781 L 17.339844 18.953125 Z M 28.523438 18.953125 "/>
<path style=" stroke:none;fill-rule:nonzero;fill:rgb(98.823529%,53.333333%,22.745098%);fill-opacity:1;" d="M 19.234375 6.457031 L 20.664062 6.457031 L 20.664062 8.300781 L 19.234375 8.300781 Z M 19.234375 6.457031 "/>
<path style=" stroke:none;fill-rule:nonzero;fill:rgb(87.45098%,93.333333%,95.686275%);fill-opacity:1;" d="M 26.574219 15.464844 L 28.523438 15.464844 L 28.523438 17.042969 L 26.574219 17.042969 Z M 26.574219 15.464844 "/>
<path style=" stroke:none;fill-rule:nonzero;fill:rgb(87.45098%,93.333333%,95.686275%);fill-opacity:1;" d="M 23.5 10.046875 L 19.234375 10.046875 L 19.234375 13.410156 L 25.476562 13.410156 Z M 23.5 10.046875 "/>
<path style=" stroke:none;fill-rule:nonzero;fill:rgb(24.313725%,63.529412%,89.803922%);fill-opacity:1;" d="M 1.476562 18.953125 L 28.523438 18.953125 L 28.523438 21.8125 L 1.476562 21.8125 Z M 1.476562 18.953125 "/>
<path style=" stroke:none;fill-rule:nonzero;fill:rgb(42.745098%,47.843137%,51.764706%);fill-opacity:1;" d="M 10.164062 20.375 C 10.164062 22.125 8.746094 23.542969 7 23.542969 C 5.25 23.542969 3.832031 22.125 3.832031 20.375 C 3.832031 18.625 5.25 17.210938 7 17.210938 C 8.746094 17.210938 10.164062 18.625 10.164062 20.375 Z M 10.164062 20.375 "/>
<path style=" stroke:none;fill-rule:nonzero;fill:rgb(42.745098%,47.843137%,51.764706%);fill-opacity:1;" d="M 26.167969 20.375 C 26.167969 22.125 24.75 23.542969 23 23.542969 C 21.253906 23.542969 19.835938 22.125 19.835938 20.375 C 19.835938 18.625 21.253906 17.210938 23 17.210938 C 24.75 17.210938 26.167969 18.625 26.167969 20.375 Z M 26.167969 20.375 "/>
<path style=" stroke:none;fill-rule:nonzero;fill:rgb(87.45098%,93.333333%,95.686275%);fill-opacity:1;" d="M 8.175781 20.375 C 8.175781 21.027344 7.648438 21.554688 7 21.554688 C 6.347656 21.554688 5.820312 21.027344 5.820312 20.375 C 5.820312 19.726562 6.347656 19.195312 7 19.195312 C 7.648438 19.195312 8.175781 19.726562 8.175781 20.375 Z M 8.175781 20.375 "/>
<path style=" stroke:none;fill-rule:nonzero;fill:rgb(87.45098%,93.333333%,95.686275%);fill-opacity:1;" d="M 24.179688 20.375 C 24.179688 21.027344 23.652344 21.554688 23 21.554688 C 22.351562 21.554688 21.824219 21.027344 21.824219 20.375 C 21.824219 19.726562 22.351562 19.195312 23 19.195312 C 23.652344 19.195312 24.179688 19.726562 24.179688 20.375 Z M 24.179688 20.375 "/>
<path style=" stroke:none;fill-rule:nonzero;fill:rgb(9.411765%,57.254902%,83.921569%);fill-opacity:1;" d="M 20.171875 15.410156 L 19.234375 15.410156 C 19.007812 15.410156 18.824219 15.226562 18.824219 15 C 18.824219 14.773438 19.007812 14.589844 19.234375 14.589844 L 20.171875 14.589844 C 20.398438 14.589844 20.582031 14.773438 20.582031 15 C 20.582031 15.226562 20.398438 15.410156 20.171875 15.410156 Z M 20.171875 15.410156 "/>
<path style=" stroke:none;fill-rule:nonzero;fill:rgb(89.803922%,48.235294%,20%);fill-opacity:1;" d="M 7.84375 8.796875 L 3.777344 8.796875 C 3.550781 8.796875 3.367188 8.613281 3.367188 8.386719 C 3.367188 8.160156 3.550781 7.976562 3.777344 7.976562 L 7.84375 7.976562 C 8.070312 7.976562 8.253906 8.160156 8.253906 8.386719 C 8.253906 8.613281 8.070312 8.796875 7.84375 8.796875 Z M 7.84375 8.796875 "/>
<path style=" stroke:none;fill-rule:nonzero;fill:rgb(89.803922%,48.235294%,20%);fill-opacity:1;" d="M 10.3125 8.796875 L 9.46875 8.796875 C 9.242188 8.796875 9.058594 8.613281 9.058594 8.386719 C 9.058594 8.160156 9.242188 7.976562 9.46875 7.976562 L 10.3125 7.976562 C 10.539062 7.976562 10.722656 8.160156 10.722656 8.386719 C 10.722656 8.613281 10.539062 8.796875 10.3125 8.796875 Z M 10.3125 8.796875 "/>
</g>
</svg>
