<?xml version="1.0" encoding="UTF-8"?>
<svg xmlns="http://www.w3.org/2000/svg" xmlns:xlink="http://www.w3.org/1999/xlink" width="30pt" height="30pt" viewBox="0 0 30 30" version="1.1">
<g id="surface1">
<path style=" stroke:none;fill-rule:nonzero;fill:rgb(99.607843%,83.137255%,17.647059%);fill-opacity:1;" d="M 29.957031 11.558594 C 29.855469 11.238281 29.578125 11.007812 29.246094 10.960938 L 19.949219 9.609375 L 15.789062 1.179688 C 15.640625 0.882812 15.335938 0.691406 15 0.691406 C 14.664062 0.691406 14.359375 0.882812 14.210938 1.179688 L 10.050781 9.609375 L 0.753906 10.960938 C 0.421875 11.007812 0.144531 11.238281 0.0429688 11.558594 C -0.0585938 11.875 0.0273438 12.226562 0.265625 12.457031 L 6.996094 19.019531 L 5.40625 28.28125 C 5.351562 28.609375 5.484375 28.945312 5.757812 29.140625 C 6.027344 29.335938 6.386719 29.363281 6.683594 29.207031 L 15 24.835938 L 23.316406 29.207031 C 23.445312 29.277344 23.585938 29.308594 23.726562 29.308594 C 23.910156 29.308594 24.089844 29.253906 24.242188 29.140625 C 24.515625 28.945312 24.648438 28.609375 24.59375 28.28125 L 23.003906 19.019531 L 29.734375 12.457031 C 29.972656 12.226562 30.058594 11.875 29.957031 11.558594 Z M 29.957031 11.558594 "/>
<path style=" stroke:none;fill-rule:nonzero;fill:rgb(98.823529%,74.901961%,16.078431%);fill-opacity:1;" d="M 29.957031 11.558594 C 29.855469 11.238281 29.578125 11.007812 29.246094 10.960938 L 19.949219 9.609375 L 15.789062 1.179688 C 15.640625 0.882812 15.335938 0.691406 15 0.691406 L 15 24.835938 L 23.316406 29.207031 C 23.445312 29.277344 23.585938 29.308594 23.726562 29.308594 C 23.910156 29.308594 24.089844 29.253906 24.242188 29.140625 C 24.515625 28.945312 24.648438 28.609375 24.59375 28.28125 L 23.003906 19.019531 L 29.734375 12.457031 C 29.972656 12.226562 30.058594 11.875 29.957031 11.558594 Z M 29.957031 11.558594 "/>
</g>
</svg>
