<?xml version="1.0" encoding="UTF-8"?>
<svg xmlns="http://www.w3.org/2000/svg" xmlns:xlink="http://www.w3.org/1999/xlink" width="30pt" height="30pt" viewBox="0 0 30 30" version="1.1">
<g id="surface1">
<path style=" stroke:none;fill-rule:nonzero;fill:rgb(99.607843%,78.039216%,69.019608%);fill-opacity:1;" d="M 8.371094 18.511719 L 3.71875 18.511719 C 3.464844 18.511719 3.253906 18.722656 3.253906 18.976562 L 3.253906 29.207031 C 3.253906 29.464844 3.464844 29.671875 3.71875 29.671875 L 8.371094 29.671875 C 8.625 29.671875 8.835938 29.464844 8.835938 29.207031 L 8.835938 18.976562 C 8.835938 18.722656 8.625 18.511719 8.371094 18.511719 Z M 8.371094 18.511719 "/>
<path style=" stroke:none;fill-rule:nonzero;fill:rgb(99.607843%,66.666667%,53.333333%);fill-opacity:1;" d="M 4.648438 29.207031 L 4.648438 18.976562 C 4.648438 18.722656 4.859375 18.511719 5.117188 18.511719 L 3.71875 18.511719 C 3.464844 18.511719 3.253906 18.722656 3.253906 18.976562 L 3.253906 29.207031 C 3.253906 29.464844 3.464844 29.671875 3.71875 29.671875 L 5.117188 29.671875 C 4.859375 29.671875 4.648438 29.464844 4.648438 29.207031 Z M 4.648438 29.207031 "/>
<path style=" stroke:none;fill-rule:nonzero;fill:rgb(99.607843%,66.666667%,53.333333%);fill-opacity:1;" d="M 17.207031 16.1875 L 12.554688 16.1875 C 12.300781 16.1875 12.089844 16.398438 12.089844 16.652344 L 12.089844 29.207031 C 12.089844 29.464844 12.300781 29.671875 12.554688 29.671875 L 17.207031 29.671875 C 17.460938 29.671875 17.671875 29.464844 17.671875 29.207031 L 17.671875 16.652344 C 17.671875 16.398438 17.460938 16.1875 17.207031 16.1875 Z M 17.207031 16.1875 "/>
<path style=" stroke:none;fill-rule:nonzero;fill:rgb(99.215686%,55.686275%,38.039216%);fill-opacity:1;" d="M 13.484375 29.207031 L 13.484375 16.652344 C 13.484375 16.398438 13.695312 16.1875 13.949219 16.1875 L 12.554688 16.1875 C 12.300781 16.1875 12.089844 16.398438 12.089844 16.652344 L 12.089844 29.207031 C 12.089844 29.464844 12.300781 29.671875 12.554688 29.671875 L 13.949219 29.671875 C 13.695312 29.671875 13.484375 29.464844 13.484375 29.207031 Z M 13.484375 29.207031 "/>
<path style=" stroke:none;fill-rule:nonzero;fill:rgb(99.215686%,55.686275%,38.039216%);fill-opacity:1;" d="M 26.042969 11.074219 L 21.390625 11.074219 C 21.136719 11.074219 20.925781 11.28125 20.925781 11.539062 L 20.925781 29.207031 C 20.925781 29.464844 21.136719 29.671875 21.390625 29.671875 L 26.042969 29.671875 C 26.296875 29.671875 26.507812 29.464844 26.507812 29.207031 L 26.507812 11.539062 C 26.507812 11.28125 26.296875 11.074219 26.042969 11.074219 Z M 26.042969 11.074219 "/>
<path style=" stroke:none;fill-rule:nonzero;fill:rgb(99.215686%,44.705882%,22.352941%);fill-opacity:1;" d="M 22.320312 29.207031 L 22.320312 11.539062 C 22.320312 11.28125 22.53125 11.074219 22.785156 11.074219 L 21.390625 11.074219 C 21.136719 11.074219 20.925781 11.28125 20.925781 11.539062 L 20.925781 29.207031 C 20.925781 29.464844 21.136719 29.671875 21.390625 29.671875 L 22.785156 29.671875 C 22.53125 29.671875 22.320312 29.464844 22.320312 29.207031 Z M 22.320312 29.207031 "/>
<path style=" stroke:none;fill-rule:nonzero;fill:rgb(66.666667%,70.588235%,74.117647%);fill-opacity:1;" d="M 29.296875 29.671875 L 0.464844 29.671875 C 0.210938 29.671875 0 29.464844 0 29.207031 C 0 28.953125 0.210938 28.742188 0.464844 28.742188 L 29.296875 28.742188 C 29.550781 28.742188 29.761719 28.953125 29.761719 29.207031 C 29.761719 29.464844 29.550781 29.671875 29.296875 29.671875 Z M 29.296875 29.671875 "/>
<path style=" stroke:none;fill-rule:nonzero;fill:rgb(33.333333%,41.176471%,47.843137%);fill-opacity:1;" d="M 28.054688 0.320312 C 27.851562 0.144531 27.585938 0.0585938 27.320312 0.09375 L 23.601562 0.558594 C 23.089844 0.625 22.730469 1.089844 22.792969 1.597656 C 22.855469 2.105469 23.324219 2.46875 23.832031 2.402344 L 25.230469 2.230469 C 20.5 8.117188 14.679688 11.117188 10.507812 12.617188 C 5.632812 14.363281 1.871094 14.5 1.832031 14.503906 C 1.320312 14.519531 0.917969 14.949219 0.929688 15.460938 C 0.945312 15.964844 1.359375 16.363281 1.859375 16.363281 C 1.871094 16.363281 1.878906 16.363281 1.886719 16.363281 C 2.050781 16.359375 5.929688 16.21875 11.066406 14.390625 C 14.078125 13.320312 16.902344 11.878906 19.457031 10.117188 C 22.109375 8.289062 24.46875 6.101562 26.507812 3.609375 L 26.507812 4.738281 C 26.507812 5.25 26.921875 5.667969 27.4375 5.667969 C 27.949219 5.667969 28.367188 5.25 28.367188 4.738281 L 28.367188 1.019531 C 28.367188 0.75 28.253906 0.496094 28.054688 0.320312 Z M 28.054688 0.320312 "/>
</g>
</svg>
