<?xml version="1.0" encoding="UTF-8"?>
<svg xmlns="http://www.w3.org/2000/svg" xmlns:xlink="http://www.w3.org/1999/xlink" width="50pt" height="50pt" viewBox="0 0 50 50" version="1.1">
<g id="surface1">
<path style=" stroke:none;fill-rule:nonzero;fill:rgb(99.607843%,78.039216%,69.019608%);fill-opacity:1;" d="M 14.0625 31.101562 L 6.25 31.101562 C 5.820312 31.101562 5.46875 31.453125 5.46875 31.882812 L 5.46875 49.070312 C 5.46875 49.503906 5.820312 49.851562 6.25 49.851562 L 14.0625 49.851562 C 14.492188 49.851562 14.84375 49.503906 14.84375 49.070312 L 14.84375 31.882812 C 14.84375 31.453125 14.492188 31.101562 14.0625 31.101562 Z M 14.0625 31.101562 "/>
<path style=" stroke:none;fill-rule:nonzero;fill:rgb(99.607843%,66.666667%,53.333333%);fill-opacity:1;" d="M 7.8125 49.070312 L 7.8125 31.882812 C 7.8125 31.453125 8.164062 31.101562 8.59375 31.101562 L 6.25 31.101562 C 5.820312 31.101562 5.46875 31.453125 5.46875 31.882812 L 5.46875 49.070312 C 5.46875 49.503906 5.820312 49.851562 6.25 49.851562 L 8.59375 49.851562 C 8.164062 49.851562 7.8125 49.503906 7.8125 49.070312 Z M 7.8125 49.070312 "/>
<path style=" stroke:none;fill-rule:nonzero;fill:rgb(99.607843%,66.666667%,53.333333%);fill-opacity:1;" d="M 28.90625 27.195312 L 21.09375 27.195312 C 20.664062 27.195312 20.3125 27.546875 20.3125 27.976562 L 20.3125 49.070312 C 20.3125 49.503906 20.664062 49.851562 21.09375 49.851562 L 28.90625 49.851562 C 29.335938 49.851562 29.6875 49.503906 29.6875 49.070312 L 29.6875 27.976562 C 29.6875 27.546875 29.335938 27.195312 28.90625 27.195312 Z M 28.90625 27.195312 "/>
<path style=" stroke:none;fill-rule:nonzero;fill:rgb(99.215686%,55.686275%,38.039216%);fill-opacity:1;" d="M 22.65625 49.070312 L 22.65625 27.976562 C 22.65625 27.546875 23.007812 27.195312 23.4375 27.195312 L 21.09375 27.195312 C 20.664062 27.195312 20.3125 27.546875 20.3125 27.976562 L 20.3125 49.070312 C 20.3125 49.503906 20.664062 49.851562 21.09375 49.851562 L 23.4375 49.851562 C 23.007812 49.851562 22.65625 49.503906 22.65625 49.070312 Z M 22.65625 49.070312 "/>
<path style=" stroke:none;fill-rule:nonzero;fill:rgb(99.215686%,55.686275%,38.039216%);fill-opacity:1;" d="M 43.75 18.601562 L 35.9375 18.601562 C 35.507812 18.601562 35.15625 18.953125 35.15625 19.382812 L 35.15625 49.070312 C 35.15625 49.503906 35.507812 49.851562 35.9375 49.851562 L 43.75 49.851562 C 44.179688 49.851562 44.53125 49.503906 44.53125 49.070312 L 44.53125 19.382812 C 44.53125 18.953125 44.179688 18.601562 43.75 18.601562 Z M 43.75 18.601562 "/>
<path style=" stroke:none;fill-rule:nonzero;fill:rgb(99.215686%,44.705882%,22.352941%);fill-opacity:1;" d="M 37.5 49.070312 L 37.5 19.382812 C 37.5 18.953125 37.851562 18.601562 38.28125 18.601562 L 35.9375 18.601562 C 35.507812 18.601562 35.15625 18.953125 35.15625 19.382812 L 35.15625 49.070312 C 35.15625 49.503906 35.507812 49.851562 35.9375 49.851562 L 38.28125 49.851562 C 37.851562 49.851562 37.5 49.503906 37.5 49.070312 Z M 37.5 49.070312 "/>
<path style=" stroke:none;fill-rule:nonzero;fill:rgb(66.666667%,70.588235%,74.117647%);fill-opacity:1;" d="M 49.21875 49.851562 L 0.78125 49.851562 C 0.351562 49.851562 0 49.503906 0 49.070312 C 0 48.640625 0.351562 48.289062 0.78125 48.289062 L 49.21875 48.289062 C 49.648438 48.289062 50 48.640625 50 49.070312 C 50 49.503906 49.648438 49.851562 49.21875 49.851562 Z M 49.21875 49.851562 "/>
<path style=" stroke:none;fill-rule:nonzero;fill:rgb(33.333333%,41.176471%,47.843137%);fill-opacity:1;" d="M 47.128906 0.539062 C 46.792969 0.242188 46.34375 0.101562 45.898438 0.160156 L 39.648438 0.941406 C 38.792969 1.046875 38.1875 1.828125 38.292969 2.683594 C 38.398438 3.539062 39.183594 4.148438 40.039062 4.039062 L 42.386719 3.746094 C 34.4375 13.636719 24.664062 18.679688 17.652344 21.195312 C 9.464844 24.128906 3.140625 24.363281 3.078125 24.367188 C 2.214844 24.394531 1.539062 25.113281 1.5625 25.976562 C 1.589844 26.820312 2.28125 27.492188 3.125 27.492188 C 3.140625 27.492188 3.15625 27.488281 3.171875 27.488281 C 3.445312 27.480469 9.960938 27.25 18.589844 24.175781 C 23.652344 22.375 28.394531 19.957031 32.6875 16.996094 C 37.140625 13.925781 41.109375 10.253906 44.53125 6.0625 L 44.53125 7.960938 C 44.53125 8.820312 45.230469 9.523438 46.09375 9.523438 C 46.957031 9.523438 47.65625 8.820312 47.65625 7.960938 L 47.65625 1.710938 C 47.65625 1.261719 47.464844 0.835938 47.128906 0.539062 Z M 47.128906 0.539062 "/>
</g>
</svg>
